<svg width="50" height="50" viewBox="0 0 50 50" fill="none" xmlns="http://www.w3.org/2000/svg">
<circle cx="25" cy="25" r="25" fill="#00AF66"/>
<path d="M37.1875 18.4375V31.5625C37.1875 32.0598 36.99 32.5367 36.6383 32.8883C36.2867 33.24 35.8098 33.4375 35.3125 33.4375H14.6875C14.1902 33.4375 13.7133 33.24 13.3617 32.8883C13.01 32.5367 12.8125 32.0598 12.8125 31.5625V18.4375M37.1875 18.4375C37.1875 17.9402 36.99 17.4633 36.6383 17.1117C36.2867 16.76 35.8098 16.5625 35.3125 16.5625H14.6875C14.1902 16.5625 13.7133 16.76 13.3617 17.1117C13.01 17.4633 12.8125 17.9402 12.8125 18.4375M37.1875 18.4375L26.0669 26.1362C25.7534 26.3532 25.3812 26.4694 25 26.4694C24.6188 26.4694 24.2466 26.3532 23.9331 26.1362L12.8125 18.4375" stroke="white" stroke-width="2" stroke-linecap="round" stroke-linejoin="round"/>
</svg>
