<svg width="50" height="50" viewBox="0 0 50 50" fill="none" xmlns="http://www.w3.org/2000/svg">
<circle cx="25" cy="25" r="25" fill="#00AF66"/>
<path d="M32.0713 30.8213L26.7675 36.125C26.5356 36.3572 26.2601 36.5414 25.957 36.667C25.6538 36.7927 25.3288 36.8574 25.0006 36.8574C24.6724 36.8574 24.3475 36.7927 24.0443 36.667C23.7411 36.5414 23.4657 36.3572 23.2338 36.125L17.9288 30.8213C16.5303 29.4227 15.5779 27.6409 15.1921 25.7011C14.8063 23.7613 15.0044 21.7506 15.7613 19.9234C16.5181 18.0962 17.7999 16.5344 19.4444 15.4356C21.0888 14.3368 23.0222 13.7504 25 13.7504C26.9778 13.7504 28.9112 14.3368 30.5557 15.4356C32.2001 16.5344 33.4819 18.0962 34.2388 19.9234C34.9956 21.7506 35.1937 23.7613 34.8079 25.7011C34.4221 27.6409 33.4697 29.4227 32.0713 30.8213Z" stroke="white" stroke-width="2" stroke-linecap="round" stroke-linejoin="round"/>
<path d="M28.75 23.75C28.75 24.7446 28.3549 25.6984 27.6517 26.4017C26.9484 27.1049 25.9946 27.5 25 27.5C24.0054 27.5 23.0516 27.1049 22.3483 26.4017C21.6451 25.6984 21.25 24.7446 21.25 23.75C21.25 22.7554 21.6451 21.8016 22.3483 21.0983C23.0516 20.3951 24.0054 20 25 20C25.9946 20 26.9484 20.3951 27.6517 21.0983C28.3549 21.8016 28.75 22.7554 28.75 23.75Z" stroke="white" stroke-width="2" stroke-linecap="round" stroke-linejoin="round"/>
</svg>
