<svg width="24" height="24" viewBox="0 0 24 24" fill="none" xmlns="http://www.w3.org/2000/svg">
<path d="M12.0001 1.71429C17.6808 1.71429 22.2858 6.31929 22.2858 12C22.2858 17.6807 17.6808 22.2857 12.0001 22.2857C6.31936 22.2857 1.71436 17.6807 1.71436 12C1.71436 6.31929 6.31936 1.71429 12.0001 1.71429ZM12.0001 3.42858C7.26607 3.42858 3.42864 7.26601 3.42864 12C3.42864 16.734 7.26607 20.5714 12.0001 20.5714C16.7341 20.5714 20.5715 16.734 20.5715 12C20.5715 7.26601 16.7341 3.42858 12.0001 3.42858ZM12.2456 6.12258V7.27415C13.9496 7.41087 15.1835 8.43301 15.2379 9.98015H13.8202C13.7315 9.12129 13.1182 8.62372 12.2456 8.51487V11.3572L12.5731 11.4386C14.3658 11.8547 15.3472 12.591 15.3472 14.0426C15.3472 15.7127 13.9839 16.6599 12.2456 16.7829V17.9276H11.4755V16.7829C9.74407 16.653 8.37436 15.6784 8.32678 14.0426H9.73764C9.86021 14.8402 10.3784 15.4264 11.4755 15.5426V12.57L11.1961 12.5014C9.46464 12.0999 8.53121 11.3229 8.53121 9.93901C8.53121 8.41201 9.75778 7.40358 11.4755 7.27372V6.12215L12.2456 6.12258ZM12.2456 12.7474V15.549C13.4114 15.4603 13.9021 14.9083 13.9021 14.1789C13.9021 13.4769 13.5206 13.0612 12.2456 12.7474ZM11.4755 8.51487C10.4941 8.63744 9.97593 9.20315 9.97593 9.82372C9.97593 10.4439 10.3852 10.9003 11.4759 11.1733L11.4755 8.51487Z" fill="#00AF66"/>
</svg>
