<svg width="407" height="441" viewBox="0 0 407 441" fill="none" xmlns="http://www.w3.org/2000/svg">
<g clip-path="url(#clip0_710_5261)">
<path d="M37.611 321.659C64.1355 358.734 102.327 385.845 146.078 398.658C189.829 411.47 236.613 409.243 278.948 392.333C321.284 375.423 356.727 344.806 379.61 305.379C402.492 265.951 411.492 219.991 405.171 174.845C398.85 129.7 377.572 87.9781 344.741 56.3506C311.91 24.7231 269.421 5.01699 224.068 0.383182C178.716 -4.25063 133.119 6.45555 94.5694 30.7898C56.0196 55.124 26.7432 91.6808 11.4215 134.615C0.370542 165.591 -3.01938 198.782 1.54115 231.353C6.10168 263.924 18.4772 294.908 37.611 321.659Z" fill="#E6E6E6"/>
<path d="M47.1543 85.7501C48.9647 82.8101 45.7931 82.8101 47.0045 81.7485C47.8621 81.0135 48.9102 80.1151 48.4746 79.666C48.3521 79.5163 48.0527 79.5163 47.9302 79.3801C47.8077 79.244 46.392 79.2712 44.146 80.5779C41.9 81.8846 41.3419 84.1168 39.7221 84.9062C38.1023 85.6957 39.4907 88.6901 40.9472 89.4388C43.1387 90.6093 45.725 88.1185 47.1543 85.7501ZM49.6317 74.2079C49.9311 73.7451 51.6054 70.9413 50.9929 69.7435C50.6798 69.1582 50.0264 69.2671 49.3322 69.6618C48.4883 70.6282 47.6851 71.6218 46.8548 72.6018C47.0077 73.2716 47.2408 73.9206 47.549 74.5346C47.8485 75.6779 49.3322 74.7251 49.6317 74.2488V74.2079ZM1.20003 207.597C1.49949 207.311 1.58117 207.039 1.51311 206.835C1.44505 206.63 0.356084 205.868 -0.392578 205.052C-0.392578 207.556 -0.297292 210.047 -0.188395 212.551C0.669163 213.477 2.03037 214.362 2.68375 215.001C3.55492 215.832 5.16114 218.785 6.29094 218.69C8.23746 218.527 5.78729 214.607 5.31087 214.103C4.83445 213.599 1.14558 207.747 1.20003 207.692V207.597ZM185.235 136.152C185.982 135.782 186.639 135.25 187.157 134.596C187.674 133.942 188.041 133.181 188.229 132.368C188.46 131.119 188.233 129.829 187.59 128.734C186.964 127.713 185.344 126.012 184.282 126.774C183.846 127.101 184.01 127.7 183.656 128.026C183.302 128.353 182.118 128.162 181.519 128.326C179.831 128.816 181.247 130.585 181.519 131.606C181.73 132.307 181.73 133.055 181.519 133.757C181.342 134.41 180.893 135.118 181.178 135.907C181.954 137.962 184.064 136.656 185.235 136.247V136.152ZM165.96 86.2946C165.089 86.4715 164.286 87.3154 163.578 87.6557C162.645 87.8866 161.693 88.0278 160.733 88.0776C159.168 88.3226 157.711 90.6093 156.513 89.1665C155.316 87.7238 154.444 92.5557 156.173 95.2779C160.175 101.498 167.784 97.4965 169.785 93.141C170.997 90.2282 167.43 86.0224 165.96 86.2946ZM191.619 114.742C191.619 114.265 187.699 114.048 188.121 115.422C188.76 117.45 185.466 118.24 187.045 119.506C187.102 119.567 187.166 119.622 187.236 119.669C187.187 120.576 187.187 121.485 187.236 122.391C187.413 123.752 189.455 124.31 189.645 125.549C189.836 126.788 191.755 125.753 192.449 126.828C193.143 127.904 193.198 130.258 192.095 130.762C190.993 131.266 191.564 133.607 190.816 134.206C190.339 134.587 189.849 134.941 190.326 135.744C190.625 136.207 191.973 135.24 192.041 136.411C192.109 137.581 190.68 137.772 191.102 138.711C191.524 139.65 192.64 139.242 193.266 139.16C195.879 138.82 199.378 137.935 201.079 135.472C201.719 134.532 203.026 132.218 201.746 131.388C201.256 131.062 200.644 131.062 200.167 130.626C199.625 130.028 199.188 129.342 198.874 128.598C198.37 127.41 197.774 126.263 197.091 125.168C196.029 123.589 193.62 122.84 193.865 120.363C193.947 119.56 194.927 118.798 194.6 117.9C194.423 117.396 193.906 117.328 193.538 117.11C193.171 116.892 191.496 115.45 191.619 114.742ZM278.559 66.5313C279.12 66.8243 279.748 66.9624 280.38 66.9313C281.012 66.9002 281.624 66.701 282.153 66.3543C282.738 65.7963 281.88 64.5032 281.363 63.6321C281.159 63.2646 280.941 62.9379 280.737 62.5976C280.18 61.4739 279.843 60.2543 279.743 59.0043C279.691 58.2472 279.746 57.4865 279.907 56.7449C280.265 55.2565 281.012 53.8897 282.071 52.784C283.807 51.1074 285.773 49.6866 287.91 48.5646C288.918 48.0338 289.966 47.5438 291.028 47.0946C291.667 46.8088 292.321 46.5501 292.974 46.3051C293.514 46.2004 294.046 46.0594 294.567 45.8832C294.789 45.7254 294.968 45.5134 295.086 45.2673C295.204 45.0212 295.258 44.7492 295.241 44.4767C295.225 44.2043 295.139 43.9405 294.993 43.7103C294.846 43.4801 294.643 43.2911 294.403 43.161C294.206 43.0303 293.99 42.9294 293.764 42.8615C293.497 42.7852 293.217 42.7664 292.942 42.8063C292.668 42.8461 292.405 42.9439 292.171 43.0929C290.835 43.6989 289.41 44.085 287.951 44.2363C281.908 44.9985 277.062 47.3668 275.238 52.8929C274.495 54.7784 273.948 56.735 273.604 58.7321C273.604 59.4943 273.604 60.2565 272.76 60.3927C272.257 60.4879 272.039 60.6649 272.257 61.3454C272.991 62.9421 274.27 64.2255 275.864 64.966C276.732 65.5386 277.632 66.0612 278.559 66.5313ZM87.1192 90.6365C86.8041 90.4543 86.4997 90.2544 86.2072 90.0376C85.721 89.0342 85.6099 87.89 85.8942 86.8118C86.0632 86.1205 86.159 85.4134 86.18 84.7021C86.144 84.2812 86.0244 83.8718 85.828 83.4978C85.6317 83.1239 85.3626 82.7929 85.0366 82.5243C84.4761 81.8668 83.836 81.2815 83.1309 80.7821C81.9875 80.0063 79.2515 79.8974 78.3531 78.3049C77.4547 76.7124 76.8694 74.6707 75.4129 74.8068C75.2495 74.8068 74.6914 75.3513 74.4464 75.4465C74.1385 75.5844 73.7928 75.6132 73.4664 75.5282C72.881 75.3785 72.5271 74.8476 71.9963 74.5754C71.3926 74.274 70.7162 74.1486 70.0446 74.2136C69.3729 74.2785 68.7332 74.5313 68.1985 74.9429C67.6586 75.2873 67.0996 75.6008 66.5242 75.8821C65.5181 76.1949 64.4828 76.4047 63.4343 76.5082C61.8408 77.2015 60.384 78.1741 59.1329 79.3801C58.2251 80.1621 57.4444 81.0805 56.8188 82.1024C55.8796 83.7357 55.1309 86.349 56.1791 86.6213C57.2272 86.8935 59.1193 86.3082 60.3988 86.3899C61.6783 86.4715 64.3735 86.3899 63.2437 89.1121C62.3726 91.249 60.0449 90.6501 59.7182 93.1954C59.7992 94.071 59.6877 94.9536 59.3915 95.7815C58.8886 96.6176 58.2699 97.3782 57.5539 98.041C56.9991 98.6237 56.3982 99.1609 55.7571 99.6471C54.8995 100.219 53.7425 99.9738 53.9059 98.7488C54.042 97.7551 55.022 96.9793 55.2671 95.9449C55.3245 95.7951 55.3506 95.6351 55.3436 95.4749C55.3367 95.3146 55.2969 95.1575 55.2267 95.0133C55.1565 94.8691 55.0574 94.7408 54.9355 94.6365C54.8137 94.5322 54.6717 94.454 54.5184 94.4068C54.2411 94.2869 53.9475 94.209 53.6472 94.1754C53.0026 94.0072 52.4471 93.5979 52.0955 93.0321C51.9053 92.676 51.7502 92.3022 51.6326 91.916C51.4285 91.249 51.0609 90.5549 50.8432 89.8607C50.6284 88.3779 51.0102 86.8704 51.9049 85.6685C52.2588 85.3146 52.6671 84.9879 53.1436 84.4979C54.0866 83.4749 54.934 82.3678 55.6754 81.1904C57.3089 78.686 57.7581 76.2768 55.9068 76.4674C54.0556 76.6579 51.1834 78.8493 49.8359 81.9118C49.2327 83.7107 48.4673 85.451 47.549 87.1113C46.5553 88.6357 45.2078 89.7382 44.2821 91.1946C43.3565 92.651 43.4518 93.9168 42.7984 95.414C42.1451 96.9113 41.8864 96.5165 41.0425 97.0338C39.164 98.1771 39.2865 101.417 37.4489 102.9C36.8672 103.281 36.2059 103.523 35.516 103.608C34.4364 103.892 33.3015 103.892 32.2219 103.608C31.9224 103.526 31.514 103.431 31.7591 102.75C32.0994 101.77 33.025 101.539 33.5831 101.117C35.4592 99.5371 36.6538 97.2944 36.918 94.856C36.85 93.7535 35.8291 93.7943 35.2846 93.3179C34.7692 92.7299 34.4194 92.0153 34.2711 91.2476C34.1228 90.4798 34.1813 89.6864 34.4406 88.9488C31.4006 93.4858 28.5557 98.0954 25.9059 102.778C26.0948 102.785 26.2773 102.849 26.43 102.96C26.5827 103.072 26.6988 103.226 26.7634 103.404C26.9676 103.948 26.7634 104.588 26.2734 105.418C26.0087 105.939 25.7768 106.475 25.5792 107.024C25.2525 107.909 23.8369 111.23 22.8568 110.522C22.5967 110.322 22.3552 110.099 22.1354 109.855C7.35456 138.597 -0.363414 170.446 -0.378963 202.765C-0.0821916 202.68 0.232069 202.679 0.529655 202.76C0.827242 202.842 1.09676 203.004 1.30893 203.228C3.13294 204.82 4.16746 209.053 5.99147 210.659C9.02696 213.382 12.5661 216.703 14.2948 220.555C15.411 223.073 17.0172 226.816 19.236 228.218C23.5646 230.94 28.6691 233.104 33.1203 232.777C37.5714 232.451 42.2267 240.155 46.4601 237.909C46.9773 237.637 49.1825 241.257 49.5228 241.733C50.7711 243.439 52.3554 244.87 54.1781 245.939C56.0393 247.047 58.0099 247.959 60.0585 248.662C63.761 250.023 68.2257 252.296 67.3273 257.903C66.7965 261.279 65.2719 264.491 64.3191 267.772C63.3662 271.052 62.672 274.7 64.428 278.089C66.1839 281.478 68.9744 283.792 70.7303 287.031C72.4863 290.271 71.8193 294.449 73.6433 298.002C75.9438 302.439 79.3332 303.256 83.6618 305.066C87.0071 306.321 89.7899 308.736 91.5023 311.872C95.697 319.114 99.1929 326.738 101.943 334.643C105.441 344.429 108.245 354.828 113.826 363.607C116.415 367.975 119.762 371.846 123.708 375.041C126.336 377.069 128.963 377.205 128.963 373.258C128.963 370.835 127.111 368.78 126.24 366.602C125.369 364.424 126.322 362.518 126.322 360.273C126.322 358.394 124.729 355.509 126.063 353.998C127.397 352.487 129.357 353.576 130.147 351.562C131.113 349.043 128.391 347.805 127.996 345.804C127.601 343.803 130.977 343.844 132.08 342.075C132.774 340.958 132.461 339.475 132.951 338.304C133.346 337.352 133.863 337.202 134.462 336.521C135.466 335.139 136.116 333.531 136.354 331.839C136.926 329.117 134.353 325.959 135.456 323.387C136.231 321.576 138.927 319.698 140.9 318.732C142.466 317.997 143.528 317.901 144.535 315.873C145.514 313.443 145.765 310.78 145.256 308.21C144.834 306.55 145.488 304.835 145.188 303.637C144.278 301.074 143.755 298.391 143.636 295.674C143.8 290.693 148.088 287.372 148.401 282.131C148.591 278.865 145.093 275.897 142.697 274.931C140.301 273.965 137.416 269.908 134.761 270.072H133.89C131.168 270.235 127.084 266.928 124.362 265.988C123.75 265.796 123.127 265.641 122.497 265.526C119.775 264.981 116.508 261.905 114.969 258.924C113.54 256.202 111.825 253.562 109.525 252.459C106.53 250.989 102.719 253.575 100.078 250.553C98.9997 249.211 97.6734 248.088 96.1712 247.246C94.6093 246.519 93.1932 245.514 91.9923 244.279C90.2772 242.278 88.9705 243.911 87.0784 243.163C85.9758 242.727 85.5675 242.169 84.356 242.223C82.7372 242.393 81.1105 242.474 79.4829 242.468C78.1217 242.387 77.6452 241.733 76.5427 240.958C74.0381 239.215 70.2403 240.767 68.811 242.918C68.1168 243.979 67.9127 245.64 67.2184 246.538C65.8572 248.485 62.3589 247.123 60.3035 246.116C58.6871 245.354 57.2634 244.238 56.1382 242.85C54.777 241.148 53.8106 240.726 53.7697 238.453C53.7697 236.806 53.9739 234.669 52.7352 233.295C52.2011 232.832 51.577 232.486 50.9022 232.278C50.2274 232.069 49.5167 232.003 48.8149 232.083C47.7668 232.083 46.4192 232.573 45.3711 232.083C44.8124 231.739 44.3521 231.256 44.035 230.681C43.7178 230.106 43.5544 229.459 43.5607 228.803C43.7649 227.932 44.6633 227.442 45.058 226.652C45.3184 226.241 45.4813 225.775 45.5344 225.291C45.5344 225.06 45.2486 224.066 45.2894 223.93C46.1742 222.093 45.7114 221.072 44.6769 220.691C42.8529 220.01 39.8991 221.82 39.5588 224.121C39.2185 226.421 35.6249 228.109 33.2156 227.183C28.5058 225.359 25.9059 216.784 27.0901 210.85C27.6482 208.128 30.3706 204.33 32.7527 203.908C34.672 203.554 36.8364 204.262 39.0143 204.344C39.9263 204.453 39.8718 203.813 39.831 203.173C39.831 202.112 41.832 202.071 43.3293 201.921C44.8266 201.771 48.2432 202.22 49.9039 204.507C50.6399 205.688 51.2512 206.943 51.7279 208.25C52.8441 210.877 56.4921 212.265 55.6618 209.407C55.1445 207.624 54.1373 205.324 53.5111 203.35C52.6399 200.519 54.6545 196.653 56.4241 195.061C57.545 194.167 58.6045 193.198 59.5957 192.162C60.5575 191.232 61.2007 190.022 61.4333 188.705C61.4333 187.153 60.3716 185.765 60.426 184.063C60.4131 182.887 60.6545 181.721 61.1339 180.647C61.9235 178.882 63.1861 177.37 64.7819 176.278C66.2247 175.366 68.8655 175.515 69.5597 173.419C70.2539 171.323 70.2403 170.057 71.8601 168.342C72.8583 167.322 73.9946 166.447 75.2359 165.743C77.2097 164.586 76.284 168.233 78.7206 167.825C81.2074 167.036 83.5184 165.775 85.5266 164.109C87.759 162.408 88.6438 159.658 87.8815 158.815C87.1192 157.971 85.2272 162.721 82.845 162.285C82.5918 162.244 82.3447 162.171 82.11 162.068C79.8912 161.088 80.1499 157.372 79.7279 157.453C79.3059 157.535 79.3331 156.909 79.8776 156.637C80.4221 156.365 81.0619 152.322 78.6934 153.37C78.2986 153.547 77.8767 153.778 77.4411 154.023C75.1406 155.385 74.8003 153.452 77.0872 152.118C80.7216 149.995 85.091 149.396 89.2155 148.212C91.6929 147.477 92.6185 148.77 91.2573 151.56C89.8961 154.35 89.1883 156.215 91.0123 156.514C93.4624 156.909 96.3618 155.67 96.4571 156.637C96.4571 157.263 96.566 157.835 97.3691 157.195C98.5806 156.215 99.969 158.27 100.99 156.637C101.187 156.198 101.264 155.715 101.214 155.237C101.164 154.759 100.988 154.303 100.704 153.915C99.9962 152.635 99.0842 150.321 97.6141 150.308C96.144 150.294 95.7356 146.605 96.4571 143.502C96.5388 143.189 96.6068 142.862 96.6749 142.549C97.2738 139.46 93.5033 137.105 91.6248 135.594C86.0983 130.993 88.1265 130.653 85.445 124.052C84.4649 121.602 82.2733 122.092 80.3132 124.31C79.2787 125.495 78.2169 126.352 77.373 126.27C75.2223 126.053 76.5427 119.56 75.1134 118.948C74.3239 118.607 73.2758 118.512 72.8538 117.233C72.1732 114.932 69.9 114.211 67.6812 114.715C65.4625 115.218 63.3934 119.07 63.516 121.357C63.6385 123.643 61.5694 127.237 62.3317 128.829C63.094 130.422 64.1421 134.505 62.4542 136.996C61.4333 138.466 59.9768 139.637 59.1193 141.147C57.5947 143.788 59.514 147.79 58.5339 149.314C58.4393 149.514 58.3058 149.694 58.1413 149.842C57.9768 149.99 57.7846 150.104 57.5757 150.177C57.3668 150.251 57.1455 150.282 56.9244 150.269C56.7034 150.257 56.4871 150.2 56.288 150.103C55.561 149.649 54.9323 149.053 54.439 148.352C53.9457 147.651 53.5979 146.858 53.4158 146.02C52.9666 142.413 54.3823 140.222 51.306 139.528C47.2306 138.653 43.371 136.973 39.9535 134.587C38.3881 133.43 38.5923 131.865 38.2248 129.782C37.8573 127.7 36.0468 127.196 38.429 124.338C39.9263 122.5 42.1723 121.166 43.1523 118.458C44.1324 115.749 41.7095 115.735 43.2885 113.571C44.8675 111.407 48.4202 112.21 50.0945 111.366C50.5561 111.21 50.9811 110.962 51.3438 110.637C51.7065 110.312 51.9993 109.916 52.2044 109.474C53.0075 107.596 51.551 107.555 51.2515 106.643C51.1562 106.357 51.7007 106.167 52.2588 106.044C53.0172 105.967 53.7528 105.74 54.4231 105.377C54.8344 105.066 55.1811 104.678 55.444 104.234C55.7299 103.717 55.689 103.322 56.0702 102.873C56.4037 102.477 56.8501 102.192 57.3497 102.056C58.3785 101.894 59.3565 101.499 60.2082 100.899C61.7506 99.9741 63.0227 98.6598 63.8971 97.0882C64.4459 96.0028 64.7393 94.8063 64.7547 93.5901C64.5913 92.9504 63.7746 93.0457 63.8699 92.0385C64.1557 88.731 67.6949 88.6085 68.8791 88.3363C70.6487 87.9143 72.7449 87.3563 72.1324 90.6638C71.8465 92.1201 71.4109 95.6318 73.3302 93.6446C74.4328 92.5285 74.8412 91.9976 75.4946 92.9776C75.8593 93.3549 76.1201 93.8204 76.2513 94.3285C76.3825 94.8366 76.3797 95.3701 76.2432 95.8768C76.1269 96.4147 75.8999 96.9225 75.5764 97.3678C75.253 97.813 74.8404 98.186 74.3648 98.4629C73.0988 99.3885 71.6423 104.125 69.5597 104.533L68.566 104.738C66.5106 105.228 66.4698 110.032 68.566 109.052C70.6623 108.072 72.9219 109.338 74.2831 110.985C76.2024 113.313 79.1153 115.803 80.5582 115.749C82.7225 115.749 81.4158 111.012 82.4911 110.59C83.0916 110.311 83.7368 110.141 84.3968 110.087C84.7507 110.087 85.0094 107.283 84.9821 106.997C84.9437 106.194 84.6743 105.419 84.2063 104.765C83.3079 103.622 81.9467 103.54 81.4838 101.702C80.9802 99.6335 83.0901 97.7551 84.2063 98.4629C84.7646 98.9965 85.1529 99.6831 85.3224 100.437C85.7989 101.798 86.9014 102.437 87.4051 102.179C87.7566 102.011 88.0641 101.764 88.3035 101.457C88.9977 100.627 88.9841 99.6199 89.5286 98.7351C90.427 97.374 91.6384 97.7143 92.5096 96.3804C92.6882 96.1834 92.8198 95.9484 92.8943 95.6931C92.9688 95.4379 92.9844 95.169 92.9398 94.9068C92.8952 94.6447 92.7917 94.3961 92.637 94.1798C92.4823 93.9635 92.2805 93.7851 92.0468 93.6582C90.4269 92.4196 88.5893 91.739 87.1192 90.6365ZM53.7697 164.994C55.6346 165.933 52.9802 167.716 52.6672 169.54C52.3541 171.364 51.0201 172.045 51.1018 171.024C51.1018 170.398 51.1018 169.921 50.2306 170.262C48.9783 170.752 49.2914 169.826 49.6589 168.805C50.1625 167.444 46.9365 166.178 45.9972 169.037C45.7731 169.811 45.5913 170.597 45.4528 171.391C44.8811 174.304 42.0634 174.209 42.6623 171.31C42.744 170.942 42.8256 170.561 42.9209 170.193C43.6832 167.308 42.8256 163.851 40.498 164.082C37.7756 164.327 35.271 165.185 37.5033 163.17C39.7357 161.156 43.3021 157.059 45.235 158.148C46.2104 158.912 46.978 159.909 47.4674 161.047C48.6108 163.238 51.8504 164.041 53.7017 164.994H53.7697ZM194.654 33.9463C195.265 34.5878 195.961 35.142 196.723 35.5932C197.608 36.1135 198.459 36.691 199.269 37.3218C199.379 37.4369 199.475 37.5649 199.555 37.7029C199.868 38.2338 199.65 38.1249 199.636 38.5196C199.636 39.2546 200.086 39.6629 200.834 40.0168C201.583 40.3707 202.032 40.7518 202.658 41.1465C203.666 41.7863 205.544 42.004 205.83 40.9696C205.968 40.2662 206.009 39.5472 205.952 38.8326C205.822 37.652 205.822 36.4607 205.952 35.2801C205.964 35.1125 205.964 34.9442 205.952 34.7765C205.952 34.4907 206.619 34.1096 207.504 34.5451C208.117 34.8446 208.756 35.2529 209.11 35.4299L209.75 35.7293C210.104 35.9471 210.104 36.4915 210.104 36.6821C210.106 36.749 210.122 36.8147 210.15 36.8755C210.178 36.9362 210.218 36.9908 210.267 37.036C210.453 37.2435 210.694 37.3944 210.962 37.4715C211.772 37.8765 212.64 38.1564 213.534 38.3018C213.868 38.3534 214.208 38.3534 214.542 38.3018C214.703 38.2292 214.842 38.115 214.944 37.9708C215.046 37.8265 215.109 37.6576 215.124 37.4815C215.139 37.3053 215.107 37.1282 215.031 36.9686C214.955 36.8089 214.838 36.6724 214.691 36.5732C213.413 36.0172 212.176 35.3713 210.989 34.6404C210.166 34.0584 209.444 33.3457 208.852 32.5307C207.708 30.9382 208.852 30.5843 209.886 30.5435C210.684 30.5219 211.477 30.4216 212.255 30.244C213.442 30.005 214.505 29.3483 215.249 28.3929C215.346 28.0883 215.379 27.7674 215.349 27.4494C215.319 27.1314 215.225 26.8227 215.072 26.5418L214.936 26.3921C214.52 25.9841 214.006 25.6907 213.443 25.5404C212.88 25.3902 212.288 25.3882 211.724 25.5346C210.458 25.6843 209.07 25.7796 207.749 25.8068C207.161 25.8682 206.568 25.8682 205.98 25.8068C205.539 25.6688 205.08 25.5999 204.618 25.6026C203.828 25.7899 203.085 26.1424 202.44 26.6371C201.691 27.1972 200.777 27.4939 199.841 27.481C199.282 27.481 198.357 27.1815 198.343 27.8757C198.343 28.8693 199.582 29.7404 199.841 30.6932C200.045 31.4146 199.187 31.1696 198.629 30.6115C198.071 30.0535 198.044 29.2504 197.54 28.6924C197.036 28.1343 196.683 28.4338 196.601 28.6924C196.465 29.2232 196.601 30.0535 195.634 29.3593C195.063 29.0054 194.804 28.5154 194.178 28.3521C193.103 28.0663 190.802 28.9238 191.796 30.7613C192.136 31.3874 192.667 31.6324 193.157 32.1224C193.647 32.6124 194.11 33.3746 194.654 33.9463ZM209.165 165.634C210.009 164.654 209.764 163.687 207.109 163.932C206.687 163.932 206.088 164.681 205.748 165.484C205.163 166.614 207.708 167.281 209.151 165.634H209.165ZM404.048 226.339C402.034 226.108 401.217 228.204 399.829 229.837C398.141 231.746 396.282 233.496 394.275 235.064C393.05 236.03 390.926 235.064 390.572 237.46C390.315 239.519 390.66 241.609 391.566 243.476C391.987 244.895 392.706 246.209 393.676 247.328C395.65 249.179 398.631 249.955 401.04 247.477C401.422 247.075 401.739 246.616 401.979 246.116C402.388 245.286 402.837 243.625 403.341 242.618C403.876 239.896 404.352 237.174 404.77 234.452C404.431 233.929 404.25 233.319 404.25 232.696C404.25 232.073 404.431 231.463 404.77 230.94C405.9 229.048 406.022 226.571 404.035 226.339H404.048ZM369.27 84.5524C360.812 72.7322 351.125 61.8415 340.371 52.0626C339.947 52.1311 339.52 52.1765 339.092 52.1988C337.118 52.1791 335.148 52.3615 333.211 52.7432C332.477 53.0025 331.809 53.4214 331.256 53.9698C330.703 54.5182 330.278 55.1824 330.012 55.9146C329.722 56.8189 329.167 57.6154 328.42 58.2013C327.479 58.7521 326.389 58.9949 325.303 58.8954C324.486 58.8954 322.88 58.8954 323.234 60.2565C323.588 61.6176 325.697 63.2782 326.473 64.476C328.188 67.1982 324.336 65.034 323.356 64.476C322.309 63.8203 321.151 63.3592 319.94 63.1149C319.273 63.0196 317.748 62.5976 317.721 63.4279C317.943 64.3433 318.355 65.2014 318.932 65.946C319.531 66.9396 319.626 67.3071 318.932 67.5385C318.238 67.7699 317.312 67.9196 316.523 68.1646C315.237 68.611 313.855 68.7049 312.521 68.4368C310.724 67.9468 309.404 66.0957 308.437 64.2718C308.085 63.2962 307.462 62.4415 306.641 61.8082C305.938 61.2325 305.09 60.8606 304.19 60.7329C302.462 60.624 302.271 62.2846 302.652 64.0132C303.033 65.7418 301.495 66.259 302.04 67.8788C302.78 69.4739 303.885 70.8727 305.266 71.9621C306.314 72.9421 308.124 74.3168 307.702 75.5146C307.103 77.2568 304.721 75.991 303.074 75.011C300.855 73.6499 298.582 72.6699 296.35 71.3224C294.505 70.2165 292.425 69.5635 290.279 69.4168C289.176 69.3351 288.523 69.9204 289.843 71.2407C290.456 71.8532 292.566 72.9421 292.375 74.0446C292.185 75.1471 289.653 74.9293 288.931 75.0382C286.713 75.4678 284.449 75.6142 282.193 75.4738C280.437 75.2832 278.545 74.6026 276.966 74.9701C276.217 75.1489 275.495 75.4234 274.816 75.7868C273.936 76.387 273.262 77.242 272.883 78.2368C272.772 78.504 272.562 78.7184 272.297 78.8357C272.026 78.9693 271.737 79.0654 271.44 79.1215C270.839 79.0966 270.264 78.8672 269.811 78.4711C269.358 78.0751 269.054 77.5362 268.949 76.9438C268.867 75.9229 268.854 74.8068 267.928 74.2215C267.395 73.9492 266.81 73.7916 266.213 73.7587C265.615 73.7259 265.017 73.8187 264.457 74.031C264.272 74.146 264.117 74.3036 264.006 74.4907C263.895 74.6778 263.83 74.8889 263.817 75.1063C263.722 75.9229 264.28 78.1007 264.157 79.6251C264.142 80.4716 263.812 81.282 263.232 81.8982C262.692 82.2822 262.107 82.5977 261.489 82.8374C260.69 83.3251 260.091 84.0832 259.802 84.9743C259.039 86.7029 258.44 88.2682 256.712 88.7038C254.983 89.1393 253.676 88.4996 251.934 86.7029C250.648 85.4564 249.443 84.1288 248.327 82.7285C246.72 80.5235 250.015 81.5171 250.886 81.6804C252.247 81.9118 253.458 81.8029 254.752 81.939C255.81 82.0617 256.879 82.0617 257.937 81.939C258.767 81.8165 260.237 81.5715 260.074 80.1968C259.706 77.1615 253.581 74.0718 251.811 73.0918C250.954 72.6154 250.096 72.1799 249.239 71.7307C247.809 71.0365 245.386 69.9204 243.794 69.2535C242.922 68.8135 241.976 68.5411 241.003 68.4504C239.56 68.4504 238.54 70.3968 236.797 67.6065C235.776 65.9596 235.164 65.3743 233.612 65.0476C230.828 64.4727 227.935 64.7478 225.309 65.8371C224.591 66.1903 223.93 66.6491 223.349 67.1982C222.382 68.0829 221.388 69.7707 220.626 70.2335C220.136 70.5167 219.571 70.6449 219.006 70.601C215.522 70.4104 214.46 73.5546 214.324 77.774C214.324 78.8901 214.392 80.1832 214.324 81.2721C214.203 81.8833 213.997 82.4745 213.711 83.0279C213.344 83.9399 212.35 86.0496 211.683 87.8054C211.247 88.8535 210.785 89.9151 210.322 91.0449C209.069 94.1754 207.599 97.374 206.075 100.709C204.781 103.06 204.303 105.774 204.714 108.426C205.258 110.387 206.548 112.058 208.307 113.081C209.133 113.598 210.085 113.879 211.059 113.893C212.033 113.908 212.993 113.655 213.834 113.163C216.393 112.06 217.591 113.313 219.006 116.402C219.457 117.848 220.289 119.146 221.416 120.159C222.007 120.52 222.671 120.748 223.36 120.825C224.049 120.903 224.747 120.829 225.404 120.608C226.765 120.037 227.174 118.471 226.901 116.661C226.717 115.937 226.691 115.181 226.825 114.446C226.958 113.711 227.249 113.013 227.677 112.401C228.05 111.773 228.254 111.059 228.268 110.329C228.282 109.599 228.107 108.878 227.759 108.236C226.806 105.867 224.887 102.9 224.438 101.308C224.177 100.425 224.098 99.4991 224.206 98.5854C224.309 97.8154 224.491 97.0582 224.751 96.326C225.145 95.1826 226.683 93.0729 227.772 91.1265C228.478 89.8554 228.965 88.4752 229.215 87.0432C229.312 86.3792 229.505 85.7328 229.787 85.124C230.131 84.6928 230.597 84.3761 231.124 84.2157C231.652 84.0553 232.215 84.0588 232.741 84.2257C233.1 84.3179 233.435 84.4875 233.722 84.7226C234.009 84.9577 234.241 85.2526 234.402 85.5868C234.922 87.0429 234.854 88.6448 234.211 90.0513C233.639 91.5349 232.373 91.9568 231.693 93.3043C231.012 94.6518 231.257 96.9521 231.461 98.8576C231.666 100.763 231.734 103.023 232.823 104.479C234.184 106.289 236.607 105.677 238.267 105.459C238.989 105.35 239.805 105.241 240.622 105.187C241.811 105.107 243.003 105.279 244.121 105.69C244.679 106.003 245.332 107.514 244.787 107.882C244.435 108.062 244.052 108.173 243.658 108.208C242.065 108.522 240.391 108.426 238.798 108.671C237.791 108.821 236.157 108.835 236.076 110.441C236.076 111.652 237.233 112.591 237.927 113.313C238.338 113.613 238.674 114.003 238.91 114.454C239.146 114.905 239.276 115.404 239.288 115.912C239.277 116.042 239.239 116.167 239.177 116.281C239.115 116.395 239.031 116.496 238.929 116.576C238.827 116.656 238.709 116.715 238.584 116.748C238.459 116.782 238.328 116.789 238.199 116.77C237.316 116.55 236.517 116.077 235.899 115.409C235.463 115 234.864 114.184 234.347 114.497C233.53 114.987 234.225 117.981 234.347 118.934C234.679 120.547 234.532 122.222 233.925 123.752C232.373 126.556 228.889 126.679 226.139 126.747C224.439 126.682 222.749 126.463 221.089 126.093C219.972 126.024 218.88 125.732 217.876 125.236C215.549 123.752 216.515 119.519 215.835 117.069C215.072 114.197 212.758 116.389 212.432 118.131C211.901 120.853 214.283 123.943 213.562 126.556C213.058 128.367 210.934 128.557 209.587 129.183C207.736 130.054 206.864 132.15 206.769 134.451C206.563 135.542 206.02 136.542 205.217 137.309C204.346 138.48 203.325 139.46 202.413 140.521C202.109 140.933 201.724 141.278 201.282 141.536C200.839 141.793 200.349 141.957 199.841 142.018C199.174 142.018 198.18 141.61 197.703 142.114C197.227 142.617 197.608 143.652 196.628 144.101C195.648 144.55 194.192 144.196 193.075 144.428C192.327 144.577 191.251 145.19 192.041 146.102C192.991 146.812 194.048 147.368 195.172 147.749C197.009 148.756 197.758 150.77 198.112 152.975C198.602 155.997 198.017 158.42 195.185 158.937C192.354 159.454 189.618 158.937 186.882 160.448C184.513 161.741 184.908 166.464 185.099 169.105C185.114 170.19 185.471 171.242 186.12 172.113C186.623 172.848 186.868 173.855 187.481 174.427C187.917 174.738 188.413 174.958 188.937 175.073C189.461 175.188 190.003 175.195 190.53 175.093C191.07 175.001 191.624 175.032 192.15 175.186C192.676 175.339 193.16 175.61 193.565 175.978C193.769 176.154 193.993 176.305 194.232 176.427C194.641 176.604 195.117 175.502 195.907 175.27C196.398 175.195 196.899 175.195 197.39 175.27C197.868 175.345 198.355 175.345 198.833 175.27C199.296 175.134 199.473 174.644 199.8 174.481C200.418 174.097 200.938 173.576 201.321 172.957C201.704 172.338 201.938 171.639 202.005 170.915C202.168 170.18 202.263 169.431 202.454 168.71C202.645 167.988 203.189 167.199 203.502 166.369C203.64 165.766 203.822 165.175 204.047 164.599C204.646 163.524 205.585 163.633 206.524 163.238C207.102 163.001 207.597 162.598 207.946 162.079C208.295 161.561 208.482 160.95 208.484 160.325C208.607 159.209 208.484 157.943 209.478 157.426C210.472 156.909 211.329 157.576 212.2 157.549C213.725 157.549 214.923 156.337 216.08 155.548C218.53 153.942 220.64 154.622 222.423 157.208C223.181 158.4 224.052 159.517 225.023 160.543C225.785 161.278 226.711 161.673 227.473 162.435C228.235 163.197 229.569 164.068 230.495 164.98C231.42 165.892 231.489 168.016 231.271 169.445C231.189 170.03 230.794 170.969 231.271 171.446C231.747 171.922 232.319 171.364 232.632 170.969C233.639 169.703 233.326 168.247 233.204 166.573C233.136 165.811 232.959 164.885 233.571 164.613C233.843 164.504 234.17 164.613 234.497 164.735C234.823 164.858 234.823 163.197 233.707 162.462C233.096 162.016 232.378 161.738 231.625 161.659C231.094 161.659 229.596 159.849 229.134 159.441C227.955 158.407 226.854 157.288 225.84 156.092C224.951 155.178 224.35 154.023 224.111 152.771C223.975 150.879 225.853 150.893 226.942 151.655C227.8 152.268 227.963 153.357 228.521 154.268C229.746 156.297 231.938 156.569 233.639 157.549C234.837 158.243 234.892 159.277 235.477 160.611C236.025 161.578 236.481 162.594 236.838 163.647C237.029 164.436 236.988 164.558 237.519 165.117C238.031 165.618 238.587 166.074 239.179 166.478C239.756 166.807 240.295 167.2 240.786 167.648C241.262 168.233 241.071 168.179 241.031 168.832C240.922 170.193 241.031 171.555 242.269 172.262C243.508 172.97 243.63 170.425 244.08 169.39C244.28 169.061 244.404 168.69 244.441 168.306C244.479 167.922 244.43 167.534 244.297 167.172C243.998 166.45 243.209 166.042 242.868 165.348C241.983 163.606 243.658 163.66 244.434 163.02C245.414 162.204 246.421 160.843 247.918 161.809C248.762 162.353 248.64 162.98 248.64 163.905C248.745 164.92 249.035 165.908 249.497 166.818C249.684 167.808 250 168.768 250.437 169.676C251.1 170.612 251.98 171.373 253.002 171.894C254.024 172.416 255.156 172.682 256.303 172.671C257.215 172.671 258.005 171.827 258.93 171.99C259.325 172.058 259.611 172.385 259.965 172.521C260.626 172.704 261.32 172.732 261.993 172.603C262.878 172.494 263.722 172.126 264.634 172.058C266.104 171.963 266.567 172.344 266.322 174.073C265.863 176.678 265.576 179.311 265.464 181.953C265.464 182.947 265.873 185.383 265.314 186.132C264.756 186.881 263.096 185.588 262.347 185.275C260.171 184.479 257.827 184.258 255.541 184.635C254.365 184.819 253.178 184.928 251.988 184.962C250.849 185.119 249.688 184.968 248.626 184.526C246.816 183.287 242.106 179.694 240.459 182.743C239.37 184.798 240.268 188.432 237.219 188.065C235.775 187.71 234.396 187.126 233.136 186.336C231.147 185.443 229.072 184.759 226.942 184.295C225.397 184.035 223.97 183.303 222.859 182.198C221.32 180.483 223.566 179.762 223.702 177.952C223.772 177.147 223.645 176.338 223.332 175.593C223.019 174.849 222.529 174.191 221.906 173.678C220.738 173.145 219.427 173.012 218.176 173.297C217.523 173.297 216.937 173.229 216.284 173.297C215.576 173.431 214.889 173.66 214.242 173.977C212.773 174.397 211.262 174.653 209.736 174.74C208.92 174.821 208.13 174.889 207.341 174.985C206.878 174.985 205.639 174.985 205.285 175.352C203.407 177.298 201.025 179.435 198.248 179.435C196.492 179.435 194.995 178.986 193.307 179.83C191.69 180.761 190.244 181.963 189.033 183.383C187.957 184.526 186.964 185.737 185.97 186.949C184.813 188.378 185.003 190.161 185.167 192.067C185.286 193.174 185.022 194.289 184.418 195.224C183.548 196.849 182.285 198.23 180.743 199.24C178.978 200.195 177.523 201.635 176.55 203.391C175.702 205.134 175.032 206.958 174.549 208.835C173.559 212.768 174.043 216.927 175.911 220.527C176.455 221.467 175.407 224.611 175.257 225.604C174.922 227.523 175.163 229.499 175.951 231.28C176.505 232.475 177.313 233.534 178.32 234.383C180.294 236.085 181.573 238.589 183.288 240.699C184.882 242.72 186.679 244.572 188.651 246.225C191.026 248.277 194.024 249.466 197.159 249.601C198.648 249.67 200.128 249.341 201.447 248.648C202.144 248.258 202.912 248.012 203.706 247.927C205.356 247.703 206.952 247.182 208.416 246.388C209.178 245.885 209.927 245.313 210.621 244.823C211.295 244.231 212.108 243.82 212.984 243.627C213.86 243.434 214.77 243.466 215.631 243.721C216.385 244.008 217.091 244.407 217.727 244.905C218.982 245.916 220.353 246.775 221.81 247.464C222.51 247.729 223.254 247.854 224.002 247.831C225.288 247.859 226.522 248.341 227.487 249.192C230.209 251.479 229.025 254.909 227.8 257.903C226.67 260.626 227.949 263.348 229.311 265.471C229.964 266.478 230.454 267.54 231.121 268.493C231.952 269.493 232.593 270.637 233.013 271.868C233.326 273.093 233.707 274.182 234.048 275.312C234.643 277.646 234.922 280.05 234.878 282.458C234.878 283.642 234.728 284.826 234.578 286.01C234.497 286.582 234.429 287.167 234.333 287.753C234.185 288.827 233.948 289.888 233.626 290.924C233.438 291.364 233.288 291.82 233.176 292.285C232.94 293.468 232.826 294.672 232.836 295.878C232.836 297.893 232.673 301.405 232.673 303.405C232.655 304.602 232.764 305.798 232.999 306.972C234.288 312.021 236.014 316.949 238.158 321.699C239.098 323.958 239.914 326.34 240.813 328.586C241.276 329.729 241.602 330.982 242.174 332.098C242.649 333.338 242.973 334.632 243.14 335.95C243.807 338.672 244.801 340.21 246.979 340.7C248.86 340.881 250.753 340.507 252.424 339.625C256.301 338.023 259.67 335.398 262.17 332.03C263.787 329.671 265.052 327.089 265.927 324.367C266.438 323.12 266.803 321.818 267.016 320.487C267.22 319.126 267.288 317.615 267.588 316.2C268.037 314.049 268.391 311.681 268.949 309.571C269.847 306.25 270.174 303.405 272.325 300.778C273.336 299.615 274.408 298.507 275.537 297.457C277.307 295.702 280.546 292.816 280.437 289.454C279.893 273.543 274.557 261.497 288.047 248.907C291.586 244.456 296.091 237.119 297.099 230.518C297.575 227.387 295.397 225.55 293.491 226.435C292.358 226.994 291.195 227.489 290.007 227.918C288.904 228.299 287.774 228.503 286.672 228.817C285.544 228.958 284.4 228.754 283.391 228.231C282.869 228.082 282.392 227.805 282.005 227.425C281.617 227.044 281.331 226.573 281.172 226.053C280.682 224.883 280.764 223.658 280.383 222.474C279.934 221.458 279.195 220.596 278.26 219.997C276.41 218.366 274.846 216.439 273.631 214.293C272.511 212.002 271.718 209.564 271.277 207.052C270.81 205.417 270.008 203.896 268.922 202.588C267.925 201.179 267.047 199.69 266.295 198.137C265.519 196.599 262.701 191.332 264.811 189.97C266.471 188.95 268.105 193.85 268.786 195.129C270.147 197.661 271.59 199.947 273.06 202.207C273.808 203.364 274.571 204.521 275.347 205.691C276.599 207.624 278.069 209.992 278.709 210.972C279.063 211.558 279.43 212.157 279.77 212.755C280.584 213.827 281.239 215.01 281.717 216.267C282.779 221.235 284.439 223.848 287.23 223.481C289.762 223.154 293.287 220.255 295.52 218.812C299.507 216.276 303.252 213.378 306.709 210.156C307.548 209.06 308.261 207.873 308.832 206.617C309.698 205.292 310.316 203.821 310.656 202.275C310.81 201.682 310.759 201.054 310.512 200.494C310.265 199.933 309.836 199.472 309.295 199.185C308.56 198.777 307.743 199.185 307.117 198.641C306.491 198.096 306.137 196.722 305.524 195.918C304.354 194.448 303.238 195.619 302.094 196.395C300.951 197.171 298.541 198.886 297.289 197.974C296.418 197.334 296.813 196.477 296.35 195.633C295.887 194.789 295.383 195.238 294.757 195.088C293.165 194.693 292.375 192.366 291.531 191.005C290.892 189.902 289.476 187.439 289.803 186.023C290.347 183.641 292.974 186.595 293.736 187.384C294.75 188.197 295.718 189.065 296.636 189.984C297.31 190.786 298.204 191.373 299.208 191.672C300.168 192.114 301.16 192.483 302.176 192.774C302.952 192.897 303.714 192.543 304.504 192.774C304.979 192.915 305.408 193.183 305.742 193.55C307.17 194.933 309.076 195.713 311.065 195.728C313.242 195.592 315.448 194.925 317.476 194.625C319.081 194.254 320.754 194.301 322.335 194.762C324.248 195.569 325.825 197.011 326.8 198.845C327.535 200.356 328.229 202.506 329.836 203.173C331.442 203.84 332.204 200.152 333.171 200.968C333.701 201.404 333.729 202.86 333.824 203.513C333.958 204.344 334.14 205.167 334.368 205.977C334.845 207.855 335.321 209.747 335.811 211.653C336.745 215.586 337.932 219.455 339.364 223.236C340.085 225.005 341.147 227.687 342.821 228.19C343.556 228.408 344.645 227.333 345.095 226.598C345.503 225.803 345.783 224.949 345.925 224.066C346.188 222.95 346.379 221.818 346.497 220.677C346.727 218.555 347.136 216.455 347.722 214.402C348.034 213.496 348.411 212.613 348.852 211.762C349.61 210.191 350.552 208.716 351.656 207.365C352.602 206.484 353.455 205.508 354.201 204.453C354.487 203.976 354.746 203.473 355.018 202.983C355.536 202.046 356.104 201.137 356.719 200.26C357.002 199.838 357.379 199.489 357.822 199.24C358.351 199.089 358.893 198.994 359.442 198.954C360.544 198.682 360.803 197.77 361.715 197.198C362.627 196.626 363.539 197.334 364.151 197.96C365.894 199.743 366.071 202.751 366.479 205.256C366.67 206.508 366.86 208.114 368.072 208.182C369.283 208.25 369.95 207.447 370.944 208.386C371.938 209.325 372.183 211.408 372.822 212.81C373.462 214.212 374.606 214.675 374.864 216.24C375.028 217.233 374.633 217.424 374.279 218.227C374.139 218.574 374.081 218.948 374.11 219.321C374.138 219.694 374.252 220.056 374.442 220.378C374.769 221.246 374.849 222.188 374.674 223.1C374.363 223.932 374.197 224.811 374.184 225.7C374.203 225.943 374.299 226.175 374.458 226.361C374.617 226.547 374.83 226.677 375.068 226.734C375.496 226.95 375.875 227.253 376.179 227.623C376.484 227.993 376.708 228.423 376.838 228.885C377.015 229.497 377.151 230.137 377.26 230.586C377.386 231.279 377.592 231.955 377.872 232.6C377.981 232.805 378.104 232.968 378.213 233.145C378.543 233.827 378.697 234.58 378.662 235.336C378.689 235.596 378.648 235.858 378.543 236.096C378.438 236.335 378.273 236.542 378.063 236.697C377.709 236.888 377.233 236.697 376.702 236.371C376.171 236.044 375 235.241 374.388 234.914C374.026 234.702 373.621 234.572 373.204 234.533C371.094 234.533 373.653 239.365 374.211 240.141C374.769 240.917 375.218 241.257 375.667 241.897C376.092 242.587 376.374 243.355 376.498 244.156C377.055 245.833 377.785 247.448 378.676 248.975C379.363 250.442 380.237 251.814 381.275 253.058C381.755 253.623 382.304 254.126 382.909 254.555C383.086 254.678 384.733 255.426 384.733 255.508C384.733 261.565 389.592 257.55 391.798 259.292C393.526 260.884 395.554 260.177 397.555 259.877C398.092 259.804 398.621 259.681 399.134 259.51C399.284 258.992 399.407 258.462 399.556 257.944C398.821 257.795 398.073 257.618 397.76 256.992C397.566 256.644 397.292 256.347 396.961 256.127C396.629 255.907 396.25 255.769 395.854 255.726C394.137 255.648 392.416 255.707 390.709 255.903C389.786 255.989 388.856 255.868 387.986 255.549C387.496 255.36 387.07 255.034 386.761 254.61C386.026 253.562 386.312 252.092 386.421 250.622C386.483 249.884 386.395 249.142 386.161 248.44C385.927 247.738 385.552 247.091 385.06 246.538C384.692 246.035 384.325 245.477 383.943 245.014C383.317 244.238 382.46 243.911 381.861 243.095C381.176 242.287 380.791 241.268 380.772 240.209C380.82 239.572 381.079 238.969 381.507 238.494C382.189 237.322 382.384 235.929 382.051 234.615C381.793 233.866 381.466 233.145 381.262 232.614C380.879 231.625 380.424 230.665 379.901 229.742C379.656 229.279 379.274 228.993 379.029 228.531C377.186 225.201 376.247 221.447 376.307 217.642C376.402 216.512 376.756 215.382 377.668 215.41C377.969 215.425 378.258 215.529 378.499 215.709C379.172 216.271 379.768 216.921 380.268 217.642C380.731 218.282 381.194 218.894 381.343 218.88C383.276 218.663 383.589 225.686 386.08 222.746C386.856 221.82 387.945 221.276 388.803 220.35C389.149 219.975 389.468 219.574 389.756 219.153C390.522 217.965 391.045 216.637 391.294 215.246C391.437 214.345 391.437 213.426 391.294 212.524C390.931 210.69 390.21 208.946 389.17 207.393C388.664 206.503 388.062 205.673 387.374 204.915C387.008 204.659 386.706 204.322 386.491 203.93C386.276 203.538 386.154 203.102 386.135 202.656C385.972 200.002 388.136 196.912 390.45 197.647C391.144 197.925 391.907 197.985 392.636 197.82C393.365 197.655 394.027 197.271 394.534 196.722C395.781 195.179 397.276 193.854 398.957 192.802C401.231 191.699 404.266 190.569 406.008 188.528L406.485 187.97C405.863 179.522 404.718 171.122 403.055 162.816C402.878 161.932 402.565 160.462 402.292 159.209C396.453 132.345 385.219 106.946 369.27 84.5524ZM270.718 159.74C268.862 159.597 267.031 159.212 265.274 158.597C262.715 157.875 258.808 159.032 256.358 159.699C255.171 160.079 253.912 160.173 252.682 159.972C250.137 159.4 251.321 153.615 252.22 150.838C252.586 149.362 253.243 147.974 254.153 146.755C255.949 144.809 259.992 147.014 259.393 147.735C258.794 148.457 259.747 149.096 259.938 149.845C260.128 150.593 260.877 151.206 261.544 150.512C262.211 149.818 261.204 146.633 263.382 145.312C263.64 145.163 263.926 145.013 264.225 144.877C266.499 143.802 267.765 145.04 267.574 148.062C267.506 148.783 267.566 149.511 267.751 150.212C268.663 153.207 271.739 153.411 271.835 153.751C271.93 154.092 273.046 154.445 274.026 155.493C275.006 156.542 273.291 159.74 270.718 159.74ZM295.669 160.108C294.308 160.611 298.637 164.504 298.188 167.417C297.834 169.731 295.207 170.357 292.579 169.254C289.952 168.152 289.557 163.96 289.435 161.251C289.312 158.542 284.902 156.228 284.262 153.207C283.119 147.83 287.434 143.448 290.796 143.529C293.369 143.611 291.844 147.49 290.796 150.063C290.401 150.961 290.878 151.737 291.79 152.785C293.696 155.072 296.023 156.038 297.235 157.086C298.446 158.134 297.017 159.604 295.669 160.108ZM220.613 164.695C221.538 161.972 219.074 154.296 218.135 157.154C217.976 157.685 217.853 158.226 217.768 158.774C217.291 161.755 219.687 167.308 220.613 164.695ZM229.651 171.718C229.74 171.442 229.772 171.151 229.745 170.862C229.718 170.573 229.633 170.293 229.494 170.038C229.355 169.783 229.166 169.56 228.938 169.38C228.71 169.201 228.448 169.07 228.167 168.996C227.446 168.71 227.378 169.527 227.378 170.452C227.391 171.582 229.038 173.487 229.651 171.65V171.718ZM295.383 282.009C295.24 281.758 295.113 281.499 295.002 281.233C294.875 280.922 294.701 280.633 294.485 280.375C294.131 279.994 292.797 280.58 292.539 281.982C292.375 282.866 292.348 283.873 292.28 284.54C291.953 288.161 289.081 289.985 287.434 292.625C285.134 296.368 285.978 300.207 285.978 304.072C285.978 306.59 284.861 310.048 285.814 312.239C288.959 319.398 292.892 307.775 293.981 304.154C295.423 299.424 296.337 294.549 296.704 289.617C296.704 288.665 296.813 287.657 296.799 286.677C296.812 285.355 296.538 284.045 295.996 282.839C295.767 282.581 295.562 282.303 295.383 282.009ZM66.9326 221.453C65.012 221.358 63.1434 220.797 61.4878 219.82C59.8271 218.935 57.8669 217.873 56.2063 218.69C54.954 219.302 56.6146 220.65 57.4858 221.222C58.1377 221.64 58.8151 222.017 59.514 222.351C60.6438 222.923 62.2364 224.039 63.0668 224.461C63.5625 224.726 64.13 224.826 64.6866 224.747C66.8917 224.447 69.0697 222.964 71.4109 224.515C71.9554 224.883 72.881 226.013 73.5616 225.877C73.606 225.89 73.6534 225.89 73.6978 225.877C74.392 225.563 74.1878 224.284 73.8339 223.603C72.4046 220.99 68.8791 221.507 66.9326 221.453ZM91.897 46.7407C92.6454 45.6363 93.5643 44.6578 94.6195 43.8415C96.1304 42.6438 98.213 41.2554 99.3428 40.3163L101.385 38.6149C102.229 37.9182 102.991 37.1283 103.658 36.2601C104.093 35.6885 104.488 34.9943 104.897 34.4226C105.261 33.91 105.724 33.4751 106.258 33.1432C107.882 32.1021 109.165 30.6064 109.947 28.8421C110.886 26.5282 109.157 27.1815 108.762 26.7051C108.082 25.9157 106.993 26.0654 105.795 26.3104C103.168 26.8413 100.023 28.2976 96.9199 29.264C92.8091 31.7866 88.7663 34.4635 84.7916 37.2946C81.3749 39.7446 78.0808 42.2899 74.8684 44.9032C75.5476 45.273 76.2917 45.5086 77.0599 45.5974C78.8839 46.0329 81.8514 43.9504 84.2199 43.0793C85.2816 42.6846 88.5077 41.0921 88.7391 42.0857C89.1066 43.6238 85.513 45.6246 84.7371 46.0329C84.0738 46.3452 83.495 46.812 83.0492 47.394C82.1781 48.619 80.7352 50.2796 79.7143 49.6671C79.1686 49.1916 78.5214 48.8471 77.8222 48.6599C77.543 48.6332 77.2624 48.6934 77.0188 48.8323C76.7751 48.9712 76.5803 49.1819 76.461 49.4357C75.8076 50.5654 73.7386 52.4438 73.4255 51.1779C73.1941 50.4293 73.2077 49.354 72.5952 49.0546C71.9826 48.7551 71.4109 48.8776 70.9617 48.5646C70.8828 48.5037 70.8098 48.4353 70.7439 48.3604C67.5406 51.0826 64.4416 53.8956 61.4469 56.7993C61.6728 57.1382 61.9534 57.4372 62.2773 57.684C63.3652 58.434 64.6749 58.7938 65.9933 58.7049C66.7391 58.6191 67.4736 58.4548 68.1849 58.2149C69.056 57.9426 71.0706 56.5135 71.6423 56.7313C72.2141 56.949 71.2476 59.0043 70.4445 60.134C69.1161 61.9138 67.4739 63.436 65.5986 64.6257C62.7128 66.3679 61.0386 66.6265 59.1193 66.2999C58.4659 66.191 55.8115 65.5649 54.777 66.6129C53.7425 67.661 54.0556 68.1374 54.5728 68.4776C55.486 68.8343 56.4671 68.983 57.445 68.9132C57.8741 68.8884 58.3008 68.9927 58.6701 69.2126C59.691 69.9749 57.6628 72.8468 58.4523 73.7724C58.9287 74.344 60.0857 74.0854 60.9297 74.0446C62.2316 74.0817 63.5335 73.9675 64.8091 73.7043C65.6529 73.4454 66.4655 73.0939 67.232 72.6563C69.1663 71.7957 71.1641 71.0858 73.2077 70.5329C74.009 70.3906 74.7298 69.9579 75.2321 69.3176C75.7343 68.6772 75.9829 67.8742 75.9301 67.0621C75.9301 65.5921 74.5689 65.701 73.0716 66.1638C70.989 66.8307 68.6068 67.9604 67.9943 68.1101C67.3818 68.2599 67.0959 68.2326 67.3001 67.7971C67.7085 66.9532 70.2131 66.0957 70.6759 65.8779C71.6696 65.4151 72.6633 64.9251 73.6433 64.4488C75.2768 63.6729 77.1416 62.9924 77.9175 62.6657C78.4232 62.4523 78.9104 62.1973 79.374 61.9035C80.1355 61.4576 80.8241 60.8976 81.4158 60.2429C82.4911 58.8001 81.62 58.1196 82.6136 56.8265C83.4737 55.9117 84.4814 55.1479 85.5947 54.5671C86.688 53.8969 87.7423 53.1653 88.7527 52.3757C90.6992 50.6471 90.5495 48.7415 91.897 46.7407ZM54.355 108.889C53.3205 111.611 53.1572 114.048 54.355 114.551C55.5529 115.055 58.6292 113.122 60.7935 112.428C63.8971 111.434 61.2972 110.087 59.1329 108.059C57.7308 106.67 55.3896 106.167 54.355 108.889ZM132.134 91.8207C133.495 90.0921 134.135 87.4379 135.51 85.8454C137.361 83.6949 140.383 83.6268 142.493 82.5924C143.949 81.8846 146.835 80.2104 147.012 77.9918C147.107 76.794 146.631 76.1951 147.148 75.0382C147.521 74.3671 148.066 73.8078 148.727 73.4185C148.959 73.2551 149.422 73.119 149.83 72.9149C150.442 72.6018 150.606 71.091 150.116 70.3696C149.796 69.9322 149.501 69.4778 149.231 69.0085C147.87 66.4768 147.638 64.3943 149.571 62.8426C151.205 61.4815 154.05 58.8954 153.26 55.7104C152.784 53.8049 151.654 53.1379 151.613 51.001C151.585 50.197 151.681 49.3935 151.899 48.619C152.434 47.3551 153.076 46.1393 153.818 44.9849C154.001 44.6547 154.108 44.288 154.132 43.9113C154.155 43.5347 154.095 43.1575 153.954 42.8071C153.383 41.3779 151.994 41.3099 151.232 40.4388C147.393 36.0151 159.113 26.5826 157.847 24.4729C157.583 24.1308 157.199 23.9021 156.772 23.8332C155.904 23.6229 155.011 23.5313 154.118 23.561C153.613 23.578 153.115 23.6839 152.648 23.874C151.949 24.2561 151.362 24.8145 150.946 25.4938C150.102 26.6507 149.013 27.9301 148.659 27.5763C148.523 27.4265 148.428 27.0863 148.115 26.6371C147.216 25.3576 147.176 26.3785 146.182 26.9774C145.692 27.2768 143.963 27.5082 143.8 25.9838C143.636 24.4593 145.161 22.7579 145.61 21.9004C145.912 21.2636 146.383 20.7221 146.971 20.3351C147.802 19.8179 147.625 17.7354 146.25 16.6057C144.966 15.6251 143.443 15.0049 141.84 14.809C138.759 14.27 135.586 14.8084 132.856 16.3335C131.266 17.1289 129.792 18.1362 128.473 19.3279C126.54 21.0565 124.757 24.8813 122.565 26.8413C122.102 27.3043 121.512 27.619 120.869 27.7451C120.227 27.8711 119.561 27.8029 118.958 27.549C116.875 27.0454 114.18 26.4329 110.641 30.5026C108.463 33.0071 110.001 33.1432 109.13 35.4026C108.259 37.6621 105.632 37.3354 104.679 37.7982C104.188 38.0381 103.731 38.34 103.318 38.6965C102.357 39.8454 101.811 41.2834 101.766 42.7799C101.766 43.2563 101.684 43.6918 100.405 44.944C98.7206 46.4998 96.8981 47.8984 94.9598 49.1226C93.3606 50.1452 92.1116 51.6316 91.3798 53.3829C90.5767 55.1796 91.2028 55.1115 91.7473 55.6424C92.0185 55.9248 92.2232 56.2643 92.3462 56.636C92.5913 57.3029 92.7274 59.1404 93.5713 59.3582C94.4153 59.576 97.0152 58.3374 99.0162 57.5071C102.297 56.146 105.427 55.0979 107.102 57.7929C107.669 58.7321 107.987 59.8 108.027 60.8963C107.884 63.7052 107.371 66.4831 106.503 69.1582C106.048 70.314 105.948 71.5796 106.217 72.7924C107.074 74.7251 109.443 74.6026 110.301 76.794C110.995 78.5226 110.45 81.0135 109.443 83.2729C108.327 85.7774 106.884 86.7438 105.564 88.8807C104.243 91.0176 104.801 93.2771 104.583 95.4276C104.363 98.0179 104.631 100.627 105.373 103.118C106.135 105.796 107.076 108.42 108.191 110.972C108.569 111.966 109.117 112.887 109.811 113.694C110.927 114.878 113.894 115.055 115.963 114.429C117.365 114.052 118.61 113.236 119.516 112.101C121.667 109.379 121.013 105.214 121.789 101.866C122.017 100.606 122.521 99.4117 123.265 98.3693C124.008 97.3269 124.973 96.4618 126.091 95.836C127.955 94.6926 130.569 93.9168 132.134 91.7663V91.8207Z" fill="#FAFAFA"/>
<path opacity="0.2" d="M267.684 26.1331C140.452 -19.3552 110.75 67.4428 175.938 127.386C241.126 187.329 357.673 213.014 375.818 177.298C393.962 141.583 362.246 59.8887 267.684 26.1331Z" fill="white"/>
<g opacity="0.05">
<path d="M109.456 314.418C2.27437 240.02 47.5208 47.5589 151.095 6.16748C147.297 7.1747 143.486 8.27721 139.702 9.51582C107.792 20.0209 78.9748 38.2495 55.8122 62.5801C32.6496 86.9106 15.8603 116.589 6.93779 148.974C-1.98468 181.359 -2.76364 215.448 4.67022 248.207C12.1041 280.966 27.5203 311.379 49.5473 336.742C71.5743 362.105 99.5293 381.631 130.925 393.583C162.321 405.534 196.185 409.541 229.503 405.246C262.821 400.951 294.562 388.489 321.9 368.966C349.238 349.444 371.327 323.468 386.202 293.348C358.978 334.835 221.877 392.546 109.456 314.418Z" fill="black"/>
</g>
<path d="M347.531 346.87H347.706C348.003 346.85 348.294 346.771 348.561 346.638C348.828 346.505 349.065 346.32 349.26 346.094C349.455 345.868 349.603 345.606 349.696 345.323C349.789 345.039 349.824 344.74 349.8 344.443L347.642 316.201C346.389 299.779 337.249 280.898 326.824 273.219C321.842 269.553 316.748 268.617 312.448 270.601C307.434 272.917 304.229 278.946 303.658 287.133L301.865 312.52C301.841 312.817 301.876 313.116 301.969 313.399C302.062 313.683 302.21 313.945 302.405 314.171C302.599 314.397 302.837 314.582 303.104 314.715C303.371 314.848 303.662 314.927 303.959 314.947C304.257 314.975 304.558 314.943 304.843 314.852C305.129 314.761 305.393 314.613 305.62 314.418C305.846 314.222 306.031 313.983 306.163 313.714C306.295 313.445 306.371 313.152 306.387 312.853L308.196 287.467C308.656 280.977 310.893 276.36 314.352 274.773C317.082 273.52 320.541 274.282 324.127 276.931C333.441 283.801 341.962 301.588 343.168 316.597L345.326 344.839C345.383 345.388 345.639 345.897 346.045 346.271C346.451 346.645 346.979 346.858 347.531 346.87Z" fill="#37474F"/>
<path d="M261.37 380.553L266.48 288.243C266.596 287.209 266.941 286.214 267.49 285.33C268.038 284.446 268.778 283.696 269.653 283.134L272.144 281.706C272.457 281.477 272.828 281.339 273.215 281.309C273.601 281.278 273.989 281.355 274.334 281.531L375.997 340.237L363.763 441.147L262.211 382.441C261.908 382.237 261.669 381.952 261.52 381.618C261.372 381.284 261.32 380.915 261.37 380.553Z" fill="#37474F"/>
<path d="M378.282 433.705L365.715 440.956C364.128 441.892 362.843 441.13 362.954 439.258L368.047 346.947C368.168 345.915 368.514 344.921 369.063 344.038C369.612 343.155 370.348 342.404 371.221 341.838L373.712 340.395C374.007 340.133 374.374 339.969 374.765 339.924C375.156 339.879 375.552 339.955 375.898 340.142C376.244 340.329 376.525 340.618 376.701 340.969C376.878 341.321 376.942 341.719 376.886 342.108L381.138 428.596C381.125 429.618 380.857 430.62 380.358 431.512C379.859 432.405 379.146 433.158 378.282 433.705Z" fill="#263238"/>
<path d="M335.073 416.65C335.363 416.647 335.64 416.533 335.849 416.333C336.058 416.133 336.184 415.86 336.2 415.571L338.405 378.253C338.392 377.971 338.274 377.704 338.075 377.504C337.876 377.303 337.61 377.183 337.328 377.168C337.046 377.152 336.768 377.241 336.548 377.418C336.328 377.595 336.181 377.848 336.136 378.127L333.931 415.46C333.918 415.762 334.023 416.057 334.225 416.283C334.426 416.508 334.708 416.646 335.01 416.666L335.073 416.65Z" fill="#00AF66"/>
<path d="M288.885 390.534C289.176 390.539 289.458 390.431 289.67 390.233C289.883 390.035 290.011 389.762 290.028 389.471L292.233 352.154C292.223 351.871 292.108 351.601 291.91 351.399C291.712 351.196 291.446 351.074 291.163 351.056C290.881 351.038 290.601 351.126 290.38 351.302C290.158 351.479 290.01 351.731 289.964 352.011L287.759 389.329C287.748 389.478 287.767 389.628 287.815 389.77C287.863 389.911 287.938 390.042 288.037 390.154C288.136 390.267 288.257 390.358 288.391 390.423C288.526 390.489 288.672 390.526 288.822 390.534H288.885Z" fill="#00AF66"/>
<path d="M356.51 396.42C357.402 396.937 358.413 397.217 359.444 397.232C360.475 397.248 361.493 396.998 362.4 396.508C363.308 396.018 364.074 395.303 364.626 394.432C365.179 393.561 365.498 392.563 365.555 391.533L368.046 346.98C368.168 345.95 368.516 344.96 369.065 344.08C369.613 343.2 370.349 342.451 371.219 341.887L373.695 340.459C373.984 340.25 374.322 340.115 374.676 340.068C375.031 340.021 375.391 340.063 375.726 340.19L274.317 281.627C273.975 281.441 273.587 281.357 273.199 281.385C272.81 281.413 272.438 281.552 272.127 281.785L269.62 283.213C268.75 283.782 268.016 284.534 267.468 285.417C266.919 286.299 266.571 287.291 266.447 288.322L263.971 332.463C263.8 335.537 264.484 338.599 265.949 341.308C267.415 344.017 269.602 346.266 272.27 347.805L356.51 396.42Z" fill="#455A64"/>
<path d="M319.842 371.494L307.783 364.544L307.275 371.208L319.351 378.19L319.842 371.494Z" fill="#00AF66"/>
<mask id="mask0_710_5261" style="mask-type:luminance" maskUnits="userSpaceOnUse" x="212" y="135" width="28" height="36">
<path d="M212.666 141.546C218.868 148.152 223.272 156.286 225.442 165.149C230.294 166.452 234.984 168.312 239.423 170.692C237.989 157.723 232.771 145.488 224.439 135.561C220.305 137.097 216.355 139.105 212.666 141.546Z" fill="white"/>
</mask>
<g mask="url(#mask0_710_5261)">
<path d="M235.229 125.632L200.086 141.104L216.909 180.615L252.052 165.144L235.229 125.632Z" fill="#00AF66"/>
</g>
<mask id="mask1_710_5261" style="mask-type:luminance" maskUnits="userSpaceOnUse" x="118" y="164" width="34" height="67">
<path d="M136.746 166.877C130.941 168.302 125.906 171.959 122.698 177.08C116.879 186.432 117.012 200.172 123.033 212.109C127.33 219.975 133.655 226.501 141.328 230.984C141.321 226.817 141.713 222.66 142.498 218.571C142.498 217.822 142.799 217.074 143 216.326C139.468 213.571 136.54 210.096 134.404 206.123C130.558 198.437 130.19 189.323 133.501 183.95C134.458 182.496 135.773 181.324 137.314 180.549C138.855 181.822 140.78 182.519 142.766 182.521C144.216 182.526 145.646 182.171 146.93 181.486C148.214 180.801 149.314 179.807 150.134 178.59C150.954 177.374 151.47 175.972 151.635 174.507C151.801 173.042 151.611 171.558 151.084 170.185C150.556 168.811 149.707 167.589 148.609 166.626C147.511 165.662 146.198 164.987 144.784 164.657C143.37 164.328 141.899 164.355 140.498 164.736C139.097 165.117 137.809 165.84 136.746 166.843" fill="white"/>
</mask>
<g mask="url(#mask1_710_5261)">
<path d="M150.989 159.581L107.863 165.721L117.523 235.877L160.649 229.737L150.989 159.581Z" fill="#00AF66"/>
</g>
<mask id="mask2_710_5261" style="mask-type:luminance" maskUnits="userSpaceOnUse" x="208" y="182" width="31" height="42">
<path d="M208.889 217.14L220.528 223.942C228.689 217.82 237.251 201.564 238.923 189.389L227.117 182.349C225.043 194.49 217.819 209.964 208.889 217.276" fill="white"/>
</mask>
<g mask="url(#mask2_710_5261)">
<path d="M222.205 167.05L188.436 205.509L225.584 239.236L259.354 200.777L222.205 167.05Z" fill="#00AF66"/>
</g>
<mask id="mask3_710_5261" style="mask-type:luminance" maskUnits="userSpaceOnUse" x="192" y="166" width="78" height="59">
<path d="M194.207 168.239C192.961 172.83 192.453 177.596 192.702 182.353C201.937 179.178 211.892 178.87 221.299 181.468C227.785 182.89 233.814 185.955 238.824 190.379C239.858 191.14 240.841 191.969 241.768 192.861C242.951 193.923 244.068 195.059 245.112 196.262C247.157 198.503 248.983 200.94 250.564 203.54C254.295 209.893 256.804 216.911 257.955 224.218C262.22 222.253 266.079 219.483 269.327 216.055C267.67 209.205 265.01 202.648 261.434 196.602C256.793 189.084 250.637 182.651 243.373 177.727C242.187 176.882 240.959 176.098 239.694 175.381C235.489 172.877 230.995 170.912 226.316 169.531C225.056 169.101 223.771 168.749 222.469 168.477C217.808 167.379 213.039 166.82 208.255 166.811C203.527 166.814 198.814 167.362 194.207 168.443" fill="white"/>
</mask>
<g mask="url(#mask3_710_5261)">
<path d="M205.859 136.923L171.043 214L256.023 253.689L290.839 176.613L205.859 136.923Z" fill="#00AF66"/>
</g>
<mask id="mask4_710_5261" style="mask-type:luminance" maskUnits="userSpaceOnUse" x="213" y="240" width="59" height="38">
<path d="M257.121 246.047C256.662 247.642 256.034 249.182 255.248 250.639C251.101 258.223 243.91 263.596 237.689 263.766C235.533 263.843 233.41 263.21 231.635 261.963C231.41 260.247 230.704 258.634 229.601 257.315C228.498 255.996 227.045 255.028 225.415 254.527C223.785 254.026 222.048 254.013 220.411 254.489C218.774 254.965 217.307 255.911 216.185 257.213C215.062 258.515 214.333 260.117 214.082 261.83C213.832 263.542 214.073 265.292 214.774 266.869C215.476 268.446 216.61 269.785 218.04 270.724C219.47 271.663 221.136 272.164 222.839 272.166H223.34C227.537 275.482 232.746 277.192 238.057 276.995C248.893 276.655 260.064 268.901 266.452 257.134C269.179 251.852 270.85 246.072 271.369 240.13C266.897 242.773 262.108 244.819 257.121 246.217" fill="white"/>
</mask>
<g mask="url(#mask4_710_5261)">
<path d="M230.507 213.525L197.441 266.302L254.789 303.451L287.854 250.674L230.507 213.525Z" fill="#00AF66"/>
</g>
<mask id="mask5_710_5261" style="mask-type:luminance" maskUnits="userSpaceOnUse" x="176" y="115" width="114" height="130">
<path d="M214.674 121.576C213.336 122.188 212.099 122.8 210.861 123.446C206.537 125.625 202.455 128.27 198.687 131.336C197.75 132.153 196.814 132.969 195.944 133.785C195.847 133.867 195.757 133.958 195.677 134.057C185.529 143.859 178.91 156.841 176.88 170.923C176.646 172.419 176.479 173.915 176.378 175.446C175.978 180.568 176.214 185.721 177.081 190.784C177.248 192.178 177.549 193.573 177.816 194.967C180.204 205.251 185.079 214.766 191.998 222.65C192.432 223.126 192.834 223.603 193.268 224.045C193.733 224.58 194.224 225.091 194.74 225.575C198.156 229.04 201.949 232.098 206.045 234.689C207.255 235.503 208.505 236.252 209.791 236.934C219.121 242.022 229.539 244.696 240.126 244.722C244.88 244.714 249.617 244.143 254.241 243.022C255.545 242.682 256.883 242.341 258.187 241.899C262.904 240.345 267.401 238.173 271.566 235.438C272.803 234.641 273.997 233.778 275.144 232.853C277.636 230.962 279.964 228.857 282.101 226.561C285.659 222.445 288.118 217.469 289.243 212.11C290.367 206.751 290.119 201.187 288.523 195.953C286.793 189.486 282.962 183.805 277.653 179.833C277.035 178.321 276.026 177.007 274.732 176.033C273.438 175.058 271.908 174.459 270.306 174.299C268.703 174.139 267.088 174.424 265.632 175.124C264.176 175.824 262.935 176.913 262.04 178.274C261.145 179.636 260.63 181.218 260.551 182.854C260.471 184.489 260.829 186.116 261.587 187.561C262.345 189.005 263.475 190.213 264.855 191.057C266.235 191.9 267.815 192.346 269.425 192.348C270.289 192.323 271.144 192.174 271.967 191.906C273.96 193.999 275.419 196.556 276.215 199.354C277.131 202.28 277.348 205.386 276.848 208.414C276.347 211.442 275.144 214.306 273.338 216.767C273.167 217.05 272.965 217.312 272.736 217.549C271.967 218.365 271.164 219.181 270.328 219.93C266.864 223.199 262.87 225.833 258.522 227.718C257.385 228.228 256.214 228.704 255.177 229.112C250.357 230.748 245.308 231.575 240.227 231.561C233.942 231.582 227.707 230.429 221.831 228.16C220.56 227.65 219.29 227.105 218.019 226.493C213.953 224.516 210.163 222 206.747 219.011C205.777 218.195 204.807 217.311 203.904 216.393L202.667 215.1C195.603 207.465 191.065 197.773 189.69 187.383C189.484 186.112 189.362 184.828 189.322 183.54C189.001 178.772 189.373 173.982 190.426 169.324C190.693 167.93 191.061 166.536 191.462 165.141C193.995 156.821 198.604 149.311 204.841 143.341C205.577 142.627 206.346 141.947 207.182 141.267C208.018 140.587 209.088 139.771 210.125 139.022C213.825 136.44 217.796 134.284 221.965 132.595C223.203 132.084 224.474 131.608 225.711 131.2C233.36 128.242 241.716 127.731 249.659 129.738C257.585 132.425 264.174 138.614 265.579 144.94C266.041 146.995 265.866 149.146 265.077 151.095C263.707 150.944 262.322 151.181 261.076 151.782C259.83 152.382 258.772 153.322 258.02 154.496C256.987 155.852 256.346 157.473 256.17 159.179C255.993 160.884 256.288 162.606 257.022 164.15C257.755 165.694 258.897 167 260.32 167.92C261.744 168.84 263.391 169.338 265.077 169.358C267.18 169.356 269.213 168.596 270.817 167.214C272.421 165.832 273.492 163.917 273.84 161.808C275.908 159.061 277.363 155.888 278.102 152.511C278.841 149.134 278.848 145.633 278.121 142.253C275.613 131.336 265.98 121.508 253.405 117.393C249.335 116.1 245.092 115.457 240.829 115.488C231.791 115.666 222.887 117.738 214.674 121.576Z" fill="white"/>
</mask>
<g mask="url(#mask5_710_5261)">
<path d="M193.505 73.3102L130.436 225.128L274.164 286.863L337.233 135.045L193.505 73.3102Z" fill="#00AF66"/>
</g>
<mask id="mask6_710_5261" style="mask-type:luminance" maskUnits="userSpaceOnUse" x="148" y="114" width="60" height="51">
<path d="M178.621 114.334C173.234 114.67 168.022 116.411 163.488 119.389C158.954 122.367 155.25 126.482 152.734 131.338C149.171 137.558 147.981 144.893 149.389 151.948C148.969 153.03 148.753 154.184 148.754 155.348C148.749 156.957 149.166 158.539 149.961 159.929C150.757 161.32 151.904 162.469 153.282 163.259C154.661 164.049 156.221 164.451 157.803 164.424C159.385 164.396 160.932 163.94 162.283 163.102C163.634 162.264 164.74 161.075 165.489 159.658C166.237 158.24 166.601 156.646 166.541 155.038C166.481 153.43 166.001 151.867 165.15 150.511C164.298 149.155 163.107 148.054 161.698 147.322C161.529 143.969 162.319 140.638 163.972 137.732C165.448 134.871 167.611 132.437 170.26 130.653C172.908 128.869 175.957 127.795 179.123 127.529C184.505 127.353 189.871 128.207 194.943 130.046C198.681 126.617 202.787 123.628 207.184 121.135C199.045 116.641 189.924 114.302 180.661 114.334H178.621Z" fill="white"/>
</mask>
<g mask="url(#mask6_710_5261)">
<path d="M150.063 103.327L139.008 162.706L205.127 175.434L216.182 116.055L150.063 103.327Z" fill="#00AF66"/>
</g>
<mask id="mask7_710_5261" style="mask-type:luminance" maskUnits="userSpaceOnUse" x="145" y="177" width="66" height="101">
<path d="M147.113 214.86C146.746 216.147 146.444 217.452 146.21 218.771C146.195 218.952 146.195 219.134 146.21 219.315C145.322 223.939 144.974 228.654 145.174 233.361C145.174 234.789 145.174 236.218 145.475 237.612C146.477 247.444 150.019 256.83 155.743 264.819C158.69 268.778 162.519 271.97 166.914 274.133C171.309 276.297 176.146 277.371 181.028 277.267C182.065 277.267 183.101 277.267 184.105 277.267C190.57 276.786 196.697 274.143 201.53 269.751H201.697C203.436 269.761 205.14 269.252 206.598 268.288C208.056 267.325 209.204 265.947 209.9 264.327C210.597 262.707 210.811 260.915 210.516 259.172C210.222 257.429 209.431 255.813 208.243 254.522C207.054 253.231 205.52 252.323 203.829 251.909C202.139 251.495 200.366 251.595 198.73 252.194C197.094 252.794 195.667 253.869 194.625 255.284C193.583 256.7 192.972 258.395 192.868 260.16C190.024 262.514 186.499 263.852 182.834 263.969C179.683 264.379 176.481 263.97 173.527 262.781C170.573 261.591 167.964 259.66 165.944 257.167C162.873 252.912 160.605 248.115 159.254 243.02C158.946 241.628 158.711 240.22 158.552 238.802C163.917 240.771 169.572 241.794 175.275 241.829H177.282C185.527 241.838 193.692 240.173 201.296 236.932L193.403 229.382C190.56 225.471 191.128 226.729 187.951 227.648C183.953 228.67 179.824 229.06 175.71 228.804C169.723 228.897 163.78 227.74 158.251 225.403C158.233 225.256 158.233 225.108 158.251 224.961C158.251 223.873 158.552 222.818 158.719 221.73C158.704 221.549 158.704 221.367 158.719 221.186C160.875 210.659 166.151 201.057 173.837 193.673C172.814 188.515 172.388 183.253 172.566 177.995C160.06 186.835 151.042 199.897 147.113 214.86Z" fill="white"/>
</mask>
<g mask="url(#mask7_710_5261)">
<path d="M145.168 173.529L138.338 276.648L211.021 281.592L217.851 178.473L145.168 173.529Z" fill="#00AF66"/>
</g>
</g>
<defs>
<clipPath id="clip0_710_5261">
<rect width="407" height="441" fill="white"/>
</clipPath>
</defs>
</svg>
