<svg width="40" height="40" viewBox="0 0 40 40" fill="none" xmlns="http://www.w3.org/2000/svg">
<path fill-rule="evenodd" clip-rule="evenodd" d="M23.7507 4.16667C23.7507 4.05616 23.7068 3.95018 23.6286 3.87204C23.5505 3.7939 23.4445 3.75 23.334 3.75H11.6673C10.4517 3.75 9.28595 4.23289 8.42641 5.09243C7.56687 5.95197 7.08398 7.11776 7.08398 8.33333V31.6667C7.08398 32.8822 7.56687 34.048 8.42641 34.9076C9.28595 35.7671 10.4517 36.25 11.6673 36.25H28.334C29.5496 36.25 30.7154 35.7671 31.5749 34.9076C32.4344 34.048 32.9173 32.8822 32.9173 31.6667V15.245C32.9173 15.1345 32.8734 15.0285 32.7953 14.9504C32.7171 14.8722 32.6112 14.8283 32.5007 14.8283H25.0007C24.6691 14.8283 24.3512 14.6966 24.1168 14.4622C23.8823 14.2278 23.7507 13.9099 23.7507 13.5783V4.16667ZM25.0007 20.4167C25.3322 20.4167 25.6501 20.5484 25.8845 20.7828C26.119 21.0172 26.2507 21.3351 26.2507 21.6667C26.2507 21.9982 26.119 22.3161 25.8845 22.5505C25.6501 22.785 25.3322 22.9167 25.0007 22.9167H15.0007C14.6691 22.9167 14.3512 22.785 14.1168 22.5505C13.8823 22.3161 13.7507 21.9982 13.7507 21.6667C13.7507 21.3351 13.8823 21.0172 14.1168 20.7828C14.3512 20.5484 14.6691 20.4167 15.0007 20.4167H25.0007ZM25.0007 27.0833C25.3322 27.0833 25.6501 27.215 25.8845 27.4494C26.119 27.6839 26.2507 28.0018 26.2507 28.3333C26.2507 28.6649 26.119 28.9828 25.8845 29.2172C25.6501 29.4516 25.3322 29.5833 25.0007 29.5833H15.0007C14.6691 29.5833 14.3512 29.4516 14.1168 29.2172C13.8823 28.9828 13.7507 28.6649 13.7507 28.3333C13.7507 28.0018 13.8823 27.6839 14.1168 27.4494C14.3512 27.215 14.6691 27.0833 15.0007 27.0833H25.0007Z" fill="#00AF66"/>
<path d="M26.25 4.70668C26.25 4.40001 26.5717 4.20501 26.81 4.39668C27.0117 4.56001 27.1933 4.75001 27.3483 4.96668L32.37 11.9617C32.4833 12.1217 32.36 12.3283 32.1633 12.3283H26.6667C26.5562 12.3283 26.4502 12.2844 26.372 12.2063C26.2939 12.1282 26.25 12.0222 26.25 11.9117V4.70668Z" fill="#00AF66"/>
</svg>
