<svg width="369" height="360" viewBox="0 0 369 360" fill="none" xmlns="http://www.w3.org/2000/svg">
<path d="M345.751 151.399C346.691 146.009 348.201 140.679 349.281 135.189C351.235 124.59 351.387 113.738 349.731 103.089C346.583 82.653 338.458 63.3048 326.071 46.7488C312.891 29.0688 293.071 14.7488 271.771 20.1588C249.611 25.7588 230.851 42.8488 209.301 50.6488C172.801 63.8488 135.851 39.7888 99.0708 40.6488C67.3108 41.3388 33.9908 52.7388 13.0708 80.9288C4.53078 92.4388 -1.41923 107.929 0.600774 123.169C3.07077 141.739 16.7008 155.869 26.8608 169.609C42.4408 190.669 48.3408 213.609 35.2308 238.189C26.3708 254.849 14.4508 269.569 15.4808 290.259C17.1308 323.359 47.6908 343.349 72.8908 352.259C98.4908 361.319 127.561 362.259 153.011 352.059C175.621 342.959 191.401 323.059 212.011 310.359C230.078 299.167 251.427 294.481 272.521 297.079C294.301 299.679 317.251 304.259 338.301 294.869C358.441 285.869 367.981 261.819 368.731 238.769C369.155 227.269 367.422 215.791 363.621 204.929C358.951 191.869 348.621 181.679 345.711 167.829C344.668 162.4 344.682 156.822 345.751 151.399Z" fill="#F5F5F5"/>
<path d="M189.576 289.318L258.053 249.787C265.378 245.56 269.027 243.453 271.686 240.506C274.039 237.895 275.816 234.818 276.904 231.476C278.12 227.701 278.12 223.487 278.12 215.084V135.896C278.12 127.493 278.12 123.279 276.891 119.504C275.804 116.161 274.026 113.085 271.674 110.474C269.04 107.539 265.403 105.432 258.141 101.243L189.576 61.6616C182.264 57.435 178.615 55.328 174.727 54.5128C171.287 53.7813 167.732 53.7813 164.292 54.5128C160.404 55.328 156.754 57.435 149.443 61.6616L80.94 101.205C73.6408 105.419 69.9911 107.526 67.3449 110.474C64.9923 113.085 63.2148 116.161 62.1275 119.504C60.8984 123.291 60.8984 127.505 60.8984 135.946V215.021C60.8984 223.462 60.8984 227.688 62.1275 231.463C63.2148 234.805 64.9923 237.882 67.3449 240.493C69.9911 243.453 73.6533 245.56 80.9526 249.774L149.43 289.318C156.754 293.544 160.404 295.651 164.292 296.467C167.728 297.207 171.29 297.207 174.727 296.467C178.615 295.651 182.264 293.544 189.576 289.318Z" stroke="#00AF66" stroke-width="15" stroke-linecap="round" stroke-linejoin="round"/>
<path d="M131.875 175.499C131.875 185.477 135.839 195.047 142.895 202.103C149.951 209.16 159.521 213.124 169.5 213.124C179.479 213.124 189.049 209.16 196.105 202.103C203.161 195.047 207.125 185.477 207.125 175.499C207.125 165.52 203.161 155.95 196.105 148.894C189.049 141.838 179.479 137.874 169.5 137.874C159.521 137.874 149.951 141.838 142.895 148.894C135.839 155.95 131.875 165.52 131.875 175.499Z" stroke="#00AF66" stroke-width="15" stroke-linecap="round" stroke-linejoin="round"/>
</svg>
