<svg width="512" height="512" viewBox="0 0 512 512" fill="none" xmlns="http://www.w3.org/2000/svg">
<g clip-path="url(#clip0_1182_11815)">
<path d="M511.62 82.0035L82.3833 0L0.379759 429.237L429.617 511.241L511.62 82.0035Z" fill="#3C4554"/>
<path d="M271.492 393.402C293.074 371.105 292.494 335.533 270.196 313.951C247.899 292.369 212.327 292.949 190.746 315.247C169.164 337.544 169.744 373.116 192.041 394.698C214.339 416.28 249.91 415.7 271.492 393.402Z" fill="#50BB87"/>
<path d="M264.664 386.741C282.569 368.217 282.066 338.686 263.543 320.782C245.019 302.878 215.488 303.38 197.584 321.904C179.68 340.427 180.182 369.958 198.706 387.862C217.23 405.766 246.76 405.264 264.664 386.741Z" fill="#50BB87"/>
<path d="M187.045 348.111C188.749 339.177 193.029 330.937 199.357 324.404C205.685 317.871 213.785 313.33 222.66 311.342C231.536 309.353 240.799 310.003 249.309 313.211C257.82 316.419 265.207 322.046 270.561 329.398C267.221 324.106 262.851 319.54 257.71 315.972C252.569 312.404 246.763 309.906 240.637 308.629C234.512 307.351 228.191 307.319 222.053 308.534C215.914 309.75 210.083 312.188 204.906 315.703C199.729 319.219 195.313 323.74 191.919 328.998C188.526 334.256 186.226 340.143 185.155 346.308C184.083 352.474 184.264 358.792 185.685 364.886C187.106 370.98 189.739 376.726 193.427 381.782C187.089 371.781 184.806 359.738 187.045 348.111Z" fill="white"/>
<path d="M177.913 105.128C176.509 103.032 175.977 100.471 176.43 97.9886C176.883 95.5064 178.285 93.2984 180.339 91.833C216.174 66.0731 256.945 54.7718 298.035 62.6218C356.567 73.8041 396.86 113.42 385.512 172.818C374.586 230.01 301.943 230.726 296.9 257.124L294.094 271.809C293.612 274.333 292.148 276.562 290.022 278.005C287.897 279.448 285.285 279.989 282.762 279.506L219.95 267.507C217.428 267.023 215.201 265.558 213.759 263.433C212.317 261.308 211.778 258.698 212.26 256.175L217.166 230.493C224.899 190.014 299.223 180.499 303.846 156.299C307.04 139.585 290.64 132.346 275.239 129.404C258.909 126.284 236.662 136.312 219.093 148.601C218.039 149.344 216.847 149.869 215.587 150.145C214.327 150.421 213.025 150.444 211.756 150.211C210.487 149.978 209.278 149.494 208.198 148.788C207.119 148.082 206.191 147.168 205.469 146.099L177.913 105.128Z" fill="#50BB87"/>
<path d="M221.159 261.179C220.315 261.016 219.571 260.525 219.089 259.813C218.607 259.102 218.426 258.228 218.588 257.384L223.494 231.702C227.263 211.976 251.156 199.823 272.258 189.112C291.2 179.485 307.564 171.172 310.173 157.514C311.724 149.398 311.54 129.787 276.447 123.083C253.684 118.734 226.159 135.788 215.403 143.325C215.039 143.582 214.628 143.763 214.193 143.857C213.758 143.951 213.308 143.957 212.871 143.873C212.455 143.794 212.059 143.632 211.705 143.398C211.352 143.164 211.049 142.862 210.813 142.509L183.261 101.518C182.794 100.809 182.622 99.9455 182.781 99.1113C182.941 98.2771 183.419 97.5378 184.114 97.0505C219.798 71.4166 258.781 61.6747 296.827 68.9432C325.352 74.3927 348.259 86.4537 363.063 103.842C378.6 122.059 384.173 145.497 379.179 171.635C373.274 202.546 347.518 215.274 324.785 226.509C307.843 234.88 293.208 242.115 290.567 255.941L287.761 270.626C287.598 271.471 287.107 272.216 286.396 272.699C285.685 273.182 284.811 273.364 283.966 273.204L221.159 261.179Z" fill="white"/>
<path d="M225.868 264.02C225.023 263.857 224.278 263.366 223.795 262.654C223.312 261.943 223.13 261.069 223.29 260.224L228.191 234.567C231.96 214.842 255.853 202.689 276.955 191.978C295.903 182.352 312.265 174.018 314.874 160.361C316.424 152.244 316.248 132.635 281.148 125.929C258.385 121.58 230.86 138.634 220.104 146.172C219.741 146.428 219.331 146.608 218.897 146.703C218.463 146.797 218.015 146.803 217.579 146.721C217.161 146.642 216.764 146.48 216.409 146.246C216.055 146.011 215.75 145.709 215.514 145.356L187.949 104.43C187.481 103.721 187.308 102.857 187.467 102.022C187.626 101.188 188.106 100.448 188.803 99.9619C224.505 74.298 263.485 64.5757 301.531 71.8442C330.056 77.2937 352.969 89.3559 367.774 106.745C383.311 124.954 388.883 148.399 383.889 174.537C377.984 205.448 352.222 218.174 329.495 229.411C312.547 237.781 297.912 245.016 295.271 258.842L292.465 273.527C292.304 274.371 291.814 275.117 291.104 275.601C290.394 276.084 289.521 276.266 288.676 276.107L225.868 264.02Z" fill="#50BB87"/>
<path d="M301.053 390.284C300.82 390.165 300.55 390.143 300.301 390.221C300.052 390.3 299.843 390.472 299.719 390.703C294.55 400.843 287.092 409.643 277.936 416.405C268.779 423.167 258.176 427.706 246.963 429.664C246.735 429.706 246.529 429.825 246.38 430.002C246.231 430.179 246.148 430.402 246.146 430.634C246.144 430.865 246.224 431.09 246.37 431.27C246.516 431.449 246.721 431.572 246.948 431.616C247.066 431.639 247.187 431.639 247.305 431.617C258.817 429.603 269.703 424.938 279.103 417.992C288.502 411.046 296.158 402.009 301.463 391.595C301.576 391.366 301.596 391.102 301.52 390.858C301.443 390.614 301.276 390.408 301.053 390.284Z" fill="white"/>
<path d="M216.872 432.45C201.458 429.532 187.257 422.106 176.066 411.112C164.875 400.118 157.199 386.051 154.008 370.691C153.949 370.439 153.794 370.219 153.576 370.079C153.357 369.939 153.092 369.89 152.838 369.943C152.584 369.996 152.361 370.146 152.216 370.361C152.071 370.577 152.016 370.84 152.063 371.095C155.333 386.84 163.201 401.259 174.672 412.529C186.143 423.798 200.7 431.41 216.499 434.401C216.758 434.45 217.026 434.395 217.244 434.247C217.462 434.099 217.612 433.87 217.661 433.612C217.711 433.353 217.655 433.085 217.507 432.867C217.359 432.649 217.131 432.499 216.872 432.45Z" fill="white"/>
<path d="M333.936 315.195C333.986 314.937 333.93 314.669 333.782 314.451C333.634 314.233 333.406 314.083 333.147 314.033L297.8 307.28C297.607 307.247 297.409 307.272 297.23 307.352C297.051 307.432 296.9 307.563 296.796 307.729C296.692 307.895 296.64 308.088 296.646 308.283C296.652 308.479 296.716 308.669 296.83 308.828C307.329 323.808 312.343 341.95 311.028 360.196C311.01 360.439 311.081 360.681 311.23 360.875C311.378 361.068 311.592 361.201 311.832 361.246L311.942 361.268C312.205 361.287 312.465 361.202 312.664 361.03C312.864 360.858 312.987 360.615 313.007 360.352C314.302 342.473 309.662 324.666 299.806 309.693L332.773 315.991C332.902 316.016 333.034 316.014 333.162 315.988C333.291 315.961 333.412 315.909 333.52 315.835C333.628 315.761 333.721 315.667 333.792 315.557C333.864 315.447 333.913 315.324 333.936 315.195Z" fill="white"/>
<path d="M340.205 369.397C338.911 369.151 337.572 369.368 336.423 370.012C335.274 370.656 334.389 371.684 333.924 372.916L299.182 366.278C300.945 356.262 300.451 345.978 297.736 336.177C295.021 326.375 290.153 317.303 283.487 309.622L308.894 292.366L333.484 297.063C333.469 298.461 333.979 299.813 334.911 300.854C335.844 301.895 337.132 302.549 338.522 302.688C339.913 302.827 341.305 302.441 342.425 301.605C343.545 300.769 344.312 299.544 344.574 298.171C344.836 296.798 344.575 295.377 343.842 294.187C343.11 292.997 341.958 292.124 340.614 291.741C339.27 291.357 337.831 291.491 336.581 292.115C335.33 292.739 334.358 293.808 333.857 295.112L308.857 290.336C308.598 290.289 308.331 290.345 308.113 290.491L282.154 308.127C273.58 298.776 262.575 291.994 250.368 288.539C238.161 285.084 225.233 285.091 213.03 288.561C200.827 292.03 189.83 298.825 181.267 308.186C172.703 317.547 166.912 329.104 164.54 341.567C164.431 342.139 164.323 342.705 164.216 343.264L156.397 348.626L146.901 346.812C146.643 346.763 146.375 346.818 146.157 346.966C145.939 347.114 145.789 347.343 145.739 347.601C145.69 347.86 145.745 348.128 145.893 348.346C146.041 348.564 146.27 348.714 146.529 348.763L156.414 350.652C156.673 350.701 156.94 350.645 157.158 350.497L163.857 345.953C163.287 350.495 163.174 355.082 163.52 359.647L133.557 353.923C133.299 353.873 133.031 353.929 132.813 354.077C132.595 354.225 132.445 354.453 132.396 354.712C132.346 354.971 132.402 355.238 132.55 355.456C132.698 355.674 132.926 355.824 133.185 355.874L163.719 361.707C165.298 376.292 171.514 389.986 181.452 400.778C191.39 411.569 204.527 418.888 218.933 421.66C219.714 421.809 220.488 421.957 221.27 422.059C221.284 422.222 221.337 422.378 221.426 422.514L230.613 436.032C230.761 436.25 230.99 436.4 231.248 436.45L262.914 442.5C262.901 443.892 263.409 445.239 264.338 446.275C265.268 447.312 266.551 447.963 267.937 448.101C269.322 448.239 270.709 447.853 271.825 447.02C272.94 446.187 273.704 444.967 273.965 443.6C274.226 442.232 273.966 440.816 273.236 439.631C272.507 438.445 271.359 437.575 270.021 437.193C268.682 436.81 267.249 436.943 266.002 437.564C264.756 438.185 263.788 439.249 263.287 440.548L232.024 434.576L223.754 422.399C239.694 424.259 255.781 420.467 269.213 411.685C282.645 402.902 292.57 389.685 297.258 374.337L316.216 377.959L324.206 389.732C324.354 389.949 324.583 390.099 324.841 390.149C325.1 390.198 325.367 390.143 325.585 389.995C325.693 389.922 325.786 389.829 325.858 389.72C325.931 389.611 325.98 389.489 326.005 389.361C326.029 389.233 326.028 389.101 326.001 388.973C325.974 388.845 325.922 388.724 325.848 388.616L317.627 376.503C317.478 376.286 317.25 376.136 316.992 376.085L297.813 372.421C298.183 371.049 298.515 369.663 298.805 368.249L333.56 374.889C333.556 375.952 333.854 376.994 334.42 377.893C334.986 378.793 335.797 379.512 336.757 379.968C337.718 380.423 338.788 380.596 339.843 380.465C340.897 380.335 341.893 379.907 342.713 379.231C343.534 378.555 344.144 377.659 344.474 376.649C344.804 375.638 344.839 374.555 344.575 373.525C344.312 372.496 343.76 371.562 342.986 370.835C342.211 370.107 341.245 369.615 340.201 369.417L340.205 369.397ZM339.748 293.595C340.449 293.729 341.095 294.068 341.603 294.569C342.112 295.07 342.46 295.71 342.605 296.409C342.749 297.108 342.683 297.834 342.415 298.495C342.147 299.157 341.689 299.724 341.098 300.125C340.508 300.526 339.812 300.743 339.098 300.748C338.385 300.754 337.685 300.547 337.089 300.155C336.493 299.763 336.026 299.203 335.748 298.546C335.47 297.889 335.393 297.164 335.527 296.463C335.708 295.523 336.254 294.694 337.045 294.157C337.836 293.62 338.808 293.418 339.748 293.595ZM269.178 439.031C269.88 439.165 270.526 439.504 271.034 440.006C271.543 440.507 271.891 441.148 272.035 441.847C272.18 442.546 272.113 443.272 271.845 443.934C271.576 444.595 271.117 445.162 270.526 445.563C269.935 445.964 269.238 446.18 268.524 446.184C267.811 446.189 267.111 445.982 266.515 445.589C265.919 445.196 265.453 444.635 265.176 443.977C264.899 443.319 264.823 442.593 264.958 441.892C265.139 440.954 265.685 440.125 266.477 439.589C267.268 439.053 268.24 438.852 269.178 439.031ZM219.306 419.709C202.423 416.461 187.452 406.804 177.531 392.762C167.611 378.72 163.511 361.383 166.091 344.385C166.214 344.247 166.294 344.077 166.323 343.895C166.351 343.713 166.328 343.526 166.254 343.357C166.342 342.896 166.43 342.434 166.52 341.966C169.977 324.8 180.07 309.692 194.604 299.926C209.139 290.16 226.94 286.525 244.14 289.811C261.339 293.097 276.547 303.038 286.457 317.474C296.368 331.91 300.181 349.674 297.067 366.906C296.704 368.805 296.254 370.667 295.742 372.497C295.612 372.633 295.523 372.803 295.487 372.988C295.462 373.117 295.462 373.249 295.486 373.378C290.773 389.159 280.375 402.632 266.303 411.189C252.232 419.747 235.486 422.783 219.306 419.709ZM338.478 378.437C337.777 378.303 337.131 377.964 336.622 377.463C336.114 376.963 335.765 376.322 335.621 375.623C335.476 374.924 335.542 374.198 335.81 373.537C336.079 372.876 336.537 372.308 337.127 371.907C337.718 371.506 338.414 371.29 339.127 371.284C339.841 371.279 340.54 371.485 341.137 371.877C341.733 372.269 342.2 372.829 342.478 373.486C342.756 374.144 342.833 374.869 342.699 375.57C342.518 376.509 341.972 377.338 341.181 377.875C340.389 378.413 339.417 378.615 338.478 378.437Z" fill="white"/>
<path d="M371.327 246.253C369.962 245.994 368.55 246.252 367.364 246.975C366.178 247.699 365.303 248.838 364.91 250.171L335.878 244.624C335.667 244.585 335.449 244.614 335.255 244.708C321.193 251.661 309.053 257.66 307.538 265.588L304.733 280.273C304.683 280.531 304.739 280.799 304.887 281.017C305.034 281.235 305.263 281.385 305.522 281.435C305.78 281.484 306.048 281.429 306.266 281.281C306.484 281.133 306.634 280.904 306.684 280.645L309.489 265.96C310.809 259.053 322.379 253.289 335.837 246.639L364.706 252.154C364.783 253.194 365.149 254.192 365.764 255.035C366.378 255.877 367.216 256.531 368.183 256.923C369.15 257.314 370.206 257.427 371.234 257.249C372.262 257.071 373.219 256.608 373.997 255.915C374.776 255.221 375.345 254.323 375.64 253.322C375.935 252.322 375.944 251.259 375.666 250.254C375.388 249.249 374.834 248.341 374.068 247.634C373.301 246.927 372.352 246.449 371.327 246.253ZM369.6 255.293C368.756 255.13 367.998 254.671 367.462 253.999C366.926 253.327 366.646 252.486 366.674 251.627C366.684 251.593 366.69 251.558 366.694 251.523C366.712 251.425 366.713 251.325 366.697 251.227C366.707 251.175 366.717 251.123 366.727 251.071C366.86 250.37 367.199 249.724 367.7 249.215C368.201 248.707 368.841 248.358 369.54 248.214C370.239 248.069 370.965 248.135 371.627 248.403C372.288 248.672 372.855 249.13 373.256 249.72C373.657 250.311 373.874 251.007 373.879 251.72C373.885 252.434 373.679 253.133 373.287 253.73C372.895 254.326 372.334 254.793 371.677 255.071C371.02 255.349 370.295 255.426 369.594 255.292L369.6 255.293Z" fill="white"/>
<path d="M142.028 347.904C142.287 347.953 142.555 347.898 142.773 347.75C142.99 347.602 143.141 347.373 143.19 347.114C143.24 346.856 143.184 346.588 143.036 346.37C142.888 346.152 142.66 346.002 142.401 345.953L129.569 343.501C129.547 342.097 129.001 340.751 128.037 339.73C127.072 338.709 125.761 338.085 124.36 337.982C122.959 337.879 121.571 338.305 120.468 339.174C119.365 340.044 118.628 341.295 118.401 342.681C118.174 344.067 118.475 345.488 119.243 346.664C120.011 347.84 121.192 348.685 122.553 349.034C123.913 349.383 125.355 349.21 126.594 348.549C127.834 347.887 128.781 346.786 129.249 345.462L142.028 347.904ZM123.295 347.163C122.593 347.03 121.947 346.692 121.437 346.191C120.927 345.691 120.578 345.05 120.433 344.351C120.287 343.652 120.353 342.925 120.621 342.263C120.889 341.601 121.347 341.033 121.938 340.632C122.529 340.231 123.226 340.014 123.94 340.009C124.654 340.003 125.354 340.21 125.95 340.603C126.547 340.996 127.014 341.557 127.291 342.215C127.568 342.874 127.644 343.599 127.509 344.301C127.328 345.237 126.784 346.064 125.996 346.6C125.208 347.137 124.239 347.339 123.302 347.164L123.295 347.163Z" fill="white"/>
<path d="M397.312 180.492C397.053 180.442 396.786 180.498 396.568 180.646C396.35 180.794 396.2 181.022 396.15 181.281C392.774 198.951 383.581 213.414 368.041 225.491C367.834 225.654 367.7 225.892 367.668 226.153C367.635 226.415 367.707 226.678 367.868 226.887C368.032 227.094 368.27 227.228 368.531 227.26C368.793 227.292 369.056 227.22 369.265 227.059C385.2 214.673 394.631 199.818 398.101 181.654C398.126 181.526 398.125 181.394 398.098 181.266C398.072 181.138 398.021 181.017 397.947 180.909C397.874 180.801 397.78 180.709 397.671 180.637C397.562 180.566 397.44 180.516 397.312 180.492Z" fill="white"/>
<path d="M408.086 178.647C407.937 178.43 407.709 178.28 407.451 178.229L392.409 175.355C392.465 175.063 392.52 174.77 392.576 174.477C393.089 171.791 393.498 169.126 393.827 166.485L428.881 173.182C428.867 174.58 429.376 175.932 430.308 176.973C431.241 178.014 432.529 178.668 433.92 178.807C435.31 178.946 436.703 178.56 437.823 177.724C438.943 176.888 439.709 175.663 439.971 174.29C440.234 172.917 439.973 171.496 439.24 170.306C438.507 169.116 437.355 168.243 436.011 167.86C434.667 167.476 433.228 167.61 431.978 168.234C430.727 168.858 429.756 169.927 429.254 171.231L394.069 164.509C396.92 137.591 389.926 113.336 373.579 93.8593C356.719 73.786 331.039 60.0088 299.334 53.9517C257.405 45.9415 214.625 56.751 175.617 85.2146C171.93 87.8866 169.419 91.8797 168.607 96.3598C167.795 100.84 168.745 105.461 171.26 109.256L173.728 112.991C173.715 113.04 173.706 113.09 173.7 113.14L168.481 140.455C168.432 140.714 168.487 140.982 168.635 141.2C168.783 141.418 169.012 141.568 169.27 141.617C169.529 141.667 169.797 141.611 170.015 141.463C170.233 141.315 170.383 141.087 170.432 140.828L175.297 115.366L183.228 127.344L173.771 176.842L148.598 193.935L123.338 189.109C123.351 187.718 122.843 186.373 121.915 185.338C120.987 184.303 119.704 183.653 118.321 183.515C116.937 183.377 115.552 183.763 114.438 184.595C113.324 185.427 112.561 186.645 112.3 188.011C112.039 189.377 112.299 190.791 113.028 191.975C113.757 193.159 114.902 194.028 116.239 194.41C117.576 194.792 119.008 194.66 120.252 194.04C121.497 193.42 122.465 192.357 122.965 191.06L148.635 195.964C148.894 196.013 149.161 195.958 149.379 195.809L175.234 178.254C175.452 178.107 175.602 177.878 175.652 177.62L184.804 129.714L189.102 136.218L178.75 190.406C178.701 190.665 178.756 190.932 178.904 191.15C179.052 191.368 179.281 191.518 179.539 191.568C179.798 191.617 180.066 191.562 180.284 191.414C180.502 191.266 180.652 191.037 180.701 190.779L190.672 138.587L198.523 150.421L194.255 172.761C194.205 173.02 194.261 173.287 194.409 173.505C194.557 173.723 194.785 173.873 195.044 173.923C195.303 173.972 195.571 173.917 195.788 173.769C196.006 173.621 196.157 173.392 196.206 173.134L200.13 152.595C202.644 155.503 206.07 157.472 209.848 158.18C212.138 158.62 214.492 158.589 216.769 158.088C219.046 157.588 221.197 156.629 223.091 155.27C242.23 141.676 261.551 134.649 273.511 136.934C290.147 140.112 297.728 146.232 296.028 155.129C294.692 162.12 279.164 170.148 265.468 177.232C241.452 189.644 214.234 203.71 209.102 230.577L204.199 256.24L187.266 267.916C186.177 267.021 184.793 266.565 183.386 266.64C181.978 266.714 180.65 267.312 179.661 268.317C178.673 269.322 178.097 270.66 178.045 272.069C177.994 273.477 178.472 274.854 179.385 275.928C180.298 277.001 181.58 277.694 182.979 277.87C184.377 278.046 185.791 277.692 186.941 276.878C188.092 276.064 188.896 274.849 189.195 273.472C189.495 272.095 189.268 270.655 188.56 269.437L205.644 257.635C205.751 257.562 205.842 257.469 205.913 257.361C205.983 257.253 206.031 257.132 206.054 257.005L211.037 230.926C215.988 205.009 242.756 191.147 266.364 178.967C281.151 171.323 296.446 163.419 297.963 155.478C299.91 145.287 291.792 138.384 273.868 134.96C261.394 132.577 241.49 139.728 221.922 153.624C220.265 154.814 218.384 155.656 216.393 156.102C214.402 156.548 212.342 156.587 210.336 156.217C208.329 155.848 206.418 155.077 204.717 153.952C203.015 152.826 201.558 151.369 200.433 149.667L172.94 108.189C170.708 104.82 169.864 100.719 170.585 96.7425C171.306 92.7662 173.535 89.2222 176.808 86.851C215.329 58.7123 257.574 48.0229 298.95 55.9276C330.2 61.8977 355.47 75.4888 372.042 95.1634C389.993 116.51 396.453 143.812 390.664 174.112C383.529 211.462 352.328 227.147 329.551 238.609C315.472 245.687 303.31 251.797 301.775 259.835L298.928 274.735C298.187 278.757 295.88 282.322 292.515 284.646C289.149 286.97 284.999 287.864 280.975 287.133L245.855 280.424C245.636 280.382 245.409 280.415 245.211 280.516C245.066 280.353 244.871 280.242 244.657 280.201C225.029 276.462 204.72 280.664 188.186 291.884C171.653 303.103 160.247 320.425 156.472 340.046C156.422 340.305 156.478 340.572 156.626 340.79C156.774 341.008 157.002 341.158 157.261 341.208C157.52 341.257 157.787 341.202 158.005 341.054C158.223 340.906 158.373 340.677 158.423 340.419C162.095 321.321 173.192 304.459 189.28 293.533C205.369 282.607 225.134 278.509 244.24 282.137C244.436 282.032 244.661 281.998 244.879 282.039C245.097 282.081 245.294 282.196 245.437 282.366L280.556 289.075C285.098 289.906 289.784 288.9 293.585 286.28C297.387 283.66 299.993 279.639 300.834 275.099L303.682 260.193C305.032 253.123 316.795 247.194 330.391 240.354C352.958 228.999 383.661 213.557 391.958 177.291L406.643 180.097L417.969 196.781C418.118 196.997 418.346 197.147 418.604 197.199C418.796 197.235 418.996 197.214 419.177 197.137C419.357 197.061 419.511 196.932 419.619 196.768C419.727 196.604 419.784 196.412 419.782 196.216C419.781 196.019 419.721 195.828 419.611 195.665L408.086 178.647ZM435.155 169.662C435.856 169.796 436.502 170.135 437.01 170.636C437.519 171.137 437.867 171.777 438.012 172.476C438.156 173.175 438.091 173.901 437.822 174.562C437.554 175.224 437.096 175.791 436.506 176.192C435.915 176.593 435.219 176.81 434.506 176.815C433.792 176.821 433.093 176.614 432.496 176.222C431.9 175.83 431.433 175.27 431.155 174.613C430.877 173.956 430.8 173.231 430.934 172.53C431.02 172.062 431.199 171.616 431.458 171.218C431.718 170.819 432.053 170.476 432.446 170.208C432.839 169.939 433.281 169.751 433.746 169.654C434.212 169.558 434.692 169.554 435.159 169.643L435.155 169.662ZM117.062 192.494C116.361 192.36 115.716 192.021 115.207 191.52C114.699 191.019 114.35 190.379 114.206 189.68C114.061 188.981 114.127 188.255 114.395 187.594C114.664 186.932 115.122 186.365 115.712 185.964C116.303 185.563 116.999 185.346 117.712 185.341C118.426 185.335 119.125 185.542 119.722 185.934C120.318 186.326 120.785 186.886 121.063 187.543C121.341 188.2 121.418 188.925 121.284 189.626C121.103 190.566 120.557 191.395 119.766 191.932C118.974 192.47 118.002 192.672 117.062 192.494ZM182.995 275.769C182.294 275.635 181.649 275.296 181.14 274.795C180.632 274.294 180.283 273.654 180.139 272.955C179.994 272.256 180.06 271.53 180.328 270.869C180.596 270.207 181.054 269.64 181.645 269.239C182.235 268.838 182.931 268.621 183.645 268.616C184.359 268.61 185.058 268.817 185.654 269.209C186.251 269.601 186.718 270.161 186.996 270.818C187.274 271.475 187.351 272.2 187.217 272.901C187.036 273.841 186.49 274.67 185.698 275.207C184.907 275.745 183.935 275.947 182.995 275.769Z" fill="white"/>
<path d="M423.243 202.763C423.172 202.65 423.079 202.553 422.97 202.477C422.86 202.4 422.737 202.347 422.606 202.32C422.476 202.292 422.341 202.292 422.21 202.317C422.079 202.343 421.955 202.395 421.845 202.47C421.734 202.545 421.64 202.642 421.568 202.754C421.496 202.866 421.447 202.991 421.424 203.123C421.401 203.254 421.405 203.389 421.436 203.519C421.466 203.648 421.523 203.771 421.601 203.878L429.146 214.986C429.218 215.095 429.312 215.188 429.421 215.26C429.53 215.332 429.652 215.381 429.78 215.404C429.908 215.43 430.04 215.43 430.168 215.404C430.296 215.377 430.418 215.325 430.524 215.25C430.633 215.177 430.726 215.084 430.798 214.975C430.87 214.866 430.92 214.744 430.944 214.615C430.969 214.487 430.968 214.355 430.941 214.228C430.914 214.1 430.862 213.979 430.788 213.871L423.243 202.763Z" fill="white"/>
<path d="M176.474 210.578L178.721 198.813C178.771 198.554 178.716 198.287 178.568 198.069C178.42 197.851 178.191 197.701 177.932 197.651C177.674 197.602 177.406 197.657 177.188 197.805C176.97 197.953 176.82 198.182 176.77 198.44L174.523 210.205C174.473 210.464 174.529 210.732 174.677 210.95C174.825 211.168 175.053 211.318 175.312 211.367C175.571 211.417 175.838 211.361 176.056 211.213C176.274 211.065 176.424 210.837 176.474 210.578Z" fill="white"/>
<path d="M192.77 191.399L194.475 182.476C194.525 182.217 194.469 181.95 194.321 181.732C194.173 181.514 193.945 181.364 193.686 181.314C193.427 181.265 193.159 181.32 192.942 181.468C192.724 181.616 192.574 181.845 192.524 182.103L190.819 191.026C190.77 191.285 190.825 191.553 190.973 191.771C191.121 191.989 191.35 192.139 191.609 192.188C191.867 192.238 192.135 192.182 192.353 192.034C192.571 191.886 192.721 191.658 192.77 191.399Z" fill="white"/>
<path d="M167.273 153.733L168.267 148.53C168.316 148.272 168.261 148.004 168.113 147.786C167.965 147.568 167.736 147.418 167.477 147.369C167.219 147.319 166.951 147.374 166.733 147.522C166.515 147.67 166.365 147.899 166.316 148.158L165.322 153.361C165.272 153.619 165.328 153.887 165.476 154.105C165.624 154.323 165.852 154.473 166.111 154.522C166.369 154.572 166.637 154.516 166.855 154.369C167.073 154.221 167.223 153.992 167.273 153.733Z" fill="white"/>
<path d="M341.723 317.836L353.839 320.15C354.098 320.2 354.366 320.144 354.584 319.996C354.802 319.848 354.952 319.62 355.001 319.361C355.051 319.103 354.995 318.835 354.847 318.617C354.699 318.399 354.471 318.249 354.212 318.199L342.096 315.885C341.837 315.835 341.569 315.891 341.352 316.039C341.134 316.187 340.983 316.415 340.934 316.674C340.885 316.933 340.94 317.2 341.088 317.418C341.236 317.636 341.464 317.786 341.723 317.836Z" fill="white"/>
<g clip-path="url(#clip1_1182_11815)">
<mask id="mask0_1182_11815" style="mask-type:luminance" maskUnits="userSpaceOnUse" x="238" y="339" width="7" height="12">
<path d="M238.406 340.508C239.905 342.872 240.769 345.595 240.914 348.409C242.31 349.086 243.625 349.922 244.834 350.901C245.151 346.883 244.277 342.869 242.325 339.375C240.981 339.601 239.667 339.982 238.406 340.508Z" fill="white"/>
</mask>
<g mask="url(#mask0_1182_11815)">
<path d="M246.173 336.989L234.615 339.646L237.429 352.607L248.986 349.95L246.173 336.989Z" fill="white"/>
</g>
<mask id="mask1_1182_11815" style="mask-type:luminance" maskUnits="userSpaceOnUse" x="206" y="343" width="13" height="21">
<path d="M213.907 343.794C212.064 343.89 210.324 344.708 209.054 346.076C206.747 348.576 205.991 352.752 207.126 356.722C207.973 359.357 209.514 361.704 211.582 363.508C211.821 362.244 212.181 361.005 212.656 359.81C212.699 359.583 212.834 359.374 212.938 359.158C212.026 358.118 211.34 356.894 210.922 355.565C210.201 353.01 210.618 350.224 211.933 348.786C212.308 348.4 212.775 348.121 213.287 347.975C213.681 348.451 214.224 348.773 214.827 348.889C215.266 348.975 215.721 348.95 216.15 348.816C216.579 348.683 216.97 348.445 217.29 348.124C217.609 347.802 217.846 347.407 217.982 346.972C218.117 346.537 218.145 346.076 218.065 345.629C217.985 345.181 217.798 344.762 217.52 344.406C217.243 344.05 216.884 343.769 216.474 343.587C216.064 343.405 215.617 343.328 215.169 343.362C214.722 343.397 214.29 343.541 213.909 343.784" fill="white"/>
</mask>
<g mask="url(#mask1_1182_11815)">
<path d="M218.65 342.407L205.212 341.77L204.076 363.614L217.515 364.25L218.65 342.407Z" fill="white"/>
</g>
<mask id="mask2_1182_11815" style="mask-type:luminance" maskUnits="userSpaceOnUse" x="232" y="353" width="12" height="13">
<path d="M232.879 363.224L236.015 365.962C238.846 364.578 242.385 360.142 243.598 356.545L240.425 353.725C239.092 357.288 236.003 361.564 232.871 363.265" fill="white"/>
</mask>
<g mask="url(#mask2_1182_11815)">
<path d="M239.822 348.799L227.348 358.509L236.663 370.894L249.136 361.184L239.822 348.799Z" fill="white"/>
</g>
<mask id="mask3_1182_11815" style="mask-type:luminance" maskUnits="userSpaceOnUse" x="229" y="347" width="23" height="22">
<path d="M231.26 347.538C230.616 348.859 230.185 350.275 229.985 351.732C232.97 351.304 236.008 351.788 238.711 353.121C240.596 353.929 242.248 355.208 243.511 356.84C243.781 357.131 244.031 357.44 244.26 357.764C244.558 358.155 244.831 358.564 245.078 358.99C245.568 359.788 245.981 360.633 246.31 361.513C247.073 363.657 247.428 365.931 247.354 368.215C248.761 367.866 250.092 367.249 251.276 366.398C251.171 364.223 250.744 362.08 250.009 360.039C249.037 357.489 247.543 355.18 245.624 353.266C245.314 352.94 244.986 352.632 244.644 352.341C243.514 351.337 242.264 350.481 240.925 349.791C240.568 349.587 240.198 349.406 239.819 349.248C238.469 348.645 237.055 348.199 235.604 347.919C234.169 347.646 232.708 347.539 231.248 347.6" fill="white"/>
</mask>
<g mask="url(#mask3_1182_11815)">
<path d="M236.609 338.714L221.58 360.079L245.059 377.045L260.088 355.679L236.609 338.714Z" fill="white"/>
</g>
<mask id="mask4_1182_11815" style="mask-type:luminance" maskUnits="userSpaceOnUse" x="231" y="373" width="20" height="11">
<path d="M245.835 374.789C245.604 375.246 245.324 375.677 245.001 376.073C243.303 378.133 240.81 379.347 238.913 379.038C238.255 378.936 237.648 378.621 237.181 378.14C237.213 377.607 237.092 377.076 236.834 376.612C236.576 376.148 236.191 375.77 235.726 375.524C235.26 375.277 234.734 375.173 234.21 375.222C233.686 375.272 233.186 375.474 232.77 375.804C232.354 376.133 232.04 376.577 231.864 377.082C231.689 377.588 231.661 378.132 231.782 378.651C231.904 379.171 232.17 379.642 232.55 380.01C232.929 380.378 233.405 380.626 233.922 380.726L234.074 380.755C235.155 382.004 236.636 382.824 238.258 383.073C241.565 383.598 245.403 381.893 248.023 378.693C249.157 377.248 249.998 375.592 250.5 373.819C248.99 374.362 247.419 374.705 245.825 374.84" fill="white"/>
</mask>
<g mask="url(#mask4_1182_11815)">
<path d="M239.646 363.381L226.557 377.476L241.8 392.069L254.89 377.974L239.646 363.381Z" fill="white"/>
</g>
<mask id="mask5_1182_11815" style="mask-type:luminance" maskUnits="userSpaceOnUse" x="224" y="333" width="35" height="41">
<path d="M240.173 334.567C239.732 334.675 239.321 334.789 238.908 334.914C237.47 335.324 236.078 335.89 234.757 336.602C234.426 336.795 234.095 336.989 233.783 337.186C233.749 337.205 233.717 337.227 233.687 337.253C230.04 339.638 227.28 343.193 225.848 347.348C225.69 347.788 225.553 348.232 225.433 348.691C225.015 350.222 224.788 351.799 224.758 353.385C224.728 353.817 224.738 354.258 224.738 354.696C224.867 357.955 225.794 361.124 227.436 363.917C227.54 364.086 227.634 364.254 227.741 364.413C227.85 364.602 227.97 364.786 228.098 364.963C228.934 366.212 229.907 367.359 230.999 368.383C231.319 368.7 231.655 369 232.006 369.281C234.541 371.365 237.546 372.78 240.757 373.402C242.199 373.675 243.669 373.776 245.137 373.704C245.552 373.676 245.978 373.651 246.399 373.592C247.92 373.394 249.41 372.996 250.832 372.407C251.253 372.237 251.666 372.045 252.067 371.83C252.933 371.401 253.761 370.898 254.542 370.325C255.86 369.282 256.895 367.915 257.546 366.355C258.198 364.794 258.445 363.092 258.264 361.411C258.114 359.349 257.282 357.404 255.901 355.891C255.802 355.396 255.571 354.939 255.235 354.569C254.899 354.198 254.47 353.928 253.993 353.786C253.516 353.645 253.01 353.638 252.528 353.766C252.045 353.894 251.606 354.152 251.255 354.513C250.905 354.874 250.657 355.325 250.538 355.816C250.419 356.308 250.434 356.822 250.58 357.304C250.726 357.786 250.999 358.218 251.368 358.554C251.738 358.89 252.192 359.117 252.68 359.211C252.943 359.253 253.212 359.258 253.477 359.224C253.96 359.974 254.254 360.835 254.334 361.73C254.442 362.671 254.328 363.625 254 364.515C253.673 365.405 253.142 366.204 252.452 366.846C252.384 366.922 252.307 366.989 252.224 367.048C251.943 367.251 251.652 367.452 251.355 367.631C250.115 368.422 248.751 368.99 247.322 369.309C246.948 369.398 246.565 369.475 246.227 369.538C244.67 369.755 243.09 369.713 241.55 369.415C239.642 369.057 237.817 368.346 236.167 367.317C235.811 367.089 235.457 366.85 235.107 366.59C233.988 365.755 232.984 364.772 232.121 363.667C231.874 363.364 231.631 363.039 231.41 362.708L231.11 362.244C229.41 359.518 228.595 356.315 228.78 353.084C228.791 352.686 228.828 352.289 228.891 351.896C229.07 350.431 229.46 349 230.05 347.648C230.212 347.24 230.404 346.838 230.607 346.439C231.857 344.061 233.69 342.05 235.928 340.601C236.193 340.427 236.466 340.265 236.759 340.107C237.052 339.949 237.424 339.763 237.782 339.596C239.054 339.027 240.383 338.603 241.746 338.333C242.151 338.25 242.564 338.179 242.963 338.127C245.455 337.672 248.019 338.002 250.313 339.071C252.561 340.345 254.201 342.605 254.261 344.605C254.282 345.256 254.104 345.898 253.752 346.444C253.345 346.318 252.911 346.31 252.498 346.42C252.086 346.53 251.71 346.754 251.414 347.067C251.022 347.418 250.734 347.873 250.581 348.38C250.429 348.887 250.419 349.426 250.552 349.937C250.685 350.448 250.956 350.911 251.334 351.272C251.712 351.634 252.183 351.88 252.693 351.984C253.331 352.105 253.992 351.993 254.559 351.666C255.126 351.34 255.562 350.821 255.789 350.202C256.576 349.488 257.201 348.61 257.621 347.628C258.041 346.646 258.246 345.585 258.221 344.517C258.093 341.06 255.741 337.52 252.164 335.543C251.005 334.915 249.755 334.474 248.46 334.236C245.708 333.766 242.887 333.879 240.173 334.567Z" fill="white"/>
</mask>
<g mask="url(#mask5_1182_11815)">
<path d="M236.549 318.698L208.617 361.101L248.64 388.16L276.571 345.757L236.549 318.698Z" fill="white"/>
</g>
<mask id="mask6_1182_11815" style="mask-type:luminance" maskUnits="userSpaceOnUse" x="218" y="330" width="20" height="15">
<path d="M229.656 330.281C228.002 330.071 226.32 330.297 224.772 330.938C223.224 331.578 221.862 332.612 220.817 333.939C219.376 335.62 218.59 337.776 218.608 339.998C218.418 340.302 218.286 340.64 218.218 340.993C218.123 341.481 218.158 341.984 218.319 342.452C218.48 342.92 218.761 343.336 219.133 343.655C219.506 343.975 219.956 344.187 220.438 344.27C220.919 344.354 221.415 344.305 221.873 344.129C222.331 343.953 222.736 343.657 223.045 343.27C223.354 342.883 223.557 342.421 223.632 341.929C223.707 341.438 223.652 340.936 223.472 340.475C223.293 340.015 222.995 339.612 222.61 339.308C222.753 338.281 223.186 337.316 223.856 336.53C224.469 335.748 225.267 335.135 226.173 334.747C227.08 334.36 228.067 334.21 229.043 334.313C230.686 334.572 232.264 335.142 233.696 335.993C235.029 335.17 236.448 334.501 237.926 334C235.718 332.164 233.086 330.926 230.275 330.399L229.656 330.281Z" fill="white"/>
</mask>
<g mask="url(#mask6_1182_11815)">
<path d="M221.63 325.287L214.835 342.66L234.155 350.353L240.95 332.98L221.63 325.287Z" fill="white"/>
</g>
<mask id="mask7_1182_11815" style="mask-type:luminance" maskUnits="userSpaceOnUse" x="212" y="349" width="19" height="32">
<path d="M214.272 358.952C214.085 359.321 213.918 359.7 213.771 360.086C213.756 360.14 213.745 360.195 213.739 360.251C213.202 361.603 212.823 363.013 212.611 364.452C212.528 364.886 212.445 365.319 212.456 365.759C212.19 368.8 212.72 371.853 213.994 374.608C214.658 375.98 215.635 377.17 216.843 378.081C218.051 378.993 219.456 379.599 220.943 379.85C221.257 379.91 221.572 379.97 221.876 380.028C223.865 380.257 225.877 379.81 227.598 378.758L227.648 378.768C228.175 378.872 228.722 378.816 229.22 378.608C229.718 378.4 230.146 378.049 230.451 377.598C230.756 377.147 230.925 376.615 230.937 376.07C230.948 375.524 230.802 374.988 230.517 374.527C230.231 374.067 229.818 373.702 229.329 373.479C228.84 373.255 228.297 373.183 227.766 373.27C227.235 373.357 226.74 373.6 226.342 373.969C225.943 374.338 225.66 374.817 225.526 375.347C224.527 375.896 223.38 376.098 222.261 375.921C221.282 375.862 220.334 375.553 219.507 375.021C218.68 374.489 218 373.752 217.532 372.878C216.847 371.409 216.437 369.823 216.322 368.199C216.309 367.758 216.32 367.318 216.354 366.878C217.867 367.786 219.523 368.425 221.251 368.766L221.86 368.882C224.361 369.363 226.934 369.331 229.429 368.788L227.472 366.04C226.836 364.689 226.936 365.104 225.919 365.198C224.647 365.277 223.372 365.156 222.138 364.839C220.317 364.521 218.581 363.825 217.039 362.796C217.042 362.75 217.051 362.705 217.065 362.662C217.128 362.332 217.28 362.029 217.394 361.709C217.4 361.653 217.41 361.598 217.426 361.544C218.69 358.475 220.847 355.868 223.606 354.073C223.595 352.449 223.77 350.828 224.129 349.243C219.823 351.2 216.331 354.64 214.272 358.952Z" fill="white"/>
</mask>
<g mask="url(#mask7_1182_11815)">
<path d="M216.076 346.3L208.028 377.188L229.79 382.901L237.838 352.013L216.076 346.3Z" fill="white"/>
</g>
</g>
</g>
<defs>
<clipPath id="clip0_1182_11815">
<rect width="437" height="437" fill="white" transform="translate(82.3833) rotate(10.8157)"/>
</clipPath>
<clipPath id="clip1_1182_11815">
<rect width="52.9697" height="52.9697" fill="white" transform="translate(211.671 325.347) rotate(10.8157)"/>
</clipPath>
</defs>
</svg>
