<svg width="352" height="377" viewBox="0 0 352 377" fill="none" xmlns="http://www.w3.org/2000/svg">
<mask id="mask0_521_3914" style="mask-type:luminance" maskUnits="userSpaceOnUse" x="241" y="54" width="69" height="91">
<path d="M241.221 69.8433C257.097 86.752 268.367 107.574 273.923 130.26C286.341 133.597 298.346 138.357 309.707 144.449C306.038 111.252 292.68 79.9321 271.355 54.5217C260.773 58.455 250.664 63.595 241.221 69.8433Z" fill="white"/>
</mask>
<g mask="url(#mask0_521_3914)">
<path d="M298.972 29.1139L209.02 68.7167L252.08 169.856L342.033 130.253L298.972 29.1139Z" fill="#00AF66"/>
</g>
<mask id="mask1_521_3914" style="mask-type:luminance" maskUnits="userSpaceOnUse" x="0" y="128" width="86" height="171">
<path d="M46.8964 134.696C32.0401 138.344 19.1523 147.705 10.9409 160.812C-3.95494 184.752 -3.61251 219.923 11.797 250.479C22.796 270.614 38.9859 287.319 58.6248 298.795C58.6073 288.129 59.6108 277.487 61.621 267.019C61.621 265.104 62.3915 263.189 62.9052 261.274C53.8634 254.221 46.3696 245.326 40.9038 235.157C31.0589 215.483 30.1172 192.152 38.5924 178.397C41.041 174.678 44.406 171.676 48.3518 169.692C52.2965 172.952 57.2229 174.734 62.3059 174.741C66.018 174.754 69.6769 173.844 72.964 172.09C76.2512 170.337 79.0668 167.792 81.1659 164.679C83.2649 161.565 84.5837 157.977 85.0073 154.227C85.431 150.477 84.9466 146.679 83.5965 143.162C82.2463 139.646 80.0713 136.519 77.2609 134.053C74.4504 131.587 71.0898 129.857 67.4715 129.013C63.8532 128.17 60.0871 128.239 56.501 129.214C52.9149 130.189 49.6177 132.041 46.8964 134.609" fill="white"/>
</mask>
<g mask="url(#mask1_521_3914)">
<path d="M83.3522 116.023L-27.0332 131.739L-2.30802 311.323L108.077 295.607L83.3522 116.023Z" fill="#00AF66"/>
</g>
<mask id="mask2_521_3914" style="mask-type:luminance" maskUnits="userSpaceOnUse" x="231" y="174" width="78" height="107">
<path d="M231.551 263.356L261.342 280.767C282.231 265.097 304.147 223.485 308.427 192.319L278.207 174.299C272.9 205.377 254.408 244.987 231.551 263.704" fill="white"/>
</mask>
<g mask="url(#mask2_521_3914)">
<path d="M265.638 135.134L179.201 233.58L274.287 319.912L360.723 221.466L265.638 135.134Z" fill="#00AF66"/>
</g>
<mask id="mask3_521_3914" style="mask-type:luminance" maskUnits="userSpaceOnUse" x="189" y="134" width="198" height="148">
<path d="M193.977 138.18C190.787 149.933 189.486 162.133 190.124 174.308C213.761 166.182 239.241 165.394 263.32 172.045C279.923 175.685 295.353 183.53 308.178 194.853C310.823 196.802 313.34 198.925 315.712 201.208C318.741 203.926 321.6 206.833 324.273 209.914C329.506 215.649 334.18 221.889 338.227 228.543C347.778 244.806 354.199 262.769 357.146 281.473C368.061 276.444 377.938 269.354 386.253 260.58C382.013 243.045 375.202 226.258 366.05 210.784C354.17 191.538 338.415 175.071 319.821 162.469C316.786 160.303 313.642 158.299 310.404 156.462C299.641 150.053 288.139 145.024 276.161 141.488C272.936 140.387 269.648 139.485 266.316 138.79C254.385 135.979 242.179 134.548 229.932 134.524C217.831 134.533 205.769 135.934 193.977 138.703" fill="white"/>
</mask>
<g mask="url(#mask3_521_3914)">
<path d="M223.804 58.0268L134.688 255.325L352.201 356.921L441.317 159.622L223.804 58.0268Z" fill="#00AF66"/>
</g>
<mask id="mask4_521_3914" style="mask-type:luminance" maskUnits="userSpaceOnUse" x="244" y="322" width="148" height="95">
<path d="M355.011 337.352C353.837 341.434 352.23 345.375 350.217 349.104C339.601 368.517 321.195 382.272 305.272 382.707C299.754 382.903 294.32 381.285 289.777 378.093C289.202 373.701 287.394 369.57 284.571 366.194C281.747 362.818 278.028 360.341 273.856 359.058C269.685 357.776 265.239 357.742 261.049 358.961C256.859 360.18 253.103 362.6 250.231 365.932C247.358 369.265 245.49 373.368 244.85 377.751C244.209 382.135 244.824 386.613 246.621 390.65C248.417 394.688 251.319 398.114 254.98 400.518C258.64 402.923 262.904 404.204 267.262 404.21H268.546C279.287 412.698 292.621 417.074 306.214 416.572C333.951 415.701 362.544 395.853 378.895 365.732C385.874 352.209 390.151 337.416 391.48 322.204C380.032 328.97 367.775 334.207 355.011 337.787" fill="white"/>
</mask>
<g mask="url(#mask4_521_3914)">
<path d="M286.889 254.109L202.254 389.204L349.039 484.297L433.674 349.202L286.889 254.109Z" fill="#00AF66"/>
</g>
<mask id="mask5_521_3914" style="mask-type:luminance" maskUnits="userSpaceOnUse" x="147" y="3" width="292" height="331">
<path d="M246.362 18.7334C242.938 20.3004 239.77 21.8674 236.603 23.5215C225.534 29.0991 215.087 35.8702 205.441 43.7182C203.044 45.8075 200.647 47.8969 198.422 49.9862C198.172 50.1959 197.943 50.4291 197.737 50.6826C171.762 75.774 154.82 109.004 149.625 145.05C149.026 148.881 148.597 152.711 148.341 156.629C147.317 169.741 147.921 182.932 150.138 195.89C150.566 199.46 151.337 203.029 152.022 206.598C158.134 232.922 170.61 257.279 188.32 277.461C189.433 278.68 190.46 279.898 191.573 281.03C192.762 282.4 194.02 283.707 195.34 284.948C204.083 293.816 213.79 301.644 224.275 308.278C227.372 310.36 230.572 312.277 233.863 314.024C257.745 327.047 284.411 333.893 311.51 333.96C323.678 333.938 335.801 332.477 347.637 329.607C350.976 328.736 354.4 327.866 357.739 326.734C369.811 322.755 381.322 317.195 391.982 310.194C395.149 308.155 398.206 305.946 401.142 303.577C407.52 298.737 413.477 293.349 418.949 287.472C428.056 276.936 434.35 264.199 437.228 250.48C440.106 236.761 439.472 222.521 435.385 209.123C430.957 192.569 421.151 178.026 407.563 167.859C405.982 163.988 403.398 160.626 400.086 158.131C396.774 155.636 392.858 154.102 388.756 153.692C384.654 153.283 380.52 154.013 376.794 155.805C373.068 157.598 369.891 160.385 367.6 163.869C365.31 167.354 363.992 171.405 363.788 175.591C363.584 179.777 364.5 183.941 366.441 187.639C368.381 191.337 371.272 194.43 374.805 196.589C378.338 198.747 382.381 199.89 386.503 199.895C388.713 199.83 390.904 199.449 393.009 198.763C398.111 204.119 401.844 210.665 403.882 217.828C406.226 225.318 406.782 233.268 405.501 241.02C404.221 248.771 401.142 256.101 396.519 262.4C396.081 263.125 395.564 263.796 394.978 264.403C393.009 266.492 390.955 268.581 388.814 270.496C379.947 278.864 369.723 285.609 358.595 290.432C355.684 291.738 352.688 292.957 350.034 294.001C337.697 298.188 324.772 300.305 311.767 300.269C295.68 300.325 279.72 297.374 264.682 291.564C261.429 290.258 258.176 288.865 254.923 287.298C244.518 282.236 234.817 275.796 226.073 268.146C223.59 266.057 221.108 263.793 218.796 261.443L215.629 258.135C197.547 238.589 185.933 213.78 182.413 187.185C181.887 183.93 181.573 180.644 181.471 177.348C180.651 165.143 181.603 152.881 184.296 140.959C184.981 137.389 185.923 133.82 186.95 130.251C193.432 108.954 205.229 89.7284 221.193 74.4486C223.077 72.6205 225.046 70.8794 227.186 69.1383C229.326 67.3972 232.066 65.3079 234.719 63.3926C244.19 56.7816 254.354 51.2632 265.025 46.9392C268.192 45.6334 271.445 44.4147 274.613 43.37C294.192 35.7965 315.579 34.4903 335.908 39.6266C356.198 46.504 373.062 62.348 376.658 78.5402C377.841 83.8013 377.393 89.3059 375.374 94.2972C371.866 93.9089 368.321 94.5169 365.132 96.0536C361.944 97.5904 359.236 99.9958 357.311 103.003C354.666 106.472 353.026 110.623 352.575 114.988C352.123 119.354 352.878 123.761 354.755 127.713C356.632 131.666 359.556 135.008 363.199 137.363C366.841 139.719 371.058 140.994 375.374 141.046C380.755 141.039 385.961 139.094 390.066 135.556C394.172 132.019 396.913 127.117 397.803 121.719C403.097 114.687 406.82 106.565 408.712 97.9204C410.605 89.2755 410.621 80.315 408.761 71.6629C402.341 43.7182 377.685 18.5593 345.497 8.02567C335.08 4.71557 324.221 3.07094 313.308 3.15059C290.176 3.60567 267.385 8.9106 246.362 18.7334Z" fill="white"/>
</mask>
<g mask="url(#mask5_521_3914)">
<path d="M192.179 -104.809L30.748 283.811L398.635 441.838L560.067 53.2192L192.179 -104.809Z" fill="#00AF66"/>
</g>
<mask id="mask6_521_3914" style="mask-type:luminance" maskUnits="userSpaceOnUse" x="77" y="0" width="151" height="129">
<path d="M154.081 0.19528C140.291 1.05612 126.951 5.51288 115.346 13.1364C103.741 20.76 94.2614 31.2935 87.8203 43.7228C78.7014 59.6453 75.6547 78.4204 79.2595 96.4781C78.1834 99.25 77.6316 102.204 77.6329 105.184C77.6195 109.302 78.6864 113.35 80.7237 116.909C82.761 120.469 85.695 123.411 89.2233 125.434C92.7515 127.456 96.7462 128.485 100.796 128.414C104.845 128.343 108.803 127.175 112.261 125.031C115.719 122.887 118.551 119.844 120.467 116.215C122.383 112.586 123.313 108.504 123.16 104.388C123.008 100.273 121.779 96.273 119.599 92.8014C117.42 89.3299 114.37 86.5121 110.763 84.6386C110.331 76.0554 112.353 67.5286 116.585 60.0891C120.363 52.7674 125.899 46.5346 132.679 41.9691C139.458 37.4035 147.262 34.653 155.365 33.9726C169.141 33.5215 182.876 35.7068 195.858 40.4147C205.425 31.6372 215.936 23.9859 227.191 17.6063C206.357 6.10131 183.011 0.113724 159.303 0.19528H154.081Z" fill="white"/>
</mask>
<g mask="url(#mask6_521_3914)">
<path d="M80.9805 -27.9765L52.6836 124.021L221.922 156.601L250.218 4.60397L80.9805 -27.9765Z" fill="#00AF66"/>
</g>
<mask id="mask7_521_3914" style="mask-type:luminance" maskUnits="userSpaceOnUse" x="68" y="163" width="169" height="255">
<path d="M73.4367 257.52C72.4949 260.814 71.7234 264.155 71.1252 267.531C71.0863 267.995 71.0863 268.461 71.1252 268.924C68.8522 280.761 67.9614 292.829 68.4714 304.878C68.4714 308.534 68.4714 312.19 69.2419 315.76C71.8064 340.926 80.8739 364.954 95.5236 385.404C103.069 395.536 112.868 403.707 124.118 409.245C135.367 414.783 147.748 417.532 160.244 417.266C162.897 417.266 165.551 417.266 168.119 417.266C184.667 416.035 200.35 409.27 212.721 398.027H213.149C217.6 398.052 221.961 396.751 225.693 394.284C229.424 391.817 232.363 388.291 234.145 384.144C235.928 379.996 236.476 375.409 235.722 370.948C234.968 366.487 232.945 362.349 229.903 359.045C226.861 355.74 222.934 353.415 218.606 352.356C214.279 351.297 209.741 351.551 205.554 353.087C201.367 354.623 197.714 357.372 195.047 360.996C192.381 364.62 190.817 368.959 190.549 373.477C183.271 379.502 174.247 382.928 164.866 383.227C156.801 384.277 148.605 383.23 141.044 380.186C133.484 377.141 126.806 372.197 121.634 365.816C113.774 354.925 107.969 342.646 104.512 329.601C103.722 326.039 103.122 322.435 102.715 318.807C116.446 323.844 130.921 326.465 145.519 326.554H150.655C171.761 326.578 192.658 322.316 212.122 314.019L191.919 294.692C184.642 284.681 186.097 287.902 177.964 290.253C167.732 292.87 157.164 293.868 146.632 293.212C131.307 293.451 116.097 290.488 101.944 284.507C101.899 284.131 101.899 283.751 101.944 283.375C101.944 280.589 102.715 277.891 103.143 275.105C103.104 274.642 103.104 274.176 103.143 273.712C108.661 246.767 122.165 222.188 141.838 203.285C139.22 190.082 138.128 176.613 138.585 163.152C106.576 185.782 83.4927 219.218 73.4367 257.52Z" fill="white"/>
</mask>
<g mask="url(#mask7_521_3914)">
<path d="M68.4511 151.725L50.9688 415.687L237.008 428.342L254.49 164.38L68.4511 151.725Z" fill="#00AF66"/>
</g>
</svg>
