<svg width="188" height="201" viewBox="0 0 188 201" fill="none" xmlns="http://www.w3.org/2000/svg">
<mask id="mask0_530_5026" style="mask-type:luminance" maskUnits="userSpaceOnUse" x="125" y="28" width="36" height="48">
<path d="M125.281 36.5063C133.527 45.2881 139.38 56.1024 142.266 67.8842C148.715 69.6175 154.95 72.09 160.851 75.2539C158.945 58.0126 152.007 41.7461 140.932 28.5488C135.436 30.5916 130.186 33.2612 125.281 36.5063Z" fill="white"/>
</mask>
<g mask="url(#mask0_530_5026)">
<path d="M155.273 15.353L108.555 35.9213L130.919 88.4493L177.637 67.8811L155.273 15.353Z" fill="#00AF66"/>
</g>
<mask id="mask1_530_5026" style="mask-type:luminance" maskUnits="userSpaceOnUse" x="0" y="66" width="45" height="90">
<path d="M24.3562 70.1883C16.6404 72.0827 9.947 76.9445 5.68229 83.7522C-2.05405 96.1858 -1.8762 114.452 6.12691 130.322C11.8394 140.779 20.2478 149.455 30.4475 155.415C30.4384 149.876 30.9596 144.349 32.0036 138.912C32.0036 137.917 32.4038 136.923 32.6706 135.928C27.9746 132.265 24.0826 127.645 21.2439 122.364C16.1308 112.146 15.6417 100.029 20.0434 92.8852C21.3151 90.9533 23.0628 89.3944 25.1121 88.3639C27.1608 90.0569 29.7194 90.9827 32.3593 90.9863C34.2872 90.993 36.1875 90.5204 37.8948 89.6095C39.602 88.6987 41.0643 87.3773 42.1545 85.7603C43.2447 84.1433 43.9296 82.2799 44.1496 80.3322C44.3696 78.3845 44.1181 76.4116 43.4168 74.5854C42.7156 72.7592 41.586 71.1349 40.1264 69.8542C38.6667 68.5734 36.9213 67.6749 35.0421 67.2369C33.1629 66.799 31.2069 66.8348 29.3445 67.3413C27.482 67.8478 25.7696 68.8096 24.3562 70.143" fill="white"/>
</mask>
<g mask="url(#mask1_530_5026)">
<path d="M43.291 60.4901L-14.0391 68.6523L-1.19774 161.921L56.1323 153.759L43.291 60.4901Z" fill="#00AF66"/>
</g>
<mask id="mask2_530_5026" style="mask-type:luminance" maskUnits="userSpaceOnUse" x="120" y="90" width="41" height="57">
<path d="M120.258 137.01L135.731 146.052C146.579 137.914 157.961 116.302 160.184 100.116L144.489 90.7567C141.733 106.898 132.129 127.47 120.258 137.19" fill="white"/>
</mask>
<g mask="url(#mask2_530_5026)">
<path d="M137.962 70.4159L93.0703 121.545L142.454 166.382L187.346 115.253L137.962 70.4159Z" fill="#00AF66"/>
</g>
<mask id="mask3_530_5026" style="mask-type:luminance" maskUnits="userSpaceOnUse" x="98" y="70" width="103" height="77">
<path d="M100.747 71.9979C99.0902 78.1019 98.4146 84.4381 98.746 90.7613C111.022 86.5407 124.255 86.1315 136.761 89.5858C145.384 91.4763 153.398 95.5509 160.059 101.432C161.432 102.444 162.739 103.546 163.971 104.732C165.545 106.144 167.029 107.654 168.417 109.253C171.136 112.232 173.563 115.473 175.665 118.929C180.625 127.375 183.96 136.705 185.491 146.419C191.16 143.807 196.289 140.125 200.608 135.567C198.405 126.461 194.868 117.742 190.115 109.706C183.945 99.71 175.762 91.1576 166.105 84.6123C164.529 83.4878 162.896 82.4466 161.215 81.4926C155.625 78.1643 149.651 75.5523 143.43 73.716C141.755 73.1438 140.048 72.6757 138.317 72.3144C132.12 70.8548 125.781 70.1116 119.421 70.0989C113.135 70.1034 106.871 70.8315 100.747 72.2692" fill="white"/>
</mask>
<g mask="url(#mask3_530_5026)">
<path d="M116.237 30.369L69.9531 132.838L182.921 185.603L229.205 83.1338L116.237 30.369Z" fill="#00AF66"/>
</g>
<mask id="mask4_530_5026" style="mask-type:luminance" maskUnits="userSpaceOnUse" x="127" y="167" width="77" height="50">
<path d="M184.38 175.44C183.771 177.561 182.936 179.607 181.891 181.544C176.377 191.626 166.818 198.77 158.548 198.996C155.682 199.098 152.86 198.258 150.501 196.6C150.202 194.318 149.263 192.173 147.797 190.42C146.33 188.667 144.398 187.38 142.232 186.714C140.065 186.048 137.756 186.03 135.58 186.663C133.404 187.296 131.454 188.553 129.962 190.284C128.47 192.015 127.499 194.146 127.167 196.422C126.834 198.699 127.154 201.025 128.087 203.121C129.02 205.218 130.527 206.998 132.428 208.246C134.329 209.495 136.544 210.161 138.807 210.164H139.474C145.052 214.572 151.977 216.845 159.037 216.584C173.443 216.132 188.293 205.823 196.785 190.18C200.41 183.157 202.631 175.473 203.321 167.573C197.376 171.087 191.01 173.807 184.38 175.666" fill="white"/>
</mask>
<g mask="url(#mask4_530_5026)">
<path d="M149.003 132.207L105.047 202.37L181.282 251.758L225.238 181.594L149.003 132.207Z" fill="#00AF66"/>
</g>
<mask id="mask5_530_5026" style="mask-type:luminance" maskUnits="userSpaceOnUse" x="76" y="1" width="152" height="173">
<path d="M127.949 9.96158C126.17 10.7754 124.525 11.5892 122.88 12.4483C117.131 15.3451 111.706 18.8618 106.696 22.9377C105.451 24.0228 104.206 25.108 103.05 26.1931C102.921 26.302 102.802 26.4231 102.694 26.5548C89.2044 39.5863 80.4054 56.8447 77.707 75.5657C77.3957 77.5551 77.1734 79.5445 77.04 81.5791C76.5084 88.389 76.8221 95.2399 77.9737 101.97C78.196 103.824 78.5962 105.678 78.9519 107.531C82.1264 121.203 88.6061 133.853 97.8037 144.335C98.3817 144.968 98.9152 145.601 99.4932 146.189C100.111 146.9 100.764 147.579 101.45 148.223C105.99 152.829 111.032 156.894 116.478 160.34C118.086 161.421 119.748 162.417 121.457 163.324C133.861 170.088 147.71 173.644 161.784 173.678C168.103 173.667 174.4 172.908 180.547 171.417C182.281 170.965 184.059 170.513 185.793 169.925C192.063 167.859 198.042 164.971 203.578 161.335C205.223 160.276 206.811 159.129 208.336 157.899C211.648 155.385 214.742 152.586 217.584 149.534C222.313 144.062 225.582 137.447 227.077 130.322C228.572 123.197 228.242 115.801 226.12 108.843C223.82 100.245 218.727 92.692 211.67 87.4116C210.849 85.4011 209.507 83.655 207.787 82.3592C206.067 81.0635 204.033 80.2669 201.903 80.0542C199.772 79.8415 197.625 80.2208 195.69 81.1516C193.755 82.0824 192.105 83.5299 190.915 85.3396C189.725 87.1493 189.041 89.2534 188.935 91.4276C188.829 93.6017 189.305 95.7644 190.313 97.6849C191.321 99.6054 192.822 101.212 194.657 102.333C196.492 103.454 198.592 104.047 200.733 104.05C201.88 104.016 203.018 103.819 204.112 103.462C206.761 106.244 208.7 109.644 209.758 113.364C210.976 117.254 211.265 121.383 210.6 125.409C209.935 129.435 208.335 133.241 205.935 136.513C205.707 136.889 205.439 137.238 205.134 137.553C204.112 138.638 203.045 139.723 201.933 140.718C197.328 145.064 192.018 148.567 186.238 151.072C184.726 151.75 183.17 152.383 181.792 152.925C175.385 155.1 168.672 156.199 161.917 156.181C153.563 156.209 145.274 154.677 137.464 151.659C135.774 150.981 134.084 150.258 132.395 149.444C126.991 146.815 121.952 143.47 117.411 139.497C116.122 138.412 114.832 137.236 113.632 136.016L111.987 134.298C102.596 124.146 96.564 111.261 94.7358 97.4489C94.4628 95.7586 94.2994 94.0519 94.2467 92.3398C93.8206 86.001 94.315 79.633 95.714 73.4407C96.0697 71.587 96.5587 69.7333 97.0923 67.8795C100.459 56.8187 106.586 46.8337 114.877 38.8979C115.855 37.9485 116.878 37.0442 117.989 36.1399C119.101 35.2357 120.524 34.1506 121.902 33.1559C126.82 29.7224 132.099 26.8563 137.641 24.6106C139.286 23.9324 140.976 23.2994 142.621 22.7569C152.79 18.8235 163.897 18.1451 174.456 20.8127C184.993 24.3845 193.752 32.6133 195.619 41.023C196.234 43.7554 196.001 46.6143 194.953 49.2065C193.131 49.0049 191.289 49.3206 189.633 50.1188C187.977 50.9169 186.571 52.1662 185.571 53.7278C184.198 55.5297 183.346 57.6854 183.111 59.9527C182.877 62.2199 183.269 64.5087 184.244 66.5616C185.219 68.6146 186.737 70.3503 188.629 71.5735C190.521 72.7968 192.711 73.4591 194.953 73.4859C197.747 73.4824 200.451 72.4723 202.583 70.635C204.716 68.7976 206.139 66.2517 206.602 63.4486C209.351 59.7962 211.284 55.5781 212.267 51.0883C213.25 46.5984 213.259 41.9447 212.293 37.4511C208.958 22.9377 196.153 9.87115 179.435 4.40037C174.025 2.68123 168.386 1.82707 162.718 1.86844C150.704 2.10479 138.867 4.85997 127.949 9.96158Z" fill="white"/>
</mask>
<g mask="url(#mask5_530_5026)">
<path d="M99.8061 -54.2014L15.9648 147.633L207.032 229.706L290.873 27.8723L99.8061 -54.2014Z" fill="#00AF66"/>
</g>
<mask id="mask6_530_5026" style="mask-type:luminance" maskUnits="userSpaceOnUse" x="40" y="0" width="78" height="67">
<path d="M80.0247 0.33374C72.8627 0.780827 65.9345 3.0955 59.9072 7.05489C53.8799 11.0143 48.9566 16.485 45.6113 22.9403C40.8753 31.2098 39.293 40.9609 41.1652 50.3394C40.6063 51.779 40.3197 53.313 40.3204 54.8607C40.3134 56.9997 40.8675 59.1019 41.9256 60.9505C42.9837 62.7992 44.5075 64.3275 46.34 65.3778C48.1724 66.428 50.2471 66.9624 52.3502 66.9256C54.4534 66.8889 56.5089 66.2824 58.3047 65.1688C60.1006 64.0551 61.5719 62.4745 62.567 60.59C63.562 58.7055 64.0448 56.5852 63.9656 54.4477C63.8863 52.3102 63.2479 50.2329 62.1162 48.4299C60.9844 46.6269 59.4003 45.1634 57.5271 44.1904C57.3025 39.7326 58.3526 35.3041 60.5505 31.4403C62.5129 27.6377 65.388 24.4007 68.909 22.0295C72.43 19.6583 76.4828 18.2298 80.6916 17.8764C87.846 17.6421 94.9799 18.7771 101.722 21.2222C106.691 16.6635 112.15 12.6897 117.995 9.37635C107.175 3.40111 95.0496 0.291383 82.7369 0.33374H80.0247Z" fill="white"/>
</mask>
<g mask="url(#mask6_530_5026)">
<path d="M42.0596 -14.2976L27.3633 64.6439L115.259 81.5649L129.955 2.62343L42.0596 -14.2976Z" fill="#00AF66"/>
</g>
<mask id="mask7_530_5026" style="mask-type:luminance" maskUnits="userSpaceOnUse" x="35" y="84" width="88" height="133">
<path d="M38.1394 133.978C37.6503 135.689 37.2496 137.425 36.939 139.178C36.9188 139.419 36.9188 139.661 36.939 139.901C35.7584 146.049 35.2958 152.317 35.5607 158.574C35.5607 160.473 35.5607 162.372 35.9608 164.226C37.2927 177.296 42.002 189.775 49.6106 200.396C53.5293 205.659 58.6185 209.902 64.4612 212.779C70.3039 215.655 76.7337 217.083 83.2236 216.944C84.6019 216.944 85.9803 216.944 87.3141 216.944C95.9085 216.305 104.053 212.792 110.479 206.952H110.701C113.013 206.966 115.277 206.29 117.215 205.009C119.154 203.727 120.68 201.896 121.606 199.742C122.531 197.588 122.816 195.205 122.424 192.889C122.033 190.572 120.982 188.423 119.402 186.707C117.822 184.99 115.783 183.783 113.535 183.233C111.288 182.683 108.931 182.815 106.756 183.612C104.582 184.41 102.685 185.838 101.299 187.72C99.9145 189.602 99.1022 191.856 98.9631 194.202C95.1831 197.332 90.4964 199.111 85.6246 199.266C81.4355 199.811 77.1789 199.268 73.2524 197.686C69.3259 196.105 65.8575 193.537 63.1714 190.223C59.0892 184.567 56.0741 178.19 54.279 171.415C53.8685 169.565 53.5568 167.693 53.3454 165.808C60.4769 168.425 67.9949 169.786 75.5762 169.832H78.2439C89.2052 169.844 100.058 167.631 110.167 163.322L99.6745 153.284C95.8952 148.085 96.6511 149.758 92.4272 150.979C87.1127 152.338 81.624 152.856 76.1542 152.516C68.1951 152.64 60.2957 151.101 52.9452 147.994C52.9215 147.799 52.9215 147.602 52.9452 147.407C52.9452 145.96 53.3454 144.558 53.5677 143.111C53.5474 142.871 53.5474 142.629 53.5677 142.388C56.4336 128.394 63.4473 115.628 73.6644 105.811C72.3047 98.9536 71.7377 91.9584 71.9748 84.9675C55.3507 96.7205 43.3621 114.086 38.1394 133.978Z" fill="white"/>
</mask>
<g mask="url(#mask7_530_5026)">
<path d="M35.5484 79.0324L26.4688 216.124L123.09 222.697L132.17 85.605L35.5484 79.0324Z" fill="#00AF66"/>
</g>
</svg>
