<svg width="187" height="338" viewBox="0 0 187 338" fill="none" xmlns="http://www.w3.org/2000/svg">
<path d="M271 54.4444C271 54.4444 259.88 258.88 135.536 338C11.1202 258.844 0 54.4444 0 54.4444C78.8882 54.4444 135.536 0 135.536 0C135.536 0 192.112 54.4444 271 54.4444Z" fill="#E6E6E6"/>
<path d="M259.666 64.0195C259.666 64.0195 249.485 251.347 135.539 323.904C21.5213 251.347 11.3398 64.0195 11.3398 64.0195C83.5488 64.0195 135.539 14.0942 135.539 14.0942C135.539 14.0942 187.385 64.0195 259.666 64.0195Z" fill="#50BB87"/>
<path d="M259.674 64.0187C259.674 64.0187 249.493 251.346 135.547 323.867V14.1292C135.547 14.1292 187.393 64.0187 259.674 64.0187Z" fill="#00AF66"/>
<g clip-path="url(#clip0_521_4032)">
<mask id="mask0_521_4032" style="mask-type:luminance" maskUnits="userSpaceOnUse" x="138" y="117" width="16" height="21">
<path d="M138.059 120.797C141.601 124.542 144.116 129.153 145.356 134.177C148.127 134.916 150.806 135.97 153.341 137.319C152.523 129.967 149.542 123.031 144.783 117.404C142.422 118.275 140.166 119.413 138.059 120.797Z" fill="white"/>
</mask>
<g mask="url(#mask0_521_4032)">
<path d="M150.946 111.777L130.873 120.547L140.482 142.946L160.555 134.175L150.946 111.777Z" fill="white"/>
</g>
<mask id="mask1_521_4032" style="mask-type:luminance" maskUnits="userSpaceOnUse" x="84" y="133" width="20" height="39">
<path d="M94.6954 135.159C91.3802 135.967 88.5043 138.04 86.6719 140.943C83.3479 146.245 83.4243 154.033 86.863 160.8C89.3174 165.259 92.9302 168.959 97.3126 171.5C97.3087 169.138 97.5326 166.782 97.9812 164.463C97.9812 164.039 98.1531 163.615 98.2678 163.191C96.2501 161.629 94.5779 159.659 93.3582 157.407C91.1613 153.05 90.9511 147.883 92.8424 144.837C93.3888 144.013 94.1397 143.349 95.0202 142.909C95.9004 143.631 96.9998 144.026 98.134 144.028C98.9624 144.03 99.7789 143.829 100.512 143.44C101.246 143.052 101.874 142.489 102.343 141.799C102.811 141.11 103.105 140.315 103.2 139.485C103.294 138.654 103.186 137.813 102.885 137.034C102.584 136.255 102.098 135.563 101.471 135.017C100.844 134.471 100.094 134.087 99.2867 133.901C98.4793 133.714 97.6389 133.729 96.8387 133.945C96.0384 134.161 95.3027 134.571 94.6954 135.14" fill="white"/>
</mask>
<g mask="url(#mask1_521_4032)">
<path d="M102.83 131.024L78.1973 134.504L83.7147 174.275L108.347 170.794L102.83 131.024Z" fill="white"/>
</g>
<mask id="mask2_521_4032" style="mask-type:luminance" maskUnits="userSpaceOnUse" x="135" y="143" width="19" height="25">
<path d="M135.9 163.652L142.548 167.508C147.21 164.038 152.1 154.822 153.055 147.92L146.312 143.93C145.127 150.812 141.001 159.584 135.9 163.729" fill="white"/>
</mask>
<g mask="url(#mask2_521_4032)">
<path d="M143.507 135.256L124.219 157.058L145.437 176.177L164.725 154.375L143.507 135.256Z" fill="white"/>
</g>
<mask id="mask3_521_4032" style="mask-type:luminance" maskUnits="userSpaceOnUse" x="126" y="135" width="45" height="33">
<path d="M127.516 135.931C126.804 138.534 126.514 141.235 126.656 143.932C131.931 142.132 137.617 141.957 142.99 143.43C146.695 144.236 150.138 145.974 153 148.481C153.59 148.913 154.152 149.383 154.681 149.889C155.357 150.491 155.995 151.135 156.591 151.817C157.759 153.087 158.802 154.469 159.705 155.942C161.837 159.544 163.269 163.522 163.927 167.664C166.363 166.551 168.567 164.98 170.422 163.037C169.476 159.154 167.956 155.436 165.914 152.01C163.263 147.747 159.747 144.101 155.598 141.31C154.921 140.83 154.219 140.386 153.497 139.979C151.095 138.56 148.528 137.446 145.855 136.663C145.136 136.419 144.402 136.22 143.658 136.066C140.996 135.443 138.272 135.126 135.539 135.121C132.839 135.123 130.147 135.433 127.516 136.046" fill="white"/>
</mask>
<g mask="url(#mask3_521_4032)">
<path d="M134.171 118.18L114.285 161.874L162.823 184.373L182.71 140.679L134.171 118.18Z" fill="white"/>
</g>
<mask id="mask4_521_4032" style="mask-type:luminance" maskUnits="userSpaceOnUse" x="138" y="176" width="34" height="22">
<path d="M163.452 180.039C163.19 180.943 162.831 181.816 162.382 182.642C160.013 186.941 155.906 189.987 152.353 190.083C151.121 190.127 149.909 189.768 148.895 189.062C148.767 188.089 148.363 187.174 147.733 186.426C147.103 185.679 146.273 185.13 145.342 184.846C144.411 184.562 143.419 184.555 142.484 184.825C141.549 185.095 140.711 185.631 140.07 186.368C139.429 187.106 139.012 188.015 138.869 188.986C138.727 189.957 138.864 190.948 139.265 191.842C139.665 192.737 140.313 193.495 141.13 194.028C141.947 194.56 142.898 194.844 143.871 194.845H144.157C146.554 196.725 149.529 197.694 152.563 197.583C158.752 197.39 165.133 192.995 168.782 186.324C170.339 183.329 171.293 180.053 171.59 176.684C169.035 178.183 166.3 179.343 163.452 180.135" fill="white"/>
</mask>
<g mask="url(#mask4_521_4032)">
<path d="M148.25 161.604L129.363 191.522L162.118 212.581L181.005 182.663L148.25 161.604Z" fill="white"/>
</g>
<mask id="mask5_521_4032" style="mask-type:luminance" maskUnits="userSpaceOnUse" x="117" y="106" width="66" height="74">
<path d="M139.206 109.478C138.442 109.825 137.735 110.172 137.028 110.539C134.558 111.774 132.227 113.273 130.074 115.011C129.54 115.474 129.005 115.937 128.508 116.399C128.452 116.446 128.401 116.498 128.355 116.554C122.559 122.11 118.778 129.469 117.619 137.452C117.485 138.3 117.39 139.149 117.332 140.016C117.104 142.92 117.239 145.841 117.734 148.711C117.829 149.502 118.001 150.292 118.154 151.083C119.518 156.912 122.302 162.306 126.254 166.776C126.502 167.046 126.731 167.316 126.98 167.566C127.245 167.87 127.526 168.159 127.82 168.434C129.771 170.398 131.938 172.131 134.277 173.601C134.968 174.061 135.682 174.486 136.417 174.873C141.746 177.757 147.697 179.273 153.744 179.288C156.459 179.283 159.164 178.96 161.805 178.324C162.55 178.131 163.315 177.938 164.06 177.688C166.753 176.806 169.322 175.575 171.701 174.025C172.408 173.573 173.09 173.084 173.745 172.559C175.168 171.488 176.498 170.294 177.719 168.993C179.751 166.66 181.155 163.839 181.798 160.801C182.44 157.762 182.298 154.609 181.386 151.642C180.398 147.976 178.21 144.755 175.178 142.503C174.825 141.646 174.249 140.901 173.509 140.349C172.77 139.796 171.897 139.457 170.981 139.366C170.066 139.275 169.143 139.437 168.312 139.834C167.48 140.231 166.771 140.848 166.26 141.62C165.749 142.391 165.455 143.289 165.409 144.216C165.364 145.143 165.569 146.065 166.001 146.884C166.434 147.703 167.08 148.388 167.868 148.866C168.656 149.344 169.559 149.597 170.478 149.598C170.972 149.584 171.46 149.499 171.93 149.347C173.069 150.534 173.902 151.983 174.356 153.57C174.88 155.228 175.004 156.989 174.718 158.705C174.432 160.422 173.745 162.045 172.713 163.44C172.616 163.601 172.5 163.75 172.37 163.884C171.93 164.347 171.472 164.809 170.994 165.233C169.015 167.087 166.734 168.58 164.251 169.648C163.601 169.937 162.932 170.207 162.34 170.439C159.587 171.366 156.703 171.835 153.801 171.827C150.211 171.839 146.65 171.186 143.294 169.899C142.568 169.61 141.842 169.301 141.116 168.954C138.794 167.833 136.63 166.407 134.678 164.713C134.124 164.25 133.57 163.749 133.055 163.228L132.348 162.496C128.313 158.167 125.721 152.673 124.936 146.783C124.818 146.063 124.748 145.335 124.725 144.605C124.542 141.902 124.755 139.187 125.356 136.546C125.509 135.756 125.719 134.965 125.948 134.175C127.394 129.458 130.027 125.201 133.59 121.817C134.01 121.412 134.449 121.026 134.927 120.641C135.404 120.255 136.016 119.793 136.608 119.368C138.721 117.904 140.989 116.682 143.371 115.725C144.077 115.435 144.803 115.166 145.51 114.934C149.879 113.257 154.652 112.968 159.188 114.105C163.716 115.628 167.479 119.137 168.281 122.723C168.546 123.888 168.445 125.107 167.995 126.212C167.212 126.127 166.421 126.261 165.709 126.601C164.998 126.942 164.394 127.475 163.964 128.14C163.374 128.909 163.008 129.828 162.907 130.795C162.807 131.761 162.975 132.737 163.394 133.613C163.813 134.488 164.465 135.228 165.278 135.75C166.091 136.272 167.032 136.554 167.995 136.565C169.196 136.564 170.357 136.133 171.274 135.35C172.19 134.566 172.801 133.481 173 132.285C174.181 130.728 175.012 128.929 175.434 127.015C175.857 125.1 175.86 123.116 175.445 121.2C174.013 115.011 168.511 109.44 161.328 107.107C159.003 106.374 156.58 106.01 154.145 106.027C148.983 106.128 143.897 107.303 139.206 109.478Z" fill="white"/>
</mask>
<g mask="url(#mask5_521_4032)">
<path d="M127.115 82.1187L91.0918 168.182L173.186 203.179L209.209 117.115L127.115 82.1187Z" fill="white"/>
</g>
<mask id="mask6_521_4032" style="mask-type:luminance" maskUnits="userSpaceOnUse" x="101" y="105" width="34" height="29">
<path d="M118.614 105.373C115.537 105.563 112.56 106.55 109.97 108.239C107.381 109.927 105.265 112.26 103.828 115.012C101.793 118.539 101.113 122.696 101.918 126.695C101.678 127.309 101.554 127.963 101.555 128.623C101.552 129.535 101.79 130.432 102.244 131.22C102.699 132.008 103.354 132.66 104.141 133.108C104.928 133.556 105.82 133.784 106.723 133.768C107.627 133.752 108.51 133.494 109.282 133.019C110.054 132.544 110.686 131.87 111.113 131.066C111.541 130.263 111.748 129.359 111.714 128.447C111.68 127.536 111.406 126.65 110.92 125.881C110.433 125.112 109.753 124.488 108.948 124.074C108.851 122.173 109.302 120.284 110.247 118.637C111.09 117.015 112.325 115.635 113.838 114.624C115.351 113.613 117.092 113.004 118.901 112.853C121.975 112.753 125.04 113.237 127.937 114.28C130.072 112.336 132.417 110.641 134.929 109.229C130.279 106.681 125.07 105.355 119.779 105.373H118.614Z" fill="white"/>
</mask>
<g mask="url(#mask6_521_4032)">
<path d="M102.303 99.1339L95.9883 132.795L133.754 140.01L140.068 106.349L102.303 99.1339Z" fill="white"/>
</g>
<mask id="mask7_521_4032" style="mask-type:luminance" maskUnits="userSpaceOnUse" x="99" y="141" width="38" height="57">
<path d="M100.618 162.36C100.407 163.089 100.235 163.829 100.102 164.577C100.093 164.679 100.093 164.783 100.102 164.885C99.5946 167.506 99.3958 170.179 99.5096 172.847C99.5096 173.657 99.5096 174.467 99.6815 175.257C100.254 180.831 102.277 186.152 105.546 190.681C107.23 192.925 109.417 194.734 111.927 195.96C114.437 197.187 117.2 197.796 119.989 197.737C120.581 197.737 121.173 197.737 121.746 197.737C125.439 197.464 128.938 195.966 131.699 193.476H131.795C132.788 193.482 133.761 193.194 134.594 192.647C135.426 192.101 136.082 191.32 136.48 190.402C136.878 189.483 137 188.467 136.832 187.479C136.663 186.491 136.212 185.575 135.533 184.843C134.854 184.111 133.978 183.596 133.012 183.362C132.047 183.127 131.034 183.184 130.1 183.524C129.165 183.864 128.35 184.473 127.755 185.275C127.16 186.078 126.811 187.039 126.751 188.039C125.127 189.374 123.113 190.132 121.02 190.199C119.22 190.431 117.391 190.199 115.704 189.525C114.017 188.851 112.527 187.756 111.373 186.343C109.619 183.931 108.323 181.211 107.552 178.323C107.376 177.534 107.242 176.736 107.151 175.932C110.215 177.048 113.445 177.628 116.703 177.648H117.849C122.559 177.653 127.222 176.709 131.565 174.872L127.057 170.592C125.433 168.375 125.758 169.088 123.943 169.609C121.66 170.188 119.301 170.409 116.951 170.264C113.531 170.317 110.137 169.661 106.979 168.336C106.969 168.253 106.969 168.169 106.979 168.085C106.979 167.469 107.151 166.871 107.247 166.254C107.238 166.151 107.238 166.048 107.247 165.946C108.478 159.978 111.491 154.535 115.881 150.349C115.297 147.425 115.053 144.442 115.155 141.461C108.013 146.473 102.862 153.877 100.618 162.36Z" fill="white"/>
</mask>
<g mask="url(#mask7_521_4032)">
<path d="M99.5047 138.93L95.6035 197.387L137.118 200.19L141.019 141.733L99.5047 138.93Z" fill="white"/>
</g>
</g>
<defs>
<clipPath id="clip0_521_4032">
<rect width="97.9628" height="97.2204" fill="white" transform="translate(84.2305 102.672)"/>
</clipPath>
</defs>
</svg>
