<svg width="211" height="211" viewBox="0 0 211 211" fill="none" xmlns="http://www.w3.org/2000/svg">
<g clip-path="url(#clip0_981_15498)">
<path d="M210.655 44.5169L44.5156 0L-0.00125051 166.139L166.138 210.656L210.655 44.5169Z" fill="white"/>
<path d="M107.451 159.858C116.563 151.725 117.357 137.745 109.224 128.633C101.091 119.521 87.1113 118.727 77.9991 126.86C68.8869 134.993 68.0931 148.973 76.226 158.085C84.3589 167.197 98.3389 167.991 107.451 159.858Z" fill="#50BB87"/>
<path d="M104.963 157.047C112.524 150.29 113.175 138.684 106.417 131.123C99.6602 123.563 88.0537 122.912 80.4935 129.67C72.9334 136.427 72.2825 148.033 79.0396 155.593C85.7968 163.153 97.4033 163.804 104.963 157.047Z" fill="#50BB87"/>
<path d="M75.6034 139.655C76.5291 136.197 78.4458 133.085 81.1174 130.702C83.789 128.319 87.099 126.769 90.6401 126.244C94.1811 125.718 97.7985 126.239 101.047 127.743C104.296 129.246 107.034 131.667 108.925 134.707C107.766 132.534 106.181 130.616 104.266 129.068C102.35 127.519 100.143 126.372 97.7747 125.695C95.4067 125.017 92.9266 124.823 90.4821 125.124C88.0375 125.425 85.6785 126.215 83.5454 127.446C81.4123 128.677 79.5488 130.325 78.0658 132.292C76.5828 134.258 75.5107 136.503 74.9132 138.893C74.3157 141.282 74.2051 143.767 74.5879 146.2C74.9708 148.633 75.8393 150.964 77.1417 153.055C74.9409 148.947 74.3907 144.154 75.6034 139.655Z" fill="#064F58"/>
<path d="M78.9946 44.0108C78.5035 43.1476 78.3682 42.127 78.6172 41.1657C78.8663 40.2043 79.4801 39.3778 80.3284 38.8616C95.1351 29.7788 111.464 26.5135 127.368 30.7749C150.024 36.8454 164.702 53.5536 158.542 76.5437C152.611 98.6805 124.075 96.8755 121.337 107.093L119.814 112.777C119.552 113.754 118.913 114.587 118.037 115.092C117.162 115.598 116.121 115.735 115.144 115.473L90.8327 108.959C89.8565 108.696 89.0245 108.057 88.5194 107.182C88.0144 106.306 87.8776 105.266 88.1392 104.29L90.8028 94.3492C95.0009 78.6817 124.449 77.0809 126.959 67.7142C128.693 61.2448 122.463 57.9325 116.502 56.3353C110.181 54.6416 101.161 57.9389 93.9111 62.2584C93.4758 62.5197 92.9928 62.6915 92.4903 62.7639C91.9878 62.8362 91.4759 62.8076 90.9846 62.6797C90.4933 62.5518 90.0324 62.3273 89.629 62.0191C89.2255 61.711 88.8875 61.3255 88.6349 60.8851L78.9946 44.0108Z" fill="#50BB87"/>
<path d="M91.4894 106.509C91.1628 106.421 90.8846 106.207 90.7158 105.914C90.547 105.621 90.5014 105.273 90.5889 104.946L93.2525 95.0055C95.2983 87.3706 105.026 83.2862 113.618 79.6878C121.329 76.4525 127.992 73.6593 129.408 68.373C130.25 65.2315 130.741 57.5281 117.158 53.8885C108.348 51.5278 97.0529 57.4317 92.6143 60.0816C92.4642 60.172 92.2975 60.2311 92.1241 60.2556C91.9506 60.28 91.774 60.2693 91.6049 60.2239C91.4437 60.1807 91.2927 60.1059 91.1608 60.0039C91.0288 59.9018 90.9184 59.7745 90.836 59.6294L81.1978 42.7475C81.0349 42.4556 80.9921 42.1117 81.0786 41.7888C81.1652 41.4659 81.3741 41.1895 81.6612 41.0181C96.4045 31.9805 111.987 29.2759 126.713 33.2217C137.754 36.1801 146.399 41.5724 151.711 48.8234C157.287 56.4202 158.801 65.7807 156.091 75.8975C152.885 87.8621 142.409 92.1185 133.163 95.876C126.272 98.6756 120.319 101.095 118.885 106.447L117.362 112.131C117.274 112.458 117.06 112.736 116.767 112.905C116.474 113.075 116.125 113.121 115.798 113.034L91.4894 106.509Z" fill="#064F58"/>
<path d="M93.2568 107.76C92.93 107.672 92.6515 107.457 92.4823 107.164C92.3131 106.871 92.2669 106.523 92.3538 106.196L95.0147 96.2652C97.0604 88.6304 106.788 84.546 115.38 80.9475C123.094 77.713 129.756 74.9115 131.172 69.6252C132.014 66.4837 132.508 58.781 118.922 55.1407C110.112 52.78 98.8171 58.6839 94.3785 61.3338C94.2288 61.424 94.0625 61.4831 93.8896 61.5076C93.7166 61.5322 93.5404 61.5217 93.3716 61.4768C93.21 61.4337 93.0585 61.3589 92.9261 61.2567C92.7937 61.1545 92.6829 61.027 92.6003 60.8816L82.9552 44.0249C82.7916 43.7331 82.7485 43.389 82.8351 43.0659C82.9217 42.7429 83.1311 42.4664 83.4186 42.2955C98.1704 33.2466 113.751 30.5496 128.477 34.4954C139.518 37.4538 148.166 42.8468 153.478 50.0978C159.054 57.6921 160.568 67.0551 157.857 77.1719C154.651 89.1365 144.173 93.3922 134.929 97.1504C128.036 99.9493 122.083 102.369 120.649 107.721L119.126 113.405C119.039 113.731 118.825 114.01 118.532 114.179C118.24 114.349 117.892 114.395 117.565 114.308L93.2568 107.76Z" fill="#50BB87"/>
<path d="M119.147 159.483C119.059 159.43 118.953 159.413 118.853 159.437C118.753 159.461 118.666 159.522 118.611 159.609C116.291 163.442 113.11 166.681 109.322 169.073C105.534 171.464 101.241 172.942 96.7832 173.388C96.6926 173.398 96.6082 173.439 96.5445 173.504C96.4809 173.569 96.442 173.655 96.4346 173.746C96.4273 173.836 96.4519 173.927 96.5041 174.002C96.5564 174.076 96.6331 174.13 96.721 174.154C96.7666 174.166 96.8142 174.17 96.8611 174.165C101.438 173.705 105.845 172.186 109.735 169.73C113.624 167.273 116.888 163.945 119.27 160.01C119.321 159.923 119.336 159.82 119.313 159.722C119.29 159.624 119.231 159.539 119.147 159.483Z" fill="#064F58"/>
<path d="M84.8903 173.618C78.9235 172.03 73.5621 168.707 69.4849 164.07C65.4078 159.433 62.7983 153.69 61.9869 147.569C61.9712 147.469 61.9166 147.378 61.8348 147.317C61.753 147.255 61.6506 147.229 61.5493 147.242C61.448 147.255 61.356 147.308 61.293 147.388C61.23 147.469 61.2009 147.571 61.212 147.672C62.0434 153.946 64.718 159.833 68.897 164.586C73.0761 169.339 78.5717 172.745 84.6879 174.373C84.7881 174.4 84.8948 174.386 84.9846 174.334C85.0743 174.282 85.1399 174.197 85.1667 174.096C85.1935 173.996 85.1795 173.89 85.1276 173.8C85.0758 173.71 84.9904 173.644 84.8903 173.618Z" fill="#064F58"/>
<path d="M134.209 130.952C134.236 130.852 134.222 130.745 134.17 130.655C134.118 130.566 134.033 130.5 133.933 130.473L120.251 126.807C120.176 126.789 120.098 126.793 120.025 126.819C119.953 126.845 119.89 126.892 119.844 126.955C119.799 127.017 119.773 127.091 119.769 127.168C119.766 127.245 119.786 127.321 119.826 127.387C123.517 133.569 124.964 140.834 123.924 147.959C123.91 148.054 123.931 148.151 123.984 148.231C124.036 148.311 124.117 148.369 124.21 148.394L124.252 148.406C124.355 148.421 124.459 148.395 124.543 148.333C124.626 148.272 124.681 148.179 124.697 148.077C125.718 141.096 124.408 133.973 120.97 127.812L133.73 131.231C133.779 131.244 133.831 131.248 133.882 131.241C133.934 131.234 133.983 131.217 134.027 131.191C134.072 131.165 134.111 131.131 134.142 131.09C134.173 131.049 134.196 131.002 134.209 130.952Z" fill="#064F58"/>
<path d="M135.115 152.409C134.614 152.275 134.082 152.322 133.613 152.541C133.144 152.761 132.767 153.139 132.549 153.61L119.101 150.006C120.081 146.125 120.183 142.074 119.398 138.149C118.614 134.223 116.964 130.522 114.567 127.315L125.036 121.271L134.554 123.821C134.508 124.37 134.669 124.915 135.006 125.35C135.342 125.786 135.829 126.08 136.371 126.174C136.912 126.269 137.47 126.157 137.934 125.861C138.397 125.565 138.733 125.106 138.876 124.575C139.018 124.043 138.956 123.478 138.703 122.99C138.449 122.502 138.022 122.126 137.506 121.937C136.989 121.748 136.421 121.759 135.912 121.968C135.403 122.177 134.991 122.569 134.757 123.066L125.08 120.474C124.98 120.448 124.874 120.462 124.784 120.513L114.087 126.69C110.99 122.774 106.865 119.795 102.172 118.088C97.4797 116.382 92.405 116.013 87.5151 117.025C82.6253 118.036 78.1131 120.388 74.4829 123.816C70.8526 127.245 68.2474 131.615 66.9583 136.439C66.899 136.661 66.8403 136.88 66.7823 137.096L63.5589 138.977L59.8837 137.992C59.7836 137.965 59.6769 137.979 59.5871 138.031C59.4973 138.083 59.4318 138.168 59.4049 138.268C59.3781 138.368 59.3922 138.475 59.444 138.565C59.4958 138.655 59.5812 138.72 59.6814 138.747L63.5076 139.772C63.6077 139.799 63.7144 139.785 63.8041 139.733L66.5643 138.141C66.21 139.908 66.0338 141.705 66.0385 143.507L54.4415 140.4C54.3413 140.373 54.2346 140.387 54.1448 140.439C54.055 140.491 53.9895 140.576 53.9627 140.676C53.9359 140.776 53.9499 140.883 54.0017 140.973C54.0536 141.063 54.139 141.128 54.2391 141.155L66.0576 144.322C66.2587 150.092 68.3052 155.646 71.8965 160.168C75.4878 164.689 80.4346 167.94 86.01 169.441C86.312 169.522 86.6116 169.603 86.9159 169.665C86.9165 169.729 86.933 169.792 86.964 169.848L90.1821 175.418C90.2339 175.508 90.3192 175.574 90.4193 175.601L102.676 178.885C102.631 179.431 102.791 179.974 103.126 180.408C103.461 180.842 103.947 181.134 104.487 181.228C105.026 181.322 105.582 181.21 106.044 180.915C106.506 180.62 106.84 180.163 106.982 179.634C107.124 179.105 107.063 178.541 106.81 178.055C106.558 177.569 106.132 177.194 105.618 177.006C105.103 176.817 104.537 176.828 104.03 177.036C103.523 177.244 103.112 177.634 102.878 178.13L90.7777 174.887L87.8809 169.87C94.0847 171.058 100.509 170.031 106.033 166.97C111.558 163.908 115.834 159.005 118.115 153.114L125.453 155.081L128.251 159.931C128.303 160.021 128.388 160.087 128.488 160.113C128.588 160.14 128.695 160.126 128.785 160.074C128.829 160.049 128.869 160.015 128.9 159.974C128.931 159.934 128.954 159.887 128.968 159.837C128.981 159.788 128.984 159.736 128.977 159.685C128.971 159.634 128.954 159.585 128.928 159.541L126.048 154.55C125.996 154.46 125.911 154.395 125.811 154.367L118.388 152.378C118.572 151.85 118.742 151.316 118.897 150.769L132.349 154.374C132.317 154.791 132.404 155.208 132.6 155.578C132.797 155.947 133.094 156.253 133.458 156.459C133.822 156.666 134.237 156.764 134.655 156.743C135.073 156.722 135.476 156.583 135.817 156.341C136.159 156.099 136.424 155.765 136.583 155.378C136.741 154.991 136.786 154.566 136.712 154.155C136.638 153.743 136.449 153.361 136.165 153.053C135.882 152.745 135.517 152.524 135.113 152.416L135.115 152.409ZM137.113 122.64C137.384 122.713 137.628 122.864 137.813 123.075C137.998 123.287 138.117 123.548 138.153 123.827C138.19 124.105 138.143 124.388 138.019 124.64C137.895 124.892 137.699 125.102 137.455 125.242C137.212 125.382 136.933 125.448 136.652 125.429C136.372 125.411 136.103 125.31 135.881 125.139C135.658 124.968 135.491 124.734 135.4 124.468C135.31 124.202 135.301 123.916 135.373 123.644C135.471 123.281 135.71 122.971 136.036 122.783C136.362 122.595 136.749 122.543 137.113 122.64ZM105.234 177.703C105.506 177.776 105.75 177.928 105.935 178.139C106.12 178.35 106.239 178.612 106.275 178.891C106.312 179.169 106.265 179.452 106.14 179.704C106.016 179.956 105.819 180.166 105.576 180.306C105.332 180.446 105.053 180.511 104.772 180.492C104.492 180.474 104.223 180.372 104.001 180.201C103.778 180.03 103.611 179.796 103.521 179.53C103.431 179.263 103.422 178.977 103.496 178.705C103.594 178.342 103.832 178.032 104.158 177.845C104.484 177.657 104.871 177.606 105.234 177.703ZM86.2123 168.686C79.6781 166.927 74.0787 162.706 70.5877 156.909C67.0968 151.112 65.9854 144.188 67.4864 137.59C67.5383 137.539 67.5747 137.475 67.5912 137.404C67.6078 137.334 67.6038 137.26 67.5797 137.191C67.6276 137.013 67.6755 136.834 67.724 136.653C69.5742 130.014 73.9699 124.373 79.9557 120.957C85.9415 117.541 93.0337 116.625 99.6909 118.409C106.348 120.192 112.032 124.532 115.508 130.483C118.984 136.434 119.97 143.517 118.253 150.192C118.056 150.927 117.826 151.645 117.573 152.349C117.517 152.398 117.478 152.462 117.458 152.534C117.445 152.584 117.441 152.636 117.447 152.687C115.143 158.747 110.675 163.736 104.905 166.692C99.1359 169.647 92.4755 170.358 86.2123 168.686ZM134.177 155.908C133.906 155.835 133.662 155.683 133.477 155.472C133.292 155.261 133.174 155 133.137 154.721C133.1 154.443 133.147 154.159 133.271 153.908C133.396 153.656 133.592 153.446 133.835 153.306C134.078 153.165 134.358 153.1 134.638 153.118C134.918 153.137 135.187 153.238 135.41 153.409C135.633 153.58 135.8 153.813 135.89 154.079C135.98 154.345 135.99 154.632 135.917 154.903C135.819 155.267 135.581 155.577 135.255 155.765C134.929 155.953 134.541 156.004 134.177 155.908Z" fill="#064F58"/>
<path d="M150.867 104.963C150.339 104.822 149.777 104.883 149.291 105.133C148.804 105.383 148.428 105.805 148.236 106.317L136.998 103.306C136.917 103.284 136.83 103.289 136.752 103.32C131.032 105.646 126.094 107.652 125.272 110.721L123.749 116.405C123.722 116.505 123.736 116.612 123.788 116.701C123.84 116.791 123.925 116.857 124.025 116.884C124.125 116.91 124.232 116.896 124.322 116.844C124.412 116.793 124.477 116.707 124.504 116.607L126.027 110.923C126.743 108.25 131.451 106.319 136.924 104.095L148.099 107.089C148.099 107.5 148.214 107.902 148.431 108.25C148.648 108.599 148.958 108.88 149.326 109.061C149.695 109.242 150.106 109.317 150.515 109.277C150.923 109.236 151.312 109.082 151.638 108.832C151.963 108.582 152.212 108.246 152.357 107.862C152.501 107.478 152.535 107.061 152.455 106.658C152.375 106.256 152.184 105.884 151.903 105.584C151.623 105.284 151.264 105.069 150.867 104.963ZM149.93 108.462C149.603 108.374 149.319 108.172 149.127 107.893C148.936 107.614 148.851 107.275 148.886 106.939C148.891 106.926 148.895 106.912 148.897 106.899C148.907 106.861 148.91 106.821 148.907 106.782C148.912 106.762 148.917 106.742 148.923 106.722C148.995 106.451 149.147 106.207 149.358 106.022C149.569 105.837 149.831 105.718 150.109 105.681C150.388 105.645 150.671 105.692 150.923 105.816C151.175 105.94 151.384 106.136 151.525 106.379C151.665 106.623 151.73 106.902 151.712 107.183C151.694 107.463 151.593 107.731 151.421 107.954C151.25 108.177 151.017 108.344 150.751 108.435C150.485 108.525 150.198 108.534 149.927 108.462L149.93 108.462Z" fill="#064F58"/>
<path d="M57.936 138.28C58.0362 138.307 58.1429 138.293 58.2327 138.241C58.3225 138.189 58.388 138.104 58.4148 138.004C58.4416 137.904 58.4276 137.797 58.3758 137.707C58.3239 137.617 58.2385 137.552 58.1384 137.525L53.1718 136.194C53.2036 135.642 53.0276 135.099 52.6785 134.67C52.3293 134.241 51.8324 133.959 51.2855 133.878C50.7386 133.798 50.1813 133.925 49.7234 134.234C49.2655 134.544 48.9401 135.014 48.8113 135.552C48.6825 136.089 48.7596 136.656 49.0275 137.139C49.2953 137.623 49.7345 137.989 50.2586 138.165C50.7827 138.341 51.3536 138.314 51.8591 138.09C52.3645 137.866 52.7678 137.461 52.9896 136.955L57.936 138.28ZM50.6037 137.451C50.3321 137.379 50.0879 137.228 49.9023 137.017C49.7166 136.806 49.5978 136.544 49.5609 136.265C49.5239 135.987 49.5705 135.703 49.6947 135.451C49.8189 135.199 50.0152 134.989 50.2587 134.849C50.5022 134.708 50.7819 134.643 51.0624 134.662C51.3429 134.68 51.6116 134.781 51.8345 134.953C52.0574 135.124 52.2244 135.358 52.3144 135.624C52.4044 135.89 52.4133 136.177 52.3401 136.449C52.2423 136.811 52.005 137.12 51.6801 137.308C51.3552 137.496 50.9692 137.548 50.6063 137.452L50.6037 137.451Z" fill="#064F58"/>
<path d="M162.954 79.895C162.854 79.8682 162.747 79.8823 162.657 79.9341C162.568 79.9859 162.502 80.0713 162.475 80.1715C160.643 87.0109 156.618 92.4239 150.171 96.7184C150.086 96.7765 150.026 96.8661 150.006 96.9678C149.986 97.0695 150.006 97.175 150.064 97.2615C150.122 97.3474 150.211 97.4069 150.313 97.4271C150.415 97.4472 150.52 97.4265 150.607 97.3693C157.218 92.965 161.347 87.4045 163.23 80.3738C163.244 80.3242 163.247 80.2725 163.24 80.2216C163.234 80.1707 163.217 80.1216 163.191 80.0772C163.166 80.0327 163.132 79.9938 163.091 79.9625C163.05 79.9312 163.004 79.9083 162.954 79.895Z" fill="#064F58"/>
<path d="M167.236 79.4803C167.184 79.3909 167.099 79.3255 166.999 79.2981L161.177 77.738C161.207 77.6247 161.237 77.5114 161.268 77.3981C161.546 76.3585 161.783 75.3239 161.988 74.2969L175.556 77.9325C175.51 78.4806 175.671 79.0261 176.007 79.4615C176.344 79.8969 176.831 80.1907 177.372 80.2852C177.914 80.3796 178.472 80.2679 178.936 79.9719C179.399 79.6758 179.735 79.217 179.878 78.6857C180.02 78.1544 179.958 77.589 179.705 77.1009C179.451 76.6127 179.024 76.2371 178.508 76.0479C177.991 75.8588 177.423 75.8698 176.914 76.0788C176.405 76.2878 175.993 76.6797 175.758 77.1773L162.14 73.5283C164.032 63.0436 161.983 53.3214 156.126 45.2065C150.084 36.8427 140.399 30.6971 128.127 27.4089C111.899 23.0604 94.7949 26.075 78.6652 36.128C77.1413 37.071 76.0406 38.5663 75.5933 40.3017C75.1459 42.037 75.3863 43.8781 76.2644 45.4403L77.1261 46.977C77.1196 46.9959 77.1144 47.0153 77.1106 47.0349L74.2777 57.6074C74.2508 57.7076 74.2649 57.8143 74.3167 57.9041C74.3686 57.9938 74.4539 58.0594 74.5541 58.0862C74.6542 58.113 74.7609 58.099 74.8507 58.0471C74.9405 57.9953 75.006 57.9099 75.0328 57.8098L77.6735 47.9547L80.4429 52.884L75.3092 72.0429L64.9367 78.0294L55.1597 75.4096C55.2048 74.8642 55.0441 74.3216 54.7094 73.8886C54.3747 73.4556 53.89 73.1635 53.3508 73.0697C52.8116 72.976 52.2568 73.0874 51.7956 73.382C51.3344 73.6766 51.0001 74.1331 50.8584 74.6618C50.7167 75.1904 50.778 75.753 51.0301 76.2387C51.2823 76.7245 51.707 77.0984 52.2209 77.2868C52.7347 77.4752 53.3005 77.4645 53.8069 77.2569C54.3133 77.0493 54.7236 76.6597 54.9573 76.1648L64.8929 78.827C64.9931 78.8538 65.0997 78.8396 65.1895 78.7878L75.8429 72.6391C75.9327 72.5874 75.9982 72.5021 76.0251 72.402L80.9935 53.8598L82.4941 56.5363L76.8741 77.5102C76.8473 77.6103 76.8614 77.717 76.9132 77.8068C76.965 77.8966 77.0504 77.9621 77.1506 77.9889C77.2507 78.0158 77.3574 78.0017 77.4472 77.9499C77.537 77.898 77.6025 77.8126 77.6293 77.7125L83.0422 57.5115L85.7841 62.3822L83.4672 71.029C83.4403 71.1291 83.4544 71.2358 83.5062 71.3256C83.558 71.4154 83.6434 71.4809 83.7436 71.5077C83.8437 71.5346 83.9504 71.5205 84.0402 71.4687C84.13 71.4169 84.1955 71.3315 84.2223 71.2313L86.3524 63.2818C87.2557 64.4956 88.5442 65.3668 90.007 65.7531C90.893 65.9916 91.8183 66.047 92.7264 65.916C93.6345 65.785 94.5064 65.4703 95.2888 64.991C103.192 60.2046 110.978 58.001 115.607 59.2414C122.047 60.9668 124.847 63.5868 123.924 67.0304C123.199 69.7364 116.873 72.4418 111.293 74.8292C101.509 79.0119 90.4211 83.7517 87.6348 94.1505L84.9732 104.084L77.991 108.181C77.5894 107.798 77.0591 107.58 76.5045 107.568C75.9499 107.557 75.4111 107.754 74.9943 108.12C74.5775 108.486 74.3128 108.995 74.2523 109.546C74.1918 110.098 74.3399 110.652 74.6675 111.099C74.9951 111.547 75.4783 111.856 76.0222 111.965C76.5661 112.074 77.1311 111.976 77.6062 111.69C78.0812 111.403 78.4318 110.949 78.5889 110.417C78.746 109.885 78.6983 109.314 78.4551 108.815L85.5006 104.673C85.5445 104.647 85.583 104.614 85.6137 104.573C85.6445 104.533 85.6669 104.487 85.6797 104.438L88.3844 94.3433C91.0723 84.312 101.978 79.6393 111.595 75.5359C117.619 72.9601 123.85 70.2967 124.674 67.2231C125.73 63.2786 122.742 60.3356 115.804 58.4767C110.976 57.183 102.958 59.4187 94.8773 64.3115C94.1926 64.7308 93.4302 65.0077 92.6359 65.1254C91.8416 65.2431 91.0317 65.1994 90.2547 64.9967C89.4777 64.7941 88.7496 64.4367 88.114 63.946C87.4784 63.4553 86.9483 62.8414 86.5555 62.1411L76.9546 45.0695C76.1752 43.683 75.9618 42.0489 76.3589 40.5087C76.756 38.9685 77.7329 37.6414 79.0856 36.8045C95.0148 26.8651 111.905 23.8823 127.92 28.1735C140.015 31.4144 149.545 37.4752 155.485 45.6743C161.918 54.5694 163.67 65.4719 160.528 77.1998C156.654 91.6565 143.956 96.9173 134.686 100.763C128.956 103.137 124.006 105.186 123.173 108.297L121.627 114.064C121.221 115.622 120.213 116.955 118.825 117.77C117.437 118.586 115.783 118.818 114.224 118.415L100.631 114.773C100.546 114.751 100.456 114.757 100.375 114.791C100.323 114.723 100.25 114.674 100.167 114.652C92.5694 112.62 84.4763 113.686 77.6641 117.616C70.8518 121.545 65.8769 128.017 63.8315 135.611C63.8047 135.711 63.8187 135.817 63.8706 135.907C63.9224 135.997 64.0078 136.062 64.1079 136.089C64.2081 136.116 64.3148 136.102 64.4046 136.05C64.4943 135.998 64.5599 135.913 64.5867 135.813C66.5765 128.422 71.4169 122.121 78.0461 118.294C84.6752 114.467 92.5517 113.426 99.9475 115.399C100.027 115.364 100.117 115.357 100.201 115.379C100.285 115.402 100.359 115.453 100.411 115.524L114.004 119.166C115.763 119.622 117.631 119.362 119.199 118.443C120.766 117.523 121.905 116.02 122.365 114.262L123.911 108.492C124.644 105.756 129.432 103.766 134.965 101.472C144.15 97.6627 156.646 92.4826 160.944 78.4851L166.628 80.0081L170.595 86.8824C170.647 86.9717 170.732 87.037 170.832 87.0647C170.907 87.0846 170.986 87.082 171.059 87.0571C171.132 87.0323 171.196 86.9863 171.243 86.925C171.29 86.8637 171.318 86.7898 171.323 86.7127C171.328 86.6356 171.31 86.5587 171.271 86.4918L167.236 79.4803ZM178.12 76.7309C178.391 76.8036 178.635 76.9551 178.82 77.1663C179.006 77.3775 179.124 77.6389 179.161 77.9174C179.197 78.1959 179.151 78.479 179.026 78.731C178.902 78.9829 178.706 79.1924 178.463 79.3328C178.219 79.4733 177.94 79.5384 177.66 79.5201C177.379 79.5017 177.111 79.4006 176.888 79.2296C176.665 79.0586 176.498 78.8253 176.408 78.5593C176.317 78.2933 176.308 78.0065 176.381 77.7352C176.428 77.5541 176.511 77.3842 176.624 77.2353C176.737 77.0863 176.879 76.9612 177.041 76.8672C177.203 76.7731 177.382 76.712 177.567 76.6873C177.753 76.6627 177.941 76.6749 178.122 76.7233L178.12 76.7309ZM52.5991 76.5581C52.3278 76.4854 52.0841 76.3339 51.8988 76.1227C51.7136 75.9115 51.5952 75.6501 51.5585 75.3716C51.5219 75.0931 51.5686 74.81 51.6929 74.5581C51.8171 74.3061 52.0133 74.0967 52.2565 73.9562C52.4998 73.8158 52.7793 73.7506 53.0596 73.769C53.3399 73.7874 53.6085 73.8884 53.8313 74.0594C54.0542 74.2304 54.2213 74.4637 54.3116 74.7297C54.4019 74.9957 54.4113 75.2825 54.3386 75.5538C54.2405 75.9173 54.0023 76.2271 53.6763 76.4153C53.3503 76.6036 52.9629 76.6549 52.5991 76.5581ZM76.089 111.141C75.8177 111.068 75.574 110.916 75.3888 110.705C75.2036 110.494 75.0852 110.233 75.0485 109.954C75.0118 109.676 75.0586 109.393 75.1828 109.141C75.3071 108.889 75.5032 108.679 75.7465 108.539C75.9898 108.398 76.2692 108.333 76.5495 108.352C76.8298 108.37 77.0984 108.471 77.3213 108.642C77.5441 108.813 77.7113 109.046 77.8016 109.312C77.8919 109.578 77.9013 109.865 77.8286 110.136C77.7304 110.5 77.4923 110.81 77.1663 110.998C76.8402 111.186 76.4529 111.237 76.089 111.141Z" fill="#064F58"/>
<path d="M172.497 89.3823C172.472 89.3359 172.438 89.295 172.397 89.262C172.357 89.2289 172.31 89.2044 172.259 89.1899C172.209 89.1755 172.156 89.1713 172.104 89.1777C172.052 89.1841 172.001 89.2009 171.956 89.2271C171.91 89.2534 171.871 89.2885 171.839 89.3305C171.808 89.3724 171.785 89.4202 171.772 89.4712C171.759 89.5221 171.757 89.5751 171.765 89.6269C171.774 89.6788 171.792 89.7284 171.82 89.773L174.463 94.3499C174.488 94.3947 174.522 94.4339 174.563 94.4652C174.603 94.4965 174.65 94.5193 174.7 94.5322C174.749 94.5462 174.801 94.5499 174.852 94.5431C174.903 94.5364 174.952 94.5193 174.996 94.4929C175.041 94.4675 175.08 94.4335 175.111 94.3928C175.143 94.3521 175.166 94.3056 175.179 94.256C175.192 94.2063 175.196 94.1545 175.189 94.1036C175.182 94.0527 175.165 94.0036 175.139 93.9593L172.497 89.3823Z" fill="#064F58"/>
<path d="M75.4026 85.3632L76.6228 80.8095C76.6496 80.7093 76.6355 80.6026 76.5837 80.5129C76.5319 80.4231 76.4465 80.3576 76.3463 80.3307C76.2462 80.3039 76.1395 80.3179 76.0497 80.3698C75.9599 80.4216 75.8944 80.507 75.8676 80.6071L74.6474 85.1609C74.6206 85.261 74.6346 85.3677 74.6865 85.4575C74.7383 85.5473 74.8237 85.6128 74.9238 85.6396C75.024 85.6665 75.1307 85.6524 75.2205 85.6006C75.3102 85.5487 75.3758 85.4634 75.4026 85.3632Z" fill="#064F58"/>
<path d="M82.3497 78.3027L83.2751 74.849C83.3019 74.7488 83.2879 74.6421 83.236 74.5524C83.1842 74.4626 83.0988 74.3971 82.9987 74.3702C82.8985 74.3434 82.7918 74.3574 82.7021 74.4093C82.6123 74.4611 82.5468 74.5465 82.5199 74.6466L81.5945 78.1003C81.5677 78.2005 81.5817 78.3072 81.6336 78.3969C81.6854 78.4867 81.7708 78.5522 81.8709 78.5791C81.9711 78.6059 82.0778 78.5919 82.1675 78.54C82.2573 78.4882 82.3229 78.4028 82.3497 78.3027Z" fill="#064F58"/>
<path d="M73.423 62.7848L73.9626 60.771C73.9894 60.6709 73.9754 60.5642 73.9235 60.4744C73.8717 60.3846 73.7863 60.3191 73.6862 60.2923C73.586 60.2654 73.4793 60.2795 73.3896 60.3313C73.2998 60.3832 73.2343 60.4685 73.2074 60.5687L72.6678 62.5825C72.641 62.6826 72.655 62.7893 72.7069 62.8791C72.7587 62.9689 72.8441 63.0344 72.9442 63.0613C73.0444 63.0881 73.1511 63.074 73.2409 63.0222C73.3306 62.9704 73.3962 62.885 73.423 62.7848Z" fill="#064F58"/>
<path d="M137.191 132.212L141.881 133.469C141.981 133.496 142.087 133.482 142.177 133.43C142.267 133.378 142.332 133.292 142.359 133.192C142.386 133.092 142.372 132.985 142.32 132.896C142.268 132.806 142.183 132.74 142.083 132.714L137.393 131.457C137.293 131.43 137.186 131.444 137.097 131.496C137.007 131.548 136.941 131.633 136.914 131.733C136.888 131.834 136.902 131.94 136.954 132.03C137.005 132.12 137.091 132.185 137.191 132.212Z" fill="#064F58"/>
<g clip-path="url(#clip1_981_15498)">
<mask id="mask0_981_15498" style="mask-type:luminance" maskUnits="userSpaceOnUse" x="95" y="137" width="4" height="6">
<path d="M95.9835 138.145C96.504 139.116 96.7651 140.209 96.7411 141.318C97.2697 141.624 97.7619 141.99 98.2082 142.409C98.4479 140.841 98.2201 139.24 97.5542 137.813C97.0205 137.863 96.4935 137.974 95.9835 138.145Z" fill="white"/>
</mask>
<g mask="url(#mask0_981_15498)">
<path d="M99.1327 136.986L94.5195 137.698L95.2517 142.866L99.8648 142.155L99.1327 136.986Z" fill="#064F58"/>
</g>
<mask id="mask1_981_15498" style="mask-type:luminance" maskUnits="userSpaceOnUse" x="83" y="138" width="5" height="9">
<path d="M86.2695 138.731C85.5432 138.716 84.8369 138.987 84.2991 139.487C83.3216 140.403 82.905 142.02 83.2363 143.611C83.4933 144.67 84.0307 145.635 84.7905 146.403C84.9208 145.914 85.0977 145.438 85.3185 144.982C85.3421 144.895 85.401 144.816 85.4481 144.735C85.12 144.3 84.8856 143.8 84.7598 143.266C84.55 142.243 84.7936 141.161 85.3514 140.634C85.5095 140.493 85.7007 140.397 85.9061 140.355C86.047 140.553 86.2511 140.695 86.4842 140.758C86.6543 140.804 86.8333 140.807 87.0057 140.767C87.178 140.727 87.3385 140.645 87.473 140.528C87.6076 140.411 87.7122 140.263 87.7777 140.096C87.8432 139.929 87.8677 139.749 87.849 139.571C87.8303 139.393 87.7689 139.223 87.6703 139.075C87.5717 138.927 87.4388 138.807 87.2832 138.724C87.1276 138.64 86.954 138.597 86.7775 138.598C86.601 138.599 86.427 138.643 86.2706 138.727" fill="white"/>
</mask>
<g mask="url(#mask1_981_15498)">
<path d="M88.1748 138.323L82.918 137.687L81.8448 146.229L87.1017 146.865L88.1748 138.323Z" fill="#064F58"/>
</g>
<mask id="mask2_981_15498" style="mask-type:luminance" maskUnits="userSpaceOnUse" x="93" y="143" width="5" height="6">
<path d="M93.1593 146.903L94.3119 148.068C95.4627 147.606 96.9795 145.966 97.5589 144.589L96.3942 143.391C95.7687 144.752 94.4336 146.341 93.155 146.919" fill="white"/>
</mask>
<g mask="url(#mask2_981_15498)">
<path d="M96.2962 141.44L91.1211 144.894L94.4218 150.023L99.5969 146.569L96.2962 141.44Z" fill="#064F58"/>
</g>
<mask id="mask3_981_15498" style="mask-type:luminance" maskUnits="userSpaceOnUse" x="92" y="140" width="9" height="10">
<path d="M92.9749 140.699C92.6842 141.199 92.4745 141.743 92.3542 142.309C93.5383 142.227 94.7169 142.504 95.7396 143.105C96.4565 143.476 97.0679 144.025 97.5171 144.703C97.6145 144.824 97.7038 144.953 97.7845 145.087C97.8901 145.249 97.9855 145.417 98.0703 145.591C98.2398 145.919 98.3775 146.262 98.4814 146.617C98.7196 147.481 98.7934 148.384 98.6987 149.278C99.2612 149.181 99.8014 148.978 100.291 148.677C100.312 147.821 100.206 146.967 99.976 146.145C99.6676 145.116 99.1472 144.167 98.4492 143.36C98.3366 143.223 98.217 143.093 98.0911 142.969C97.6761 142.542 97.2103 142.17 96.7043 141.861C96.5699 141.771 96.4302 141.689 96.2858 141.616C95.7731 141.341 95.2308 141.125 94.6693 140.973C94.114 140.825 93.5435 140.741 92.9685 140.723" fill="white"/>
</mask>
<g mask="url(#mask3_981_15498)">
<path d="M95.3295 137.389L88.8164 145.344L97.5456 152.678L104.059 144.723L95.3295 137.389Z" fill="#064F58"/>
</g>
<mask id="mask4_981_15498" style="mask-type:luminance" maskUnits="userSpaceOnUse" x="92" y="151" width="8" height="4">
<path d="M97.9136 151.815C97.8096 151.988 97.6874 152.149 97.5493 152.295C96.8237 153.055 95.8103 153.46 95.0745 153.284C94.819 153.225 94.5896 153.084 94.4204 152.882C94.448 152.673 94.4159 152.462 94.3279 152.272C94.2398 152.083 94.0996 151.923 93.9241 151.813C93.7485 151.703 93.5449 151.647 93.3378 151.651C93.1306 151.656 92.9285 151.721 92.7558 151.838C92.5831 151.956 92.4469 152.121 92.3637 152.314C92.2804 152.507 92.2536 152.72 92.2864 152.928C92.3192 153.135 92.4102 153.328 92.5485 153.483C92.6869 153.638 92.8668 153.75 93.0666 153.803L93.1255 153.819C93.5139 154.34 94.0717 154.705 94.7015 154.849C95.9845 155.15 97.5402 154.591 98.6605 153.41C99.1468 152.876 99.5248 152.25 99.7728 151.568C99.1645 151.738 98.5378 151.828 97.9083 151.835" fill="white"/>
</mask>
<g mask="url(#mask4_981_15498)">
<path d="M95.8125 147.159L90.2695 152.316L95.8341 158.482L101.377 153.325L95.8125 147.159Z" fill="#064F58"/>
</g>
<mask id="mask5_981_15498" style="mask-type:luminance" maskUnits="userSpaceOnUse" x="90" y="135" width="14" height="17">
<path d="M96.8466 135.864C96.6703 135.893 96.5057 135.926 96.3401 135.963C95.7638 136.083 95.2013 136.265 94.6624 136.507C94.5267 136.573 94.3911 136.64 94.2633 136.708C94.2493 136.715 94.2359 136.722 94.2233 136.732C92.7234 137.563 91.5378 138.879 90.8564 140.469C90.7818 140.637 90.7151 140.808 90.6552 140.984C90.4471 141.573 90.3126 142.186 90.2551 142.808C90.2308 142.977 90.2223 143.15 90.2098 143.322C90.1667 144.605 90.4396 145.875 91.0039 147.019C91.04 147.088 91.0721 147.157 91.1093 147.222C91.147 147.3 91.1886 147.375 91.2339 147.448C91.526 147.963 91.8751 148.441 92.2745 148.874C92.391 149.008 92.5142 149.135 92.6437 149.256C93.5791 150.147 94.7182 150.789 95.9605 151.125C96.5189 151.273 97.093 151.355 97.6713 151.369C97.8351 151.37 98.0029 151.372 98.17 151.361C98.7726 151.327 99.369 151.214 99.9441 151.024C100.114 150.969 100.282 150.905 100.446 150.833C100.798 150.689 101.137 150.515 101.46 150.313C102.008 149.941 102.453 149.434 102.754 148.841C103.054 148.247 103.2 147.586 103.177 146.921C103.178 146.107 102.907 145.319 102.408 144.686C102.383 144.489 102.306 144.303 102.185 144.148C102.064 143.993 101.903 143.874 101.72 143.805C101.537 143.736 101.338 143.718 101.145 143.755C100.952 143.791 100.772 143.88 100.624 144.012C100.476 144.143 100.366 144.313 100.305 144.502C100.244 144.692 100.235 144.894 100.279 145.088C100.322 145.281 100.417 145.459 100.553 145.601C100.688 145.744 100.86 145.846 101.049 145.897C101.151 145.921 101.256 145.93 101.361 145.925C101.529 146.233 101.62 146.579 101.625 146.933C101.641 147.305 101.569 147.677 101.415 148.017C101.261 148.356 101.029 148.655 100.74 148.887C100.711 148.915 100.679 148.939 100.644 148.96C100.528 149.032 100.408 149.102 100.287 149.164C99.7771 149.439 99.2252 149.622 98.6554 149.707C98.5059 149.731 98.3534 149.75 98.2189 149.765C97.6015 149.806 96.9826 149.744 96.3864 149.582C95.6478 149.387 94.9519 149.056 94.3335 148.604C94.2003 148.504 94.0682 148.401 93.9383 148.289C93.5232 147.929 93.1573 147.514 92.8503 147.055C92.762 146.929 92.676 146.795 92.5988 146.659L92.4942 146.468C91.905 145.349 91.6772 144.068 91.8426 142.805C91.8585 142.649 91.8844 142.495 91.9203 142.342C92.0327 141.772 92.2271 141.221 92.4972 140.708C92.5725 140.552 92.6595 140.4 92.7505 140.249C93.3096 139.352 94.0871 138.615 95.0072 138.11C95.1161 138.049 95.2278 137.994 95.3474 137.94C95.467 137.887 95.6183 137.824 95.7636 137.769C96.2793 137.582 96.8134 137.454 97.356 137.387C97.5174 137.366 97.6816 137.35 97.8397 137.341C98.831 137.234 99.8281 137.437 100.698 137.923C101.544 138.488 102.123 139.422 102.089 140.209C102.078 140.465 101.99 140.712 101.836 140.916C101.68 140.855 101.51 140.839 101.345 140.87C101.179 140.902 101.026 140.979 100.9 141.093C100.736 141.22 100.61 141.39 100.536 141.585C100.461 141.779 100.442 141.991 100.479 142.195C100.517 142.4 100.61 142.589 100.748 142.742C100.886 142.894 101.064 143.005 101.261 143.06C101.508 143.126 101.771 143.101 102.003 142.989C102.235 142.877 102.421 142.686 102.528 142.449C102.857 142.192 103.128 141.865 103.321 141.492C103.514 141.118 103.625 140.708 103.646 140.288C103.695 138.927 102.873 137.47 101.526 136.591C101.089 136.311 100.611 136.102 100.109 135.972C99.0424 135.708 97.9318 135.671 96.8466 135.864Z" fill="white"/>
</mask>
<g mask="url(#mask5_981_15498)">
<path d="M95.8773 129.53L83.6953 145.373L98.6289 157.144L110.811 141.301L95.8773 129.53Z" fill="#064F58"/>
</g>
<mask id="mask6_981_15498" style="mask-type:luminance" maskUnits="userSpaceOnUse" x="88" y="133" width="8" height="7">
<path d="M92.8428 133.879C92.1996 133.749 91.5329 133.789 90.9069 133.997C90.2808 134.204 89.7165 134.57 89.2682 135.061C88.6542 135.68 88.2837 136.503 88.2271 137.376C88.1437 137.49 88.082 137.619 88.0455 137.755C87.9942 137.944 87.9934 138.143 88.0431 138.331C88.0928 138.52 88.1912 138.691 88.3282 138.827C88.4652 138.963 88.6358 139.059 88.8225 139.106C89.0091 139.152 89.205 139.147 89.39 139.091C89.575 139.036 89.7423 138.931 89.8748 138.788C90.0073 138.645 90.1001 138.469 90.1437 138.279C90.1873 138.088 90.1801 137.889 90.1228 137.703C90.0655 137.517 89.9602 137.35 89.8178 137.22C89.9034 136.821 90.101 136.455 90.3866 136.166C90.6499 135.876 90.9804 135.658 91.3476 135.532C91.7147 135.406 92.1064 135.376 92.4865 135.444C93.124 135.593 93.7272 135.862 94.2649 136.237C94.8116 135.952 95.3878 135.731 95.9825 135.576C95.1682 134.792 94.1709 134.231 93.0824 133.943L92.8428 133.879Z" fill="white"/>
</mask>
<g mask="url(#mask6_981_15498)">
<path d="M89.8382 131.688L86.6719 138.313L94.0348 141.888L97.2011 135.263L89.8382 131.688Z" fill="#064F58"/>
</g>
<mask id="mask7_981_15498" style="mask-type:luminance" maskUnits="userSpaceOnUse" x="84" y="141" width="9" height="13">
<path d="M85.9805 144.692C85.8968 144.831 85.8203 144.975 85.7514 145.123C85.7439 145.143 85.7382 145.165 85.7343 145.187C85.4845 145.702 85.2953 146.244 85.1706 146.803C85.1257 146.971 85.0807 147.139 85.0722 147.312C84.8805 148.498 85.0011 149.712 85.4218 150.83C85.6434 151.387 85.9924 151.883 86.4404 152.275C86.8884 152.667 87.4225 152.945 87.999 153.087C88.1208 153.119 88.2425 153.152 88.3603 153.184C89.1346 153.331 89.9371 153.213 90.6428 152.849L90.6624 152.855C90.8663 152.91 91.0823 152.904 91.2838 152.837C91.4853 152.77 91.6635 152.644 91.7962 152.476C91.929 152.307 92.0105 152.104 92.0307 151.89C92.051 151.676 92.0091 151.461 91.9101 151.272C91.8112 151.083 91.6596 150.928 91.4741 150.827C91.2886 150.725 91.0773 150.681 90.8664 150.7C90.6555 150.719 90.4541 150.8 90.2872 150.933C90.1203 151.067 89.9953 151.247 89.9274 151.451C89.5195 151.638 89.0635 151.684 88.6295 151.582C88.2466 151.531 87.8835 151.382 87.5741 151.15C87.2647 150.917 87.0191 150.608 86.8603 150.252C86.6336 149.656 86.5182 149.021 86.52 148.38C86.5276 148.207 86.5443 148.035 86.5702 147.863C87.1382 148.263 87.77 148.561 88.4386 148.745L88.6742 148.808C89.642 149.068 90.653 149.13 91.6479 148.988L90.9587 147.853C90.7479 147.305 90.7751 147.47 90.3731 147.478C89.8715 147.472 89.3745 147.388 88.8994 147.229C88.1935 147.051 87.5322 146.729 86.9565 146.28C86.959 146.262 86.9637 146.245 86.9704 146.228C87.0046 146.101 87.0732 145.986 87.127 145.864C87.1309 145.842 87.1367 145.821 87.1442 145.8C87.7285 144.632 88.6501 143.67 89.7849 143.045C89.8271 142.407 89.9425 141.776 90.1289 141.164C88.3824 141.808 86.9126 143.058 85.9805 144.692Z" fill="white"/>
</mask>
<g mask="url(#mask7_981_15498)">
<path d="M87.0504 139.778L83.0039 151.671L91.3825 154.538L95.4289 142.645L87.0504 139.778Z" fill="#064F58"/>
</g>
</g>
</g>
<defs>
<clipPath id="clip0_981_15498">
<rect width="172" height="172" fill="white" transform="translate(44.5156) rotate(15)"/>
</clipPath>
<clipPath id="clip1_981_15498">
<rect width="20.8485" height="20.8485" fill="white" transform="translate(85.9219 131.426) rotate(15)"/>
</clipPath>
</defs>
</svg>
