<svg width="500" height="500" viewBox="0 0 500 500" fill="none" xmlns="http://www.w3.org/2000/svg">
<path d="M296.408 435.67L424.098 387.76L425.018 377.55L298.268 425.45L296.408 435.67Z" fill="#00AF66" stroke="#2E353A" stroke-width="1.13593" stroke-linecap="round" stroke-linejoin="round"/>
<path d="M274.91 266.31C272.666 266.293 270.497 265.502 268.77 264.07C266.599 262.28 265.173 259.745 264.77 256.96C264.719 256.463 264.862 255.965 265.168 255.569C265.474 255.174 265.92 254.911 266.414 254.836C266.909 254.76 267.413 254.877 267.823 255.162C268.234 255.448 268.519 255.88 268.62 256.37C268.881 258.196 269.811 259.861 271.23 261.04C271.847 261.572 272.572 261.964 273.356 262.189C274.139 262.413 274.962 262.465 275.767 262.34C276.573 262.216 277.341 261.918 278.02 261.467C278.699 261.017 279.272 260.424 279.7 259.73C279.994 259.322 280.435 259.043 280.931 258.953C281.426 258.862 281.937 258.967 282.357 259.245C282.777 259.522 283.073 259.952 283.184 260.443C283.294 260.934 283.21 261.449 282.95 261.88C282.22 263.025 281.255 264.001 280.119 264.744C278.982 265.487 277.701 265.98 276.36 266.19C275.881 266.27 275.396 266.31 274.91 266.31Z" fill="#2E353A"/>
<path d="M256.479 272C251.549 272 247.139 268.08 246.309 262.66C246.269 262.408 246.279 262.15 246.339 261.902C246.399 261.654 246.508 261.42 246.658 261.214C246.809 261.007 246.998 260.833 247.216 260.7C247.434 260.567 247.677 260.479 247.929 260.44C248.439 260.373 248.955 260.505 249.371 260.808C249.786 261.112 250.068 261.564 250.159 262.07C250.739 265.88 253.949 268.56 257.299 268.07C258.103 267.939 258.87 267.638 259.549 267.189C260.229 266.739 260.805 266.149 261.239 265.46C261.534 265.052 261.975 264.773 262.47 264.683C262.965 264.592 263.476 264.697 263.896 264.975C264.316 265.252 264.612 265.682 264.723 266.173C264.833 266.664 264.749 267.179 264.489 267.61C263.759 268.755 262.794 269.731 261.658 270.474C260.522 271.217 259.24 271.71 257.899 271.92C257.429 271.986 256.954 272.012 256.479 272Z" fill="#2E353A"/>
<path d="M239.619 278.47C237.377 278.455 235.208 277.667 233.479 276.24C231.31 274.448 229.885 271.914 229.479 269.13C229.428 268.633 229.571 268.135 229.877 267.739C230.183 267.344 230.629 267.081 231.123 267.006C231.618 266.93 232.122 267.047 232.532 267.332C232.943 267.618 233.228 268.05 233.329 268.54C233.59 270.366 234.52 272.031 235.939 273.21C236.562 273.732 237.289 274.118 238.071 274.342C238.853 274.566 239.673 274.623 240.479 274.51C241.282 274.379 242.047 274.078 242.725 273.628C243.402 273.178 243.976 272.589 244.409 271.9C244.736 271.583 245.161 271.388 245.614 271.345C246.067 271.303 246.521 271.416 246.901 271.667C247.281 271.917 247.565 272.29 247.704 272.723C247.844 273.157 247.831 273.625 247.669 274.05C246.936 275.194 245.969 276.17 244.831 276.913C243.693 277.656 242.411 278.149 241.069 278.36C240.589 278.437 240.104 278.474 239.619 278.47Z" fill="#2E353A"/>
<path d="M221.188 283.75C216.258 283.75 211.848 279.82 211.018 274.41C210.967 274.152 210.968 273.886 211.022 273.629C211.076 273.371 211.181 273.127 211.332 272.912C211.482 272.696 211.675 272.513 211.898 272.374C212.121 272.235 212.37 272.142 212.63 272.101C212.89 272.061 213.156 272.073 213.411 272.138C213.665 272.203 213.905 272.319 214.114 272.478C214.323 272.638 214.497 272.838 214.627 273.067C214.757 273.296 214.839 273.549 214.868 273.81C215.458 277.62 218.658 280.3 222.008 279.81C222.811 279.679 223.577 279.379 224.256 278.931C224.935 278.483 225.512 277.897 225.948 277.21C226.08 276.978 226.258 276.775 226.471 276.614C226.684 276.453 226.928 276.338 227.188 276.275C227.448 276.213 227.717 276.204 227.98 276.25C228.243 276.296 228.494 276.396 228.717 276.543C228.94 276.689 229.131 276.881 229.277 277.104C229.423 277.328 229.522 277.579 229.567 277.842C229.612 278.105 229.603 278.375 229.539 278.634C229.476 278.894 229.36 279.137 229.198 279.35C228.467 280.494 227.502 281.471 226.366 282.216C225.23 282.96 223.949 283.456 222.608 283.67C222.137 283.731 221.663 283.758 221.188 283.75Z" fill="#2E353A"/>
<path d="M202.318 291.25C197.398 291.25 192.988 287.33 192.148 281.91C192.179 281.456 192.363 281.026 192.671 280.691C192.979 280.356 193.392 280.135 193.842 280.067C194.292 279.998 194.751 280.085 195.145 280.312C195.539 280.54 195.844 280.896 196.008 281.32C196.588 285.13 199.798 287.8 203.148 287.32C203.952 287.187 204.718 286.886 205.397 286.436C206.076 285.986 206.653 285.398 207.088 284.71C207.383 284.302 207.824 284.023 208.319 283.933C208.815 283.842 209.326 283.947 209.746 284.225C210.166 284.502 210.462 284.932 210.572 285.423C210.683 285.914 210.599 286.429 210.338 286.86C209.607 288.003 208.642 288.979 207.506 289.722C206.37 290.465 205.089 290.958 203.748 291.17C203.274 291.231 202.796 291.258 202.318 291.25Z" fill="#2E353A"/>
<path d="M184.048 297.94C181.806 297.926 179.637 297.139 177.908 295.71C175.74 293.918 174.314 291.384 173.908 288.6C173.858 288.103 174 287.605 174.307 287.209C174.613 286.814 175.059 286.551 175.553 286.476C176.047 286.4 176.552 286.517 176.962 286.802C177.373 287.088 177.658 287.52 177.758 288.01C178.019 289.836 178.949 291.501 180.368 292.68C180.986 293.212 181.711 293.604 182.494 293.829C183.278 294.053 184.1 294.105 184.906 293.98C185.711 293.856 186.48 293.558 187.159 293.107C187.838 292.657 188.411 292.064 188.838 291.37C189.165 291.053 189.591 290.858 190.044 290.815C190.497 290.773 190.951 290.886 191.331 291.137C191.711 291.387 191.994 291.76 192.134 292.193C192.273 292.627 192.261 293.095 192.098 293.52C191.366 294.664 190.398 295.64 189.261 296.383C188.123 297.126 186.841 297.619 185.498 297.83C185.019 297.907 184.534 297.944 184.048 297.94Z" fill="#2E353A"/>
<path d="M299.908 429.44L405.578 390.51" stroke="#2E353A" stroke-width="0.567964" stroke-linecap="round" stroke-linejoin="round"/>
<path d="M297.129 432.69L364.789 407.66" stroke="#2E353A" stroke-width="0.567964" stroke-linecap="round" stroke-linejoin="round"/>
<path d="M169.18 293.45V305.52L296.41 435.67L298.27 425.45L169.18 293.45Z" fill="#00AF66" stroke="#2E353A" stroke-width="1.13593" stroke-linecap="round" stroke-linejoin="round"/>
<path d="M171.068 302.92L246.618 378.46" stroke="#2E353A" stroke-width="0.567964" stroke-linecap="round" stroke-linejoin="round"/>
<path d="M206.76 335.36L285.54 416" stroke="#2E353A" stroke-width="0.567964" stroke-linecap="round" stroke-linejoin="round"/>
<path d="M169.18 293.45L298.27 425.45L425.02 377.55L293.65 251.65L169.18 293.45Z" fill="white" stroke="#2E353A" stroke-width="1.13593" stroke-linecap="round" stroke-linejoin="round"/>
<path d="M167.599 291.37L48.0391 179.78L170.509 141.59L292.709 249.66L167.599 291.37Z" fill="#00AF66" stroke="#2E353A" stroke-width="1.13593" stroke-linecap="round" stroke-linejoin="round"/>
<path d="M66.3398 180.52L101.34 169.62" stroke="#2E353A" stroke-width="1.21052" stroke-linecap="round" stroke-linejoin="round"/>
<path d="M71.5098 184.54L106.51 173.64" stroke="#2E353A" stroke-width="1.21052" stroke-linecap="round" stroke-linejoin="round"/>
<path d="M190.458 294.39C190.078 294.392 189.705 294.281 189.388 294.07C188.966 293.778 188.673 293.335 188.569 292.832C188.464 292.329 188.557 291.806 188.828 291.37C189.827 289.818 190.212 287.95 189.908 286.13C189.739 284.75 189.162 283.452 188.252 282.402C187.342 281.351 186.14 280.595 184.798 280.23C184.314 280.097 183.9 279.783 183.641 279.353C183.383 278.922 183.301 278.409 183.411 277.919C183.522 277.429 183.818 277.001 184.236 276.724C184.655 276.446 185.164 276.341 185.658 276.43C187.763 276.969 189.659 278.124 191.104 279.747C192.548 281.37 193.476 283.387 193.768 285.54C194.225 288.323 193.626 291.176 192.088 293.54C191.904 293.802 191.66 294.015 191.377 294.163C191.093 294.311 190.778 294.389 190.458 294.39Z" fill="#2E353A"/>
<path d="M208.709 287.7C208.329 287.702 207.956 287.591 207.639 287.38C207.425 287.24 207.24 287.058 207.097 286.846C206.953 286.634 206.853 286.396 206.801 286.145C206.75 285.894 206.749 285.635 206.799 285.384C206.848 285.132 206.947 284.893 207.089 284.68C208.084 283.127 208.468 281.26 208.169 279.44C207.999 278.06 207.423 276.762 206.513 275.712C205.603 274.661 204.4 273.905 203.059 273.54C202.797 273.497 202.547 273.4 202.324 273.257C202.101 273.114 201.909 272.926 201.761 272.706C201.613 272.487 201.511 272.239 201.462 271.978C201.412 271.717 201.417 271.449 201.475 271.191C201.533 270.932 201.643 270.687 201.798 270.473C201.954 270.258 202.152 270.077 202.38 269.941C202.607 269.805 202.861 269.717 203.124 269.683C203.387 269.648 203.654 269.668 203.909 269.74C206.014 270.279 207.91 271.434 209.355 273.057C210.799 274.68 211.727 276.697 212.019 278.85C212.476 281.633 211.877 284.486 210.339 286.85C210.155 287.112 209.911 287.325 209.628 287.473C209.344 287.621 209.029 287.699 208.709 287.7Z" fill="#2E353A"/>
<path d="M281.318 262.76C280.976 262.743 280.644 262.638 280.353 262.455C280.063 262.273 279.825 262.019 279.661 261.717C279.498 261.416 279.414 261.078 279.419 260.735C279.424 260.392 279.516 260.057 279.688 259.76C280.688 258.213 281.074 256.347 280.768 254.53C280.6 253.149 280.025 251.848 279.114 250.796C278.204 249.743 277.001 248.986 275.658 248.62C275.409 248.566 275.172 248.462 274.963 248.316C274.753 248.169 274.575 247.983 274.438 247.767C274.302 247.551 274.209 247.311 274.166 247.059C274.123 246.807 274.131 246.549 274.188 246.3C274.312 245.801 274.623 245.369 275.057 245.094C275.491 244.818 276.014 244.72 276.518 244.82C278.623 245.359 280.519 246.514 281.964 248.137C283.408 249.76 284.336 251.777 284.628 253.93C285.086 256.714 284.483 259.569 282.938 261.93C282.757 262.191 282.515 262.403 282.232 262.548C281.95 262.693 281.636 262.766 281.318 262.76Z" fill="#2E353A"/>
<path d="M262.859 268.43C262.479 268.432 262.106 268.321 261.789 268.11C261.575 267.97 261.391 267.788 261.247 267.576C261.103 267.364 261.003 267.126 260.952 266.875C260.901 266.624 260.9 266.365 260.949 266.114C260.999 265.862 261.097 265.623 261.239 265.41C262.235 263.857 262.62 261.99 262.319 260.17C262.15 258.79 261.573 257.492 260.663 256.442C259.753 255.391 258.551 254.635 257.209 254.27C256.948 254.227 256.698 254.13 256.474 253.987C256.251 253.844 256.06 253.656 255.911 253.436C255.763 253.217 255.661 252.969 255.612 252.708C255.563 252.447 255.567 252.179 255.625 251.921C255.683 251.662 255.793 251.417 255.949 251.203C256.104 250.988 256.302 250.807 256.53 250.671C256.758 250.535 257.011 250.447 257.274 250.413C257.537 250.378 257.804 250.398 258.059 250.47C260.165 251.007 262.063 252.161 263.508 253.784C264.953 255.408 265.88 257.426 266.169 259.58C266.626 262.363 266.027 265.216 264.489 267.58C264.306 267.842 264.062 268.055 263.778 268.203C263.494 268.351 263.179 268.429 262.859 268.43Z" fill="#2E353A"/>
<path d="M245.998 274.93C245.617 274.929 245.244 274.814 244.928 274.6C244.506 274.308 244.213 273.865 244.108 273.362C244.004 272.859 244.097 272.336 244.368 271.9C245.373 270.35 245.761 268.481 245.458 266.66C245.288 265.28 244.712 263.982 243.802 262.932C242.892 261.881 241.689 261.125 240.348 260.76C240.086 260.717 239.836 260.62 239.613 260.477C239.39 260.334 239.198 260.146 239.05 259.926C238.902 259.707 238.8 259.459 238.751 259.198C238.701 258.937 238.706 258.669 238.764 258.411C238.822 258.152 238.932 257.907 239.087 257.693C239.243 257.478 239.441 257.297 239.669 257.161C239.896 257.025 240.15 256.937 240.413 256.903C240.676 256.868 240.943 256.888 241.198 256.96C243.303 257.499 245.199 258.654 246.644 260.277C248.088 261.9 249.016 263.917 249.308 266.07C249.765 268.853 249.166 271.706 247.628 274.07C247.445 274.334 247.202 274.549 246.918 274.699C246.634 274.849 246.319 274.928 245.998 274.93Z" fill="#2E353A"/>
<path d="M227.569 280.2C227.189 280.197 226.818 280.086 226.499 279.88C226.285 279.74 226.1 279.558 225.956 279.346C225.813 279.134 225.712 278.896 225.661 278.645C225.61 278.394 225.609 278.135 225.658 277.884C225.708 277.632 225.807 277.393 225.949 277.18C226.943 275.627 227.328 273.76 227.029 271.94C226.859 270.56 226.283 269.262 225.372 268.212C224.462 267.161 223.26 266.405 221.919 266.04C221.619 266.04 221.323 265.973 221.053 265.843C220.783 265.714 220.545 265.525 220.358 265.291C220.17 265.057 220.038 264.784 219.97 264.492C219.902 264.2 219.901 263.897 219.966 263.605C220.031 263.312 220.161 263.038 220.347 262.802C220.532 262.567 220.768 262.376 221.037 262.244C221.306 262.112 221.602 262.043 221.901 262.04C222.201 262.038 222.498 262.103 222.769 262.23C224.875 262.766 226.774 263.92 228.219 265.543C229.664 267.167 230.591 269.186 230.879 271.34C231.337 274.123 230.738 276.976 229.199 279.34C229.016 279.604 228.772 279.819 228.489 279.969C228.205 280.119 227.89 280.198 227.569 280.2Z" fill="#2E353A"/>
<path d="M400.619 374.5L405.539 372.69" stroke="#2E353A" stroke-width="0.567964" stroke-linecap="round" stroke-linejoin="round"/>
<path d="M303.488 410.38L396.148 376.16" stroke="#2E353A" stroke-width="0.567964" stroke-linecap="round" stroke-linejoin="round"/>
<path d="M306.09 394.91L394.52 362.25" stroke="#2E353A" stroke-width="0.567964" stroke-linecap="round" stroke-linejoin="round"/>
<path d="M292.469 399.94L300.209 397.08" stroke="#2E353A" stroke-width="0.567964" stroke-linecap="round" stroke-linejoin="round"/>
<path d="M281.449 389.5L383.509 351.81" stroke="#2E353A" stroke-width="0.567964" stroke-linecap="round" stroke-linejoin="round"/>
<path d="M270.439 379.07L372.489 341.38" stroke="#2E353A" stroke-width="0.567964" stroke-linecap="round" stroke-linejoin="round"/>
<path d="M357.189 332.52L361.469 330.94" stroke="#2E353A" stroke-width="0.567964" stroke-linecap="round" stroke-linejoin="round"/>
<path d="M259.42 368.63L351.07 334.78" stroke="#2E353A" stroke-width="0.567964" stroke-linecap="round" stroke-linejoin="round"/>
<path d="M248.398 358.19L350.458 320.5" stroke="#2E353A" stroke-width="0.567964" stroke-linecap="round" stroke-linejoin="round"/>
<path d="M237.379 347.76L339.439 310.07" stroke="#2E353A" stroke-width="0.567964" stroke-linecap="round" stroke-linejoin="round"/>
<path d="M226.369 337.32L328.419 299.63" stroke="#2E353A" stroke-width="0.567964" stroke-linecap="round" stroke-linejoin="round"/>
<path d="M215.35 326.88L317.4 289.19" stroke="#2E353A" stroke-width="0.567964" stroke-linecap="round" stroke-linejoin="round"/>
<path d="M302.77 280.09L306.39 278.75" stroke="#2E353A" stroke-width="0.567964" stroke-linecap="round" stroke-linejoin="round"/>
<path d="M204.328 316.44L299.628 281.25" stroke="#2E353A" stroke-width="0.567964" stroke-linecap="round" stroke-linejoin="round"/>
<path d="M223.779 294.75L295.369 268.32" stroke="#2E353A" stroke-width="0.567964" stroke-linecap="round" stroke-linejoin="round"/>
<path d="M193.318 306.01L213.028 298.73" stroke="#2E353A" stroke-width="0.567964" stroke-linecap="round" stroke-linejoin="round"/>
<path d="M189.191 187.09C189.191 187.09 205.141 166.99 210.541 159.8C215.941 152.61 219.851 147.08 219.851 147.08C219.851 147.08 222.731 149.35 221.851 151.93C220.971 154.51 202.001 180.42 197.781 187C193.561 193.58 194.151 201.91 194.461 204.78C194.771 207.65 186.401 198.27 189.191 187.09Z" fill="white" stroke="#2E353A" stroke-width="1.27267" stroke-linecap="round" stroke-linejoin="round"/>
<path d="M219.85 147.08C219.85 147.08 229.78 133.27 237.15 121.77C244.52 110.27 255.28 93 257.84 90.7C260.4 88.4 261.02 94.4 260.19 98.42C259.36 102.44 250.55 113.66 244.6 122.86C238.65 132.06 234.97 138.68 229.85 144.72C224.73 150.76 225.03 151.05 221.85 151.93C218.67 152.81 219.29 149.66 219.85 147.08Z" fill="#2E353A" stroke="#2E353A" stroke-width="1.27267" stroke-linecap="round" stroke-linejoin="round"/>
<path d="M185.76 189.11C186.86 181.66 189.35 167.9 195.04 163.57C200.73 159.24 217.95 162.57 219.38 162.83C220.81 163.09 243.47 168.11 250.38 172.36C257.29 176.61 261.93 188.89 263.7 196C265.47 203.11 269.27 215.15 269.84 216C269.84 216 275.59 218.53 278.74 218.23C281.89 217.93 286.08 203.29 294.9 194.64C303.72 185.99 308.3 184.81 318.04 185.64C327.78 186.47 364.78 196.5 368.53 200.19C372.28 203.88 374.62 212.19 373.81 218.19C373 224.19 374.18 230.79 374.18 231.93C374.18 233.07 377.65 236.78 376.81 239.93C375.97 243.08 375.45 249.93 372.88 250.84C370.31 251.75 351.4 251.27 337.36 249.36C323.32 247.45 303.79 238.98 290.86 233.06C277.93 227.14 271.62 224.59 262.17 224.66C252.72 224.73 234.4 225.13 217.48 221.23C200.56 217.33 189.06 210.23 185.88 207.12C182.7 204.01 184.67 196.57 185.76 189.11ZM287.08 224.23C291.71 231.08 310.37 237.83 320.41 240.62C330.45 243.41 354.53 248.41 360.81 244.94C367.09 241.47 370.39 220.82 369.81 213.66C369.23 206.5 366.3 202.52 366.3 202.52C353.93 194.87 315.22 186.82 307.22 190.03C299.22 193.24 291.57 203.59 288.76 211.91C285.95 220.23 287.08 224.23 287.08 224.23ZM206.25 212.46C218.61 219.82 238.1 221.98 245.83 222.22C253.56 222.46 260.98 218.4 261.21 209.52C261.44 200.64 256.76 185.78 255.01 181.52C253.26 177.26 247.52 174.7 247.52 174.7C239.77 171.03 207.64 162.94 202.2 163.84C196.76 164.74 192 173 190.89 185.07C189.78 197.14 193.89 205.1 206.25 212.46Z" fill="#2E353A" stroke="#2E353A" stroke-width="1.27267" stroke-linecap="round" stroke-linejoin="round"/>
<path d="M373.32 231.68C373.32 231.68 376.5 236.53 378.77 233.08C381.04 229.63 410.32 196.79 410.32 196.79C410.32 196.79 411.46 196.49 411.19 198.79C410.92 201.09 380.27 242.24 379.13 244.25C377.99 246.26 373.13 246.87 371.99 246.02C370.85 245.17 373.32 231.68 373.32 231.68Z" fill="white" stroke="#2E353A" stroke-width="1.27267" stroke-linecap="round" stroke-linejoin="round"/>
<path d="M408.32 197.94C409.993 194.961 411.502 191.893 412.84 188.75C415.94 181.86 417.84 168.39 418.34 154.35C418.84 140.31 419.34 132.01 421.93 134.57C424.52 137.13 422.3 150.9 421.82 161.77C421.34 172.64 417.96 183.56 417.14 189.3C416.52 193.63 413.2 200.49 410.91 200.5C408.62 200.51 408.91 199.94 408.32 197.94Z" fill="#2E353A" stroke="#2E353A" stroke-width="1.27267" stroke-linecap="round" stroke-linejoin="round"/>
<path d="M219.379 377.44L231.969 391.69L213.249 387.47L80.0488 305.98L86.1888 295.95L219.379 377.44Z" fill="white" stroke="#2E353A" stroke-width="1.4364" stroke-linecap="round" stroke-linejoin="round"/>
<g style="mix-blend-mode:multiply" opacity="0.5">
<path d="M219.379 377.44L231.969 391.69L213.249 387.47L80.0488 305.98L86.1888 295.95L219.379 377.44Z" fill="#00AF66"/>
<path d="M219.379 377.44L231.969 391.69L213.249 387.47L80.0488 305.98L86.1888 295.95L219.379 377.44Z" stroke="#2E353A" stroke-width="1.4364" stroke-linecap="round" stroke-linejoin="round"/>
</g>
<path d="M84.7946 298.233L81.4492 303.701L214.646 385.196L217.991 379.728L84.7946 298.233Z" stroke="#2E353A" stroke-width="0.718198" stroke-linecap="round" stroke-linejoin="round"/>
<path d="M219.409 377.47L213.279 387.48L231.969 391.69L219.409 377.47Z" fill="white" stroke="#2E353A" stroke-width="1.4364" stroke-linecap="round" stroke-linejoin="round"/>
<path d="M222.619 389.58L231.969 391.69L225.689 384.58L222.619 389.58Z" fill="#00AF66" stroke="#2E353A" stroke-width="1.4364" stroke-linecap="round" stroke-linejoin="round"/>
<path d="M68.2098 291.84C67.8059 292.498 67.5356 293.229 67.4145 293.991C67.2934 294.753 67.3238 295.532 67.504 296.282C67.6842 297.033 68.0106 297.74 68.4646 298.365C68.9186 298.989 69.4913 299.517 70.1498 299.92L80.0498 305.98L86.1898 295.98L76.2898 289.92C74.9632 289.105 73.3676 288.85 71.8529 289.21C70.3381 289.57 69.028 290.515 68.2098 291.84Z" fill="white" stroke="#2E353A" stroke-width="1.4364" stroke-linecap="round" stroke-linejoin="round"/>
<path d="M68.2098 291.84C67.8059 292.498 67.5356 293.229 67.4145 293.991C67.2934 294.753 67.3238 295.532 67.504 296.282C67.6842 297.033 68.0106 297.74 68.4646 298.365C68.9186 298.989 69.4913 299.517 70.1498 299.92L74.8898 302.82L81.0298 292.82L76.2898 289.92C74.9632 289.105 73.3676 288.85 71.8529 289.21C70.3381 289.57 69.028 290.515 68.2098 291.84Z" fill="#2E353A" stroke="#2E353A" stroke-width="1.4364" stroke-linecap="round" stroke-linejoin="round"/>
<path d="M337 244.09L333.49 241.62C332.947 241.239 332.326 240.986 331.671 240.878C331.017 240.771 330.346 240.812 329.71 241C326 242.08 319 244.83 317 247C314.4 249.68 313.58 254.53 314.83 256.81C316.08 259.09 321.21 262 321.21 262L342.7 248.92L337 244.09Z" fill="white" stroke="#2E353A" stroke-width="0.9473" stroke-miterlimit="10"/>
<g style="mix-blend-mode:multiply" opacity="0.5">
<path d="M337 244.09L333.49 241.62C332.947 241.239 332.326 240.986 331.671 240.878C331.017 240.771 330.346 240.812 329.71 241C326 242.08 319 244.83 317 247C314.4 249.68 313.58 254.53 314.83 256.81C316.08 259.09 321.21 262 321.21 262L342.7 248.92L337 244.09Z" fill="#00AF66"/>
<path d="M337 244.09L333.49 241.62C332.947 241.239 332.326 240.986 331.671 240.878C331.017 240.771 330.346 240.812 329.71 241C326 242.08 319 244.83 317 247C314.4 249.68 313.58 254.53 314.83 256.81C316.08 259.09 321.21 262 321.21 262L342.7 248.92L337 244.09Z" stroke="#2E353A" stroke-width="0.9473" stroke-miterlimit="10"/>
</g>
<path d="M339.19 243.08L322.19 250.85C322.19 250.85 316.44 254.1 318.26 264.05L417.81 337.35C417.81 337.35 421.27 339.87 427.52 337.74C433.77 335.61 440.17 328.24 441.52 322.01C442.87 315.78 438.52 313.82 437.71 313.13C436.9 312.44 342.55 243.82 342.55 243.82C341.553 243.184 340.363 242.921 339.19 243.08Z" fill="white" stroke="#2E353A" stroke-width="0.9473" stroke-miterlimit="10"/>
<g style="mix-blend-mode:multiply" opacity="0.5">
<path d="M339.19 243.08L322.19 250.85C322.19 250.85 316.44 254.1 318.26 264.05L417.81 337.35C417.81 337.35 421.27 339.87 427.52 337.74C433.77 335.61 440.17 328.24 441.52 322.01C442.87 315.78 438.52 313.82 437.71 313.13C436.9 312.44 342.55 243.82 342.55 243.82C341.553 243.184 340.363 242.921 339.19 243.08Z" fill="#00AF66"/>
<path d="M339.19 243.08L322.19 250.85C322.19 250.85 316.44 254.1 318.26 264.05L417.81 337.35C417.81 337.35 421.27 339.87 427.52 337.74C433.77 335.61 440.17 328.24 441.52 322.01C442.87 315.78 438.52 313.82 437.71 313.13C436.9 312.44 342.55 243.82 342.55 243.82C341.553 243.184 340.363 242.921 339.19 243.08Z" stroke="#2E353A" stroke-width="0.9473" stroke-miterlimit="10"/>
</g>
<path d="M434.821 332.57C428.551 338.42 420.961 340.48 417.821 337.16C414.681 333.84 417.271 326.39 423.541 320.53C429.811 314.67 437.401 312.62 440.541 315.94C443.681 319.26 441.081 326.71 434.821 332.57Z" fill="white" stroke="#2E353A" stroke-width="0.9473" stroke-miterlimit="10"/>
<g style="mix-blend-mode:multiply">
<path d="M434.821 332.57C428.551 338.42 420.961 340.48 417.821 337.16C414.681 333.84 417.271 326.39 423.541 320.53C429.811 314.67 437.401 312.62 440.541 315.94C443.681 319.26 441.081 326.71 434.821 332.57Z" fill="#00AF66"/>
<path d="M434.821 332.57C428.551 338.42 420.961 340.48 417.821 337.16C414.681 333.84 417.271 326.39 423.541 320.53C429.811 314.67 437.401 312.62 440.541 315.94C443.681 319.26 441.081 326.71 434.821 332.57Z" stroke="#2E353A" stroke-width="0.9473" stroke-miterlimit="10"/>
</g>
<path d="M342.54 243.82C341.546 243.186 340.359 242.924 339.19 243.08L322.19 250.85C322.19 250.85 316.44 254.1 318.26 264.05L387.1 314.74C386.61 312.4 386.7 308.98 389.33 304.92C391.77 301.13 402.73 295.02 408.65 291.92C380.63 271.53 342.54 243.82 342.54 243.82Z" fill="#2E353A" stroke="#2E353A" stroke-width="1.27267" stroke-linecap="round" stroke-linejoin="round"/>
<path d="M421.53 320.35L385.17 294C384.626 293.606 384.19 293.082 383.902 292.475C383.614 291.868 383.483 291.199 383.522 290.528C383.561 289.858 383.768 289.208 384.124 288.638C384.481 288.069 384.974 287.598 385.56 287.27L391.19 284.2C391.851 283.842 392.599 283.678 393.349 283.726C394.099 283.773 394.82 284.031 395.43 284.47L433.87 312.31" fill="white"/>
<path d="M421.53 320.35L385.17 294C384.626 293.606 384.19 293.082 383.902 292.475C383.614 291.868 383.483 291.199 383.522 290.528C383.561 289.858 383.768 289.208 384.124 288.638C384.481 288.069 384.974 287.598 385.56 287.27L391.19 284.2C391.851 283.842 392.599 283.678 393.349 283.726C394.099 283.773 394.82 284.031 395.43 284.47L433.87 312.31" stroke="#2E353A" stroke-width="0.9473" stroke-miterlimit="10"/>
<g style="mix-blend-mode:multiply" opacity="0.5">
<path d="M421.53 320.35L385.17 294C384.626 293.606 384.19 293.082 383.902 292.475C383.614 291.868 383.483 291.199 383.522 290.528C383.561 289.858 383.768 289.208 384.124 288.638C384.481 288.069 384.974 287.598 385.56 287.27L391.19 284.2C391.851 283.842 392.599 283.678 393.349 283.726C394.099 283.773 394.82 284.031 395.43 284.47L433.87 312.31" fill="#00AF66"/>
<path d="M421.53 320.35L385.17 294C384.626 293.606 384.19 293.082 383.902 292.475C383.614 291.868 383.483 291.199 383.522 290.528C383.561 289.858 383.768 289.208 384.124 288.638C384.481 288.069 384.974 287.598 385.56 287.27L391.19 284.2C391.851 283.842 392.599 283.678 393.349 283.726C394.099 283.773 394.82 284.031 395.43 284.47L433.87 312.31" stroke="#2E353A" stroke-width="0.9473" stroke-miterlimit="10"/>
</g>
</svg>
