<svg width="24" height="24" viewBox="0 0 24 24" fill="none" xmlns="http://www.w3.org/2000/svg">
<path d="M13.6 21.076L19.06 17.924C19.644 17.587 19.935 17.419 20.147 17.184C20.3346 16.9758 20.4763 16.7305 20.563 16.464C20.66 16.163 20.66 15.827 20.66 15.157V8.84305C20.66 8.17305 20.66 7.83704 20.562 7.53604C20.4753 7.26955 20.3336 7.02425 20.146 6.81604C19.936 6.58204 19.646 6.41404 19.067 6.08004L13.6 2.92405C13.017 2.58705 12.726 2.41905 12.416 2.35405C12.1417 2.29572 11.8583 2.29572 11.584 2.35405C11.274 2.41905 10.983 2.58705 10.4 2.92405L4.938 6.07705C4.356 6.41305 4.065 6.58104 3.854 6.81604C3.66642 7.02425 3.52469 7.26955 3.438 7.53604C3.34 7.83804 3.34 8.17404 3.34 8.84704V15.152C3.34 15.825 3.34 16.162 3.438 16.463C3.52469 16.7295 3.66642 16.9748 3.854 17.183C4.065 17.419 4.357 17.587 4.939 17.923L10.399 21.076C10.983 21.413 11.274 21.581 11.584 21.646C11.858 21.705 12.142 21.705 12.416 21.646C12.726 21.581 13.017 21.413 13.6 21.076Z" stroke="#1A202C" stroke-width="1.84615" stroke-linecap="round" stroke-linejoin="round"/>
<path d="M9 12C9 12.7956 9.31607 13.5587 9.87868 14.1213C10.4413 14.6839 11.2044 15 12 15C12.7956 15 13.5587 14.6839 14.1213 14.1213C14.6839 13.5587 15 12.7956 15 12C15 11.2044 14.6839 10.4413 14.1213 9.87868C13.5587 9.31607 12.7956 9 12 9C11.2044 9 10.4413 9.31607 9.87868 9.87868C9.31607 10.4413 9 11.2044 9 12Z" stroke="#1A202C" stroke-width="1.84615" stroke-linecap="round" stroke-linejoin="round"/>
</svg>
