<svg width="550" height="550" viewBox="0 0 550 550" fill="none" xmlns="http://www.w3.org/2000/svg">
<g clip-path="url(#clip0_1293_13411)">
<path d="M596.047 454.581H-43.4883V454.901H596.047V454.581Z" fill="#EBEBEB"/>
<path d="M531.968 475.162H489.605V475.482H531.968V475.162Z" fill="#EBEBEB"/>
<path d="M380.166 478.641H369.051V478.96H380.166V478.641Z" fill="#EBEBEB"/>
<path d="M488.323 463.292H463.777V463.612H488.323V463.292Z" fill="#EBEBEB"/>
<path d="M78.8563 465.441H23.6133V465.761H78.8563V465.441Z" fill="#EBEBEB"/>
<path d="M98.3465 465.441H90.25V465.761H98.3465V465.441Z" fill="#EBEBEB"/>
<path d="M244.491 470.838H124.668V471.158H244.491V470.838Z" fill="#EBEBEB"/>
<path d="M259.653 397.535H12.6774C10.7426 397.531 8.88824 396.761 7.52134 395.391C6.15443 394.022 5.38672 392.166 5.38672 390.231V43.0535C5.40356 41.1298 6.17871 39.2904 7.5438 37.9349C8.90888 36.5794 10.7537 35.8173 12.6774 35.814H259.653C261.59 35.814 263.448 36.5834 264.817 37.9531C266.187 39.3228 266.957 41.1804 266.957 43.1175V390.231C266.957 392.168 266.187 394.026 264.817 395.396C263.448 396.765 261.59 397.535 259.653 397.535ZM12.6774 36.0698C10.8274 36.0732 9.05438 36.8104 7.74745 38.1198C6.44051 39.4291 5.70648 41.2035 5.70649 43.0535V390.231C5.70648 392.081 6.44051 393.856 7.74745 395.165C9.05438 396.474 10.8274 397.212 12.6774 397.215H259.653C261.504 397.212 263.279 396.475 264.587 395.166C265.896 393.857 266.633 392.083 266.637 390.231V43.0535C266.633 41.2023 265.896 39.428 264.587 38.119C263.279 36.81 261.504 36.0732 259.653 36.0698H12.6774Z" fill="#EBEBEB"/>
<path d="M536.327 397.535H289.339C287.403 397.531 285.547 396.761 284.178 395.392C282.809 394.023 282.039 392.167 282.035 390.231V43.0535C282.055 41.1286 282.833 39.2893 284.2 37.9341C285.568 36.579 287.414 35.8172 289.339 35.814H536.327C538.249 35.8206 540.09 36.5843 541.452 37.9394C542.815 39.2946 543.588 41.132 543.605 43.0535V390.231C543.605 392.164 542.839 394.018 541.475 395.387C540.111 396.756 538.26 397.528 536.327 397.535ZM289.339 36.0698C287.487 36.0732 285.713 36.81 284.404 38.119C283.095 39.428 282.358 41.2023 282.355 43.0535V390.231C282.358 392.083 283.095 393.857 284.404 395.166C285.713 396.475 287.487 397.212 289.339 397.215H536.327C538.178 397.212 539.953 396.475 541.262 395.166C542.57 393.857 543.307 392.083 543.311 390.231V43.0535C543.307 41.2023 542.57 39.428 541.262 38.119C539.953 36.81 538.178 36.0732 536.327 36.0698H289.339Z" fill="#EBEBEB"/>
<path d="M128.404 140.02H57.4023L58.4896 130.414H129.491L128.404 140.02Z" fill="#F5F5F5"/>
<path d="M123.314 184.89H52.3125L53.3997 175.284H124.401L123.314 184.89Z" fill="#F5F5F5"/>
<path d="M118.236 229.759H47.2344L48.3216 220.166H119.323L118.236 229.759Z" fill="#F5F5F5"/>
<path d="M113.146 274.629H42.1445L43.2317 265.036H114.233L113.146 274.629Z" fill="#F5F5F5"/>
<path d="M108.068 319.499H37.0664L38.1536 309.906H109.155L108.068 319.499Z" fill="#F5F5F5"/>
<path d="M102.993 364.382H31.9922L33.0794 354.776H104.068L102.993 364.382Z" fill="#F5F5F5"/>
<path d="M97.9035 409.251H26.9023L27.9896 399.646H98.9907L97.9035 409.251Z" fill="#F5F5F5"/>
<path d="M26.619 454.901H15.5039L54.426 111.317H65.5411L26.619 454.901Z" fill="#EBEBEB"/>
<path d="M98.9628 454.901H87.8477L126.77 111.317H137.885L98.9628 454.901Z" fill="#EBEBEB"/>
<path d="M524.856 91.6196H390.938V454.901H524.856V91.6196Z" fill="#F5F5F5"/>
<path d="M517.525 99.6013H398.277V158.861H517.525V99.6013Z" fill="#EBEBEB"/>
<path d="M450.055 121.985H413.18V158.861H450.055V121.985Z" fill="#F0F0F0"/>
<path d="M489.551 132.614H463.305V158.861H489.551V132.614Z" fill="#F0F0F0"/>
<path d="M517.525 165.077H398.277V224.336H517.525V165.077Z" fill="#EBEBEB"/>
<path d="M430.933 187.46H413.18V224.336H430.933V187.46Z" fill="#F0F0F0"/>
<path d="M489.564 209.217H450.066V224.336H489.564V209.217Z" fill="#F0F0F0"/>
<path d="M480.905 186.667H442.559V209.217H480.905V186.667Z" fill="#F0F0F0"/>
<path d="M517.525 230.552H398.277V289.812H517.525V230.552Z" fill="#EBEBEB"/>
<path d="M450.067 252.936H442.559V289.812H450.067V252.936Z" fill="#F0F0F0"/>
<path d="M509.351 239.902H463.305V289.812H509.351V239.902Z" fill="#F0F0F0"/>
<path d="M517.525 296.028H398.277V355.287H517.525V296.028Z" fill="#EBEBEB"/>
<path d="M450.055 318.412H413.18V355.287H450.055V318.412Z" fill="#F0F0F0"/>
<path d="M489.551 329.041H463.305V355.287H489.551V329.041Z" fill="#F0F0F0"/>
<path d="M517.525 361.503H398.277V420.763H517.525V361.503Z" fill="#EBEBEB"/>
<path d="M450.055 383.875H413.18V420.75H450.055V383.875Z" fill="#F0F0F0"/>
<path d="M489.551 394.516H463.305V420.763H489.551V394.516Z" fill="#F0F0F0"/>
<path d="M450.065 73.3547H409.672V91.6199H450.065V73.3547Z" fill="#F0F0F0"/>
<path d="M486.328 82.4875H465.543V91.6201H486.328V82.4875Z" fill="#F0F0F0"/>
<path d="M81.0541 454.901H197.027V350.9H81.0541L81.0541 454.901Z" fill="#EBEBEB"/>
<path d="M156.66 454.901H197.027V350.9H156.66V454.901Z" fill="#E0E0E0"/>
<path d="M57.9642 353.049H173.938V268.387H57.9642L57.9642 353.049Z" fill="#F5F5F5"/>
<path d="M133.57 353.049H173.938V268.387H133.57V353.049Z" fill="#EBEBEB"/>
<path d="M85.1855 268.374H197.027V226.932H85.1855V268.374Z" fill="#FAFAFA"/>
<path d="M158.094 268.374H197.016V226.932H158.094V268.374Z" fill="#F0F0F0"/>
<path d="M198.945 73.3547H40.5195V82.4873H198.945V73.3547Z" fill="#F0F0F0"/>
<path d="M75.323 60.436H52.3125V73.3546H75.323V60.436Z" fill="#F5F5F5"/>
<path d="M105.012 48.9756H80.6328V73.3547H105.012V48.9756Z" fill="#F0F0F0"/>
<path d="M125.986 61.1648H113.797V73.3543H125.986V61.1648Z" fill="#EBEBEB"/>
<path d="M146.633 67.4706C146.636 68.7214 146.267 69.9448 145.574 70.9859C144.88 72.0269 143.894 72.8388 142.739 73.3186C141.584 73.7984 140.312 73.9246 139.085 73.6812C137.858 73.4378 136.731 72.8358 135.847 71.9513C134.962 71.0669 134.36 69.9398 134.117 68.713C133.873 67.4861 134 66.2146 134.48 65.0595C134.959 63.9044 135.771 62.9177 136.812 62.2243C137.853 61.531 139.077 61.1623 140.327 61.1648C141.999 61.1682 143.601 61.8336 144.783 63.0155C145.964 64.1973 146.63 65.7993 146.633 67.4706Z" fill="#F5F5F5"/>
<path d="M154.613 73.3547L162.275 48.9756H174.925L181.921 73.7895L154.613 73.3547Z" fill="#EBEBEB"/>
<path d="M276.28 512.344C413.246 512.344 524.279 505.862 524.279 497.865C524.279 489.868 413.246 483.386 276.28 483.386C139.314 483.386 28.2812 489.868 28.2812 497.865C28.2812 505.862 139.314 512.344 276.28 512.344Z" fill="#F5F5F5"/>
<path d="M375.563 116.868V496.074C375.565 496.809 375.42 497.537 375.138 498.215C374.856 498.894 374.441 499.509 373.918 500.026C373.396 500.543 372.775 500.95 372.094 501.225C371.412 501.499 370.683 501.635 369.948 501.625H193.436C192.783 501.635 192.134 501.515 191.528 501.271C190.922 501.027 190.37 500.665 189.906 500.205C189.425 499.724 189.045 499.151 188.788 498.521C188.531 497.89 188.402 497.215 188.409 496.535V116.395C188.364 115.21 188.792 114.055 189.598 113.184C190.403 112.314 191.522 111.799 192.707 111.752H242.834C243.534 111.765 244.214 111.986 244.788 112.387C245.362 112.788 245.804 113.351 246.057 114.003L248.142 119.119C248.396 119.771 248.838 120.331 249.412 120.73C249.987 121.129 250.666 121.347 251.365 121.358H312.761C313.456 121.354 314.134 121.142 314.708 120.75C315.283 120.358 315.727 119.804 315.984 119.158L318.069 114.041C318.32 113.387 318.761 112.821 319.335 112.418C319.909 112.015 320.591 111.792 321.292 111.778H370.69C372 111.84 373.236 112.403 374.143 113.35C375.049 114.297 375.558 115.557 375.563 116.868Z" fill="#00AF66"/>
<path opacity="0.6" d="M211.703 127.037H214.312V123.558H211.703V127.037Z" fill="white"/>
<path opacity="0.6" d="M207.438 127.037H210.047V122.407H207.438V127.037Z" fill="white"/>
<path opacity="0.6" d="M203.207 127.037H205.816V121.243H203.207V127.037Z" fill="white"/>
<path opacity="0.6" d="M198.945 127.037H201.555V120.079H198.945V127.037Z" fill="white"/>
<path opacity="0.6" d="M351.669 122.292H350.121V125.771H351.669V122.292Z" fill="white"/>
<path opacity="0.6" d="M352.745 127.037H365.062V121.025H352.745V127.037Z" fill="white"/>
<g opacity="0.1">
<path d="M272.621 121.358L218.721 323.144L218.12 325.421L217.148 329.066L216.534 331.33L188.395 436.7V309.176L241.105 111.739H242.819C243.519 111.751 244.2 111.971 244.774 112.372C245.349 112.774 245.79 113.337 246.042 113.99L248.127 119.107C248.38 119.759 248.822 120.32 249.396 120.719C249.97 121.118 250.651 121.336 251.35 121.345L272.621 121.358Z" fill="white"/>
<path d="M375.561 224.412V351.936L341.972 477.796L341.154 480.853L335.602 501.625H301.566L307.105 480.866L308 477.54L312.438 460.861L313.334 457.523L315.125 450.859L316.007 447.521L317.785 440.857L318.668 437.518L346.679 332.609V332.596L347.971 327.761V327.748L375.561 224.412Z" fill="white"/>
<path d="M291.066 121.358L237.537 321.89L237.205 323.093L234.276 334.08L233.956 335.282L189.93 500.206C189.449 499.724 189.069 499.151 188.812 498.521C188.555 497.891 188.427 497.215 188.434 496.535V477.093L226.307 335.231L226.627 334.029L229.556 323.042L229.876 321.839L283.418 121.307L291.066 121.358Z" fill="white"/>
</g>
<path opacity="0.3" d="M375.561 136.476H188.434V484.831H375.561V136.476Z" fill="white"/>
<path d="M339.555 289.555C341.285 289.555 342.944 288.868 344.167 287.645C345.39 286.422 346.078 284.762 346.078 283.032V180.131C346.074 178.403 345.386 176.747 344.163 175.527C342.94 174.306 341.282 173.621 339.555 173.621C337.827 173.621 336.169 174.306 334.946 175.527C333.723 176.747 333.035 178.403 333.031 180.131V283.032C333.031 284.762 333.719 286.422 334.942 287.645C336.165 288.868 337.824 289.555 339.555 289.555Z" fill="#00AF66"/>
<path opacity="0.3" d="M339.551 286.998C338.499 286.998 337.491 286.58 336.747 285.836C336.004 285.093 335.586 284.084 335.586 283.033V180.131C335.586 179.08 336.004 178.071 336.747 177.328C337.491 176.584 338.499 176.166 339.551 176.166C340.603 176.166 341.611 176.584 342.355 177.328C343.098 178.071 343.516 179.08 343.516 180.131V283.033C343.516 284.084 343.098 285.093 342.355 285.836C341.611 286.58 340.603 286.998 339.551 286.998Z" fill="black"/>
<path d="M348.901 191.802C349.738 186.649 346.239 181.794 341.086 180.957C335.933 180.121 331.078 183.62 330.241 188.773C329.405 193.926 332.904 198.781 338.057 199.618C343.21 200.454 348.065 196.955 348.901 191.802Z" fill="#00AF66"/>
<path d="M301.18 289.555C302.036 289.555 302.884 289.387 303.676 289.059C304.467 288.731 305.186 288.251 305.792 287.645C306.398 287.039 306.878 286.32 307.206 285.529C307.534 284.737 307.703 283.889 307.703 283.032V180.131C307.699 178.403 307.011 176.747 305.788 175.527C304.565 174.306 302.907 173.621 301.18 173.621C299.452 173.621 297.794 174.306 296.571 175.527C295.348 176.747 294.66 178.403 294.656 180.131V283.032C294.656 284.762 295.344 286.422 296.567 287.645C297.79 288.868 299.449 289.555 301.18 289.555Z" fill="#00AF66"/>
<path opacity="0.3" d="M301.18 286.998C300.128 286.998 299.12 286.58 298.376 285.836C297.633 285.093 297.215 284.084 297.215 283.033V180.131C297.215 179.08 297.633 178.071 298.376 177.328C299.12 176.584 300.128 176.166 301.18 176.166C302.232 176.166 303.24 176.584 303.984 177.328C304.727 178.071 305.145 179.08 305.145 180.131V283.033C305.145 284.084 304.727 285.093 303.984 285.836C303.24 286.58 302.232 286.998 301.18 286.998Z" fill="black"/>
<path d="M310.526 268.541C311.363 263.388 307.864 258.532 302.711 257.696C297.558 256.859 292.703 260.359 291.866 265.512C291.03 270.665 294.529 275.52 299.682 276.356C304.835 277.193 309.69 273.694 310.526 268.541Z" fill="#00AF66"/>
<path d="M262.808 289.555C264.538 289.555 266.198 288.868 267.421 287.645C268.644 286.422 269.332 284.762 269.332 283.032V180.131C269.328 178.403 268.64 176.747 267.417 175.527C266.194 174.306 264.536 173.621 262.808 173.621C261.081 173.621 259.423 174.306 258.2 175.527C256.977 176.747 256.289 178.403 256.285 180.131V283.032C256.285 284.762 256.972 286.422 258.196 287.645C259.419 288.868 261.078 289.555 262.808 289.555Z" fill="#00AF66"/>
<path opacity="0.3" d="M262.809 286.998C261.757 286.998 260.749 286.58 260.005 285.836C259.262 285.093 258.844 284.084 258.844 283.033V180.131C258.844 179.08 259.262 178.071 260.005 177.328C260.749 176.584 261.757 176.166 262.809 176.166C263.86 176.166 264.869 176.584 265.613 177.328C266.356 178.071 266.774 179.08 266.774 180.131V283.033C266.774 284.084 266.356 285.093 265.613 285.836C264.869 286.58 263.86 286.998 262.809 286.998Z" fill="black"/>
<path d="M272.151 217.382C272.988 212.229 269.489 207.374 264.336 206.538C259.183 205.701 254.328 209.2 253.491 214.353C252.655 219.506 256.154 224.362 261.307 225.198C266.46 226.035 271.315 222.535 272.151 217.382Z" fill="#00AF66"/>
<path d="M224.437 289.555C226.167 289.555 227.827 288.868 229.05 287.645C230.273 286.422 230.961 284.762 230.961 283.032V180.131C230.957 178.403 230.268 176.747 229.045 175.527C227.822 174.306 226.165 173.621 224.437 173.621C222.709 173.621 221.052 174.306 219.829 175.527C218.606 176.747 217.917 178.403 217.914 180.131V283.032C217.914 284.762 218.601 286.422 219.825 287.645C221.048 288.868 222.707 289.555 224.437 289.555Z" fill="#00AF66"/>
<path opacity="0.3" d="M224.438 286.998C223.386 286.998 222.378 286.58 221.634 285.836C220.89 285.093 220.473 284.084 220.473 283.033V180.131C220.473 179.08 220.89 178.071 221.634 177.328C222.378 176.584 223.386 176.166 224.438 176.166C225.489 176.166 226.498 176.584 227.242 177.328C227.985 178.071 228.403 179.08 228.403 180.131V283.033C228.403 284.084 227.985 285.093 227.242 285.836C226.498 286.58 225.489 286.998 224.438 286.998Z" fill="black"/>
<path d="M233.776 255.753C234.613 250.6 231.114 245.745 225.961 244.908C220.808 244.072 215.953 247.571 215.116 252.724C214.28 257.877 217.779 262.732 222.932 263.569C228.085 264.405 232.94 260.906 233.776 255.753Z" fill="#00AF66"/>
<path d="M348.901 191.802C349.738 186.649 346.239 181.794 341.086 180.957C335.933 180.121 331.078 183.62 330.241 188.773C329.405 193.926 332.904 198.781 338.057 199.618C343.21 200.454 348.065 196.955 348.901 191.802Z" fill="white"/>
<path d="M339.554 197.168C338.191 197.168 336.858 196.764 335.724 196.006C334.59 195.249 333.707 194.172 333.185 192.912C332.663 191.652 332.527 190.266 332.793 188.929C333.059 187.591 333.715 186.363 334.679 185.399C335.644 184.435 336.872 183.778 338.209 183.512C339.547 183.246 340.933 183.383 342.193 183.904C343.452 184.426 344.529 185.31 345.287 186.444C346.044 187.577 346.449 188.91 346.449 190.274C346.445 192.101 345.718 193.853 344.426 195.145C343.133 196.437 341.382 197.165 339.554 197.168Z" fill="white"/>
<path d="M310.526 268.541C311.363 263.388 307.864 258.532 302.711 257.696C297.558 256.859 292.703 260.359 291.866 265.512C291.03 270.665 294.529 275.52 299.682 276.356C304.835 277.193 309.69 273.694 310.526 268.541Z" fill="white"/>
<path d="M301.183 273.912C299.82 273.912 298.487 273.508 297.353 272.75C296.219 271.993 295.336 270.916 294.814 269.656C294.292 268.397 294.156 267.01 294.422 265.673C294.688 264.336 295.344 263.107 296.308 262.143C297.272 261.179 298.501 260.522 299.838 260.256C301.176 259.99 302.562 260.127 303.822 260.649C305.081 261.17 306.158 262.054 306.916 263.188C307.673 264.321 308.077 265.654 308.077 267.018C308.074 268.845 307.347 270.597 306.054 271.889C304.762 273.181 303.011 273.909 301.183 273.912Z" fill="white"/>
<path d="M272.151 217.382C272.988 212.229 269.489 207.374 264.336 206.538C259.183 205.701 254.328 209.2 253.491 214.353C252.655 219.506 256.154 224.362 261.307 225.198C266.46 226.035 271.315 222.535 272.151 217.382Z" fill="white"/>
<path opacity="0.6" d="M262.808 222.749C261.445 222.749 260.112 222.345 258.978 221.587C257.844 220.83 256.961 219.753 256.439 218.493C255.917 217.234 255.781 215.847 256.047 214.51C256.313 213.173 256.969 211.944 257.933 210.98C258.897 210.016 260.126 209.359 261.463 209.093C262.801 208.827 264.187 208.964 265.447 209.486C266.706 210.008 267.783 210.891 268.541 212.025C269.298 213.159 269.702 214.492 269.702 215.855C269.699 217.683 268.972 219.434 267.679 220.726C266.387 222.018 264.636 222.746 262.808 222.749Z" fill="white"/>
<path d="M233.776 255.753C234.613 250.6 231.114 245.745 225.961 244.908C220.808 244.072 215.953 247.571 215.116 252.724C214.28 257.877 217.779 262.732 222.932 263.569C228.085 264.405 232.94 260.906 233.776 255.753Z" fill="white"/>
<path d="M224.437 261.122C223.074 261.122 221.741 260.717 220.607 259.96C219.473 259.202 218.59 258.125 218.068 256.866C217.546 255.606 217.409 254.22 217.675 252.882C217.941 251.545 218.598 250.317 219.562 249.353C220.526 248.388 221.755 247.732 223.092 247.466C224.43 247.2 225.816 247.336 227.075 247.858C228.335 248.38 229.412 249.263 230.169 250.397C230.927 251.531 231.331 252.864 231.331 254.227C231.328 256.055 230.601 257.806 229.308 259.099C228.016 260.391 226.265 261.118 224.437 261.122Z" fill="white"/>
<path d="M363.001 312.809H200.994C199.051 312.809 197.477 314.384 197.477 316.327V467.641C197.477 469.583 199.051 471.158 200.994 471.158H363.001C364.944 471.158 366.518 469.583 366.518 467.641V316.327C366.518 314.384 364.944 312.809 363.001 312.809Z" fill="#00AF66"/>
<path opacity="0.3" d="M363.001 312.809H200.994C199.051 312.809 197.477 314.384 197.477 316.327V467.641C197.477 469.583 199.051 471.158 200.994 471.158H363.001C364.944 471.158 366.518 469.583 366.518 467.641V316.327C366.518 314.384 364.944 312.809 363.001 312.809Z" fill="black"/>
<path opacity="0.6" d="M266.754 415.454V429.063L273.725 429.767C274.654 434.246 276.424 438.509 278.943 442.327L274.441 447.776L284.073 457.395L289.509 452.892C293.33 455.418 297.597 457.193 302.082 458.124L302.734 465.133H316.356L317.009 458.124C321.493 457.193 325.76 455.418 329.582 452.892L335.018 457.395L344.649 447.776L340.236 442.289C342.754 438.468 344.529 434.207 345.468 429.728L352.477 429.063V415.454L345.468 414.789C344.529 410.306 342.754 406.041 340.236 402.216L344.739 396.78L335.12 387.148L329.684 391.651C325.859 389.134 321.593 387.364 317.111 386.432L316.459 379.423H302.772L302.12 386.432C297.638 387.364 293.372 389.134 289.547 391.651L284.111 387.148L274.479 396.78L278.982 402.216C276.464 406.041 274.689 410.306 273.75 414.789L266.754 415.454ZM309.539 403.827C313.184 403.827 316.748 404.908 319.779 406.933C322.81 408.959 325.172 411.837 326.567 415.205C327.962 418.573 328.327 422.279 327.616 425.854C326.905 429.43 325.149 432.714 322.572 435.292C319.994 437.869 316.71 439.625 313.135 440.336C309.559 441.047 305.853 440.682 302.485 439.287C299.118 437.892 296.239 435.53 294.214 432.499C292.188 429.468 291.107 425.904 291.107 422.259C291.107 419.838 291.584 417.441 292.51 415.205C293.437 412.969 294.794 410.937 296.506 409.226C298.217 407.514 300.249 406.157 302.485 405.23C304.722 404.304 307.118 403.827 309.539 403.827Z" fill="white"/>
<path opacity="0.4" d="M211.574 376.366V387.033L217.074 387.545C217.8 391.058 219.189 394.401 221.167 397.394L217.637 401.627L225.184 409.161L229.443 405.631C232.437 407.608 235.779 409.001 239.292 409.737L239.816 415.224H250.484L250.995 409.737C254.508 409.004 257.851 407.611 260.844 405.631L265.103 409.161L272.65 401.627L269.12 397.355C271.102 394.363 272.495 391.02 273.225 387.506L278.713 386.995V376.327L273.225 375.803C272.49 372.29 271.097 368.949 269.12 365.954L272.65 361.695L265.103 354.148L260.844 357.678C257.847 355.708 254.506 354.319 250.995 353.585L250.484 348.085H239.816L239.292 353.585C235.782 354.322 232.441 355.71 229.443 357.678L225.184 354.148L217.637 361.695L221.167 365.954C219.194 368.949 217.805 372.291 217.074 375.803L211.574 376.366ZM245.15 367.259C248.006 367.259 250.798 368.106 253.173 369.692C255.547 371.279 257.398 373.534 258.491 376.173C259.584 378.812 259.87 381.715 259.313 384.517C258.756 387.318 257.38 389.891 255.361 391.91C253.341 393.93 250.768 395.305 247.967 395.863C245.166 396.42 242.262 396.134 239.624 395.041C236.985 393.948 234.73 392.097 233.143 389.722C231.556 387.347 230.709 384.556 230.709 381.699C230.709 377.869 232.231 374.196 234.939 371.488C237.647 368.78 241.32 367.259 245.15 367.259Z" fill="white"/>
<path opacity="0.2" d="M271.059 343.43V352.384L275.676 352.818C276.297 355.767 277.464 358.574 279.117 361.094L276.149 364.663L282.545 371.058L286.113 368.09C288.633 369.743 291.44 370.91 294.389 371.531L294.824 376.149H303.777L304.212 371.531C307.162 370.913 309.969 369.746 312.488 368.09L316.069 371.058L322.4 364.663L319.433 361.094C321.086 358.574 322.253 355.767 322.874 352.818L327.491 352.384V343.43L322.874 342.995C322.255 340.045 321.088 337.238 319.433 334.72L322.4 331.138L316.069 324.807L312.488 327.774C309.975 326.109 307.165 324.941 304.212 324.334L303.777 319.716H294.824L294.389 324.334C291.436 324.943 288.628 326.111 286.113 327.774L282.545 324.807L276.149 331.138L279.117 334.72C277.462 337.238 276.294 340.045 275.676 342.995L271.059 343.43ZM299.262 335.756C301.663 335.756 304.011 336.468 306.007 337.802C308.004 339.137 309.559 341.033 310.478 343.252C311.396 345.471 311.636 347.912 311.166 350.267C310.697 352.622 309.54 354.785 307.841 356.482C306.142 358.179 303.978 359.334 301.622 359.801C299.267 360.268 296.826 360.025 294.608 359.105C292.39 358.184 290.495 356.626 289.163 354.628C287.831 352.631 287.121 350.282 287.124 347.881C287.129 346.287 287.448 344.71 288.062 343.239C288.677 341.768 289.575 340.433 290.706 339.309C291.837 338.186 293.178 337.296 294.652 336.69C296.127 336.085 297.706 335.776 299.3 335.781L299.262 335.756Z" fill="white"/>
<path opacity="0.6" d="M255.414 378.937L247.893 371.416L237.622 374.179L234.859 384.45L242.38 391.971L252.664 389.221L255.414 378.937Z" fill="white"/>
<path opacity="0.8" d="M311.235 409.187L299.084 414.278L297.434 427.35L307.922 435.331L320.073 430.228L321.736 417.156L311.235 409.187Z" fill="white"/>
<path opacity="0.4" d="M306.809 352.268V343.545L299.262 339.183L291.703 343.545V352.268L299.262 356.63L306.809 352.268Z" fill="white"/>
<path d="M482.449 269.385L496.058 280.436C496.058 280.436 499.384 280.513 500.433 281.613C501.482 282.713 505.549 290.873 504.922 291.986C504.296 293.099 497.645 295.299 496.225 293.981C494.805 292.664 492.388 285.105 492.388 284.299L474.992 272.634L482.449 269.385Z" fill="#FFC4B0"/>
<path d="M490.001 274.245L486.957 280.884C486.957 280.884 468.244 272.122 464.19 267.018C463.154 265.739 461.721 263.603 460.173 261.212C457.615 257.259 454.75 252.501 452.755 249.163C451.271 246.605 450.273 244.967 450.273 244.967L460.864 228.263C463.179 230.041 470.265 258.589 471.532 260.124C472.798 261.659 490.001 274.245 490.001 274.245Z" fill="#263238"/>
<path opacity="0.2" d="M460.169 261.211C457.61 257.259 454.745 252.501 452.75 249.163L457.674 237.011C457.674 237.011 460.348 250.953 460.169 261.211Z" fill="black"/>
<path d="M373.91 205.994L359.559 195.762C359.559 195.762 357.845 192.909 356.374 192.538C354.903 192.167 345.822 192.73 345.131 193.817C344.44 194.905 345.86 201.786 347.689 202.362C349.518 202.937 357.321 201.338 357.998 200.903L372.567 210.97L373.91 205.994Z" fill="#FFC4B0"/>
<path d="M487.134 492.173L479.102 493.593L475.814 482.644L472.809 472.603L482.069 469.367L484.755 481.442L487.134 492.173Z" fill="#FFC4B0"/>
<path opacity="0.2" d="M484.792 481.685L475.852 482.862L472.82 472.706L482.068 469.419L484.792 481.685Z" fill="black"/>
<path d="M433.526 492.378H425.378L424.035 481.442L422.82 471.235L432.503 469.751L433.053 481.749L433.526 492.378Z" fill="#FFC4B0"/>
<path opacity="0.2" d="M433.053 482.478L424.035 482.081L422.82 471.542L432.503 469.917L433.053 482.478Z" fill="black"/>
<path d="M485.549 472.91L472.349 475.238C459.034 442.046 449.556 414.342 442.866 391.357C439.259 378.95 436.407 367.924 434.258 358.101L434.808 394.222V475.814H421.493C388.89 321.046 412.002 285.066 412.002 285.066L451.001 278.543C452.546 285.771 453.64 293.089 454.276 300.453L456.028 313.372L471.287 392.124L485.549 472.91Z" fill="#00AF66"/>
<path d="M470.285 473.601L486.657 468.178L486.427 475.136L472.894 479.459L470.285 473.601Z" fill="#00AF66"/>
<path opacity="0.6" d="M470.285 473.601L486.657 468.178L486.427 475.136L472.894 479.459L470.285 473.601Z" fill="white"/>
<path d="M419.754 474.356L436.817 471.862L435.384 478.679L421.302 480.585L419.754 474.356Z" fill="#00AF66"/>
<path opacity="0.6" d="M419.754 474.356L436.817 471.862L435.384 478.679L421.302 480.585L419.754 474.356Z" fill="white"/>
<path opacity="0.2" d="M444.668 397.433C444.054 395.373 443.389 393.352 442.813 391.357C439.552 380.101 437.365 369.971 434.806 360.89L433.527 344.159C433.527 344.159 441.867 325.779 438.746 312.835C439.04 313.577 444.553 327.672 442.391 341.742C441.886 360.336 442.646 378.942 444.668 397.433Z" fill="black"/>
<path d="M445.779 211.468C445.676 211.545 445.564 211.609 445.447 211.66C443.805 212.593 441.998 213.201 440.126 213.451C434.69 213.975 431.172 212.786 429.126 210.087C426.299 206.071 426.299 199.611 427.757 192.014C428.235 188.97 429.193 186.021 430.597 183.278C430.597 183.278 430.597 183.175 430.597 183.15C430.597 183.124 430.699 182.932 430.763 182.843C431.622 181.307 432.851 180.01 434.339 179.069C435.827 178.129 437.526 177.575 439.282 177.458C440.811 177.32 442.35 177.345 443.873 177.535C458.877 179.325 458.353 204.421 445.779 211.468Z" fill="#FFC4B0"/>
<path opacity="0.2" d="M445.446 211.66C443.8 212.527 442.001 213.065 440.15 213.246C434.714 213.771 431.197 212.402 429.176 209.677C432.235 210.868 435.599 211.025 438.756 210.125C439.914 209.856 441.119 209.854 442.278 210.12C443.437 210.386 444.52 210.913 445.446 211.66Z" fill="black"/>
<path d="M446.561 223.837C447.904 228.02 442.544 230.297 442.544 230.297C433.118 227.329 430.969 222.622 430.969 222.622C438.132 217.941 434.806 207.018 434.806 207.018L436.418 207.632L447.392 208.68C447.392 208.68 444.975 214.705 444.706 216.061C443.389 223.249 446.561 223.837 446.561 223.837Z" fill="#FFC4B0"/>
<path d="M430.598 183.175C430.598 183.175 428.41 193.549 437.748 199.343C437.748 199.343 440.6 210.778 446.855 211.75C455.386 213.029 464.519 201.888 463.163 189.098C461.41 172.508 437.21 168.031 430.598 183.175Z" fill="#263238"/>
<path d="M433.117 195.697C433.334 194.06 434.997 191.489 437.491 192.193C439.985 192.896 440.689 199.586 434.037 200.2C433.078 200.276 432.656 199.087 433.117 195.697Z" fill="#F49B7E"/>
<path d="M424.51 490.83H433.604C433.792 490.834 433.973 490.9 434.119 491.018C434.265 491.136 434.367 491.3 434.41 491.483L436.277 499.924C436.353 500.286 436.283 500.662 436.081 500.972C435.88 501.281 435.564 501.498 435.203 501.574C435.101 501.587 434.998 501.587 434.896 501.574C431.161 501.51 430.867 501.28 426.186 501.28C423.308 501.28 414.674 501.587 410.645 501.587C406.616 501.587 406.142 497.66 407.767 497.29C415.07 495.704 420.558 493.452 422.911 491.393C423.352 491.007 423.924 490.805 424.51 490.83Z" fill="#263238"/>
<path d="M421.377 492.442C420.736 492.493 420.096 492.326 419.561 491.969C419.38 491.827 419.241 491.64 419.158 491.426C419.074 491.212 419.05 490.98 419.087 490.754C419.086 490.624 419.121 490.496 419.189 490.385C419.257 490.274 419.355 490.185 419.471 490.127C420.52 489.59 423.59 491.406 423.922 491.687C423.961 491.708 423.993 491.739 424.014 491.778C424.034 491.817 424.042 491.861 424.037 491.905C424.029 491.95 424.008 491.993 423.976 492.027C423.944 492.061 423.903 492.085 423.858 492.097C423.046 492.302 422.214 492.417 421.377 492.442ZM419.97 490.485C419.874 490.459 419.772 490.459 419.676 490.485C419.676 490.485 419.548 490.575 419.535 490.754C419.517 490.903 419.535 491.054 419.588 491.195C419.642 491.335 419.729 491.46 419.842 491.559C420.904 492.045 422.111 492.109 423.219 491.738C422.222 491.135 421.119 490.727 419.97 490.536V490.485Z" fill="#00AF66"/>
<path d="M423.806 492.16H423.691C422.719 491.636 420.826 489.602 421.017 488.541C421.05 488.373 421.142 488.221 421.275 488.114C421.408 488.006 421.575 487.949 421.747 487.952C421.916 487.936 422.087 487.953 422.249 488.004C422.412 488.054 422.563 488.137 422.693 488.246C423.793 489.129 423.972 491.853 423.972 491.994C423.969 492.034 423.957 492.074 423.937 492.109C423.917 492.144 423.89 492.175 423.857 492.199C423.838 492.189 423.82 492.176 423.806 492.16ZM421.9 488.323H421.785C421.504 488.323 421.478 488.502 421.465 488.553C421.337 489.167 422.552 490.753 423.524 491.482C423.457 490.403 423.064 489.368 422.399 488.515C422.261 488.392 422.085 488.319 421.9 488.31V488.323Z" fill="#00AF66"/>
<path d="M478.793 490.83H487.887C488.076 490.829 488.259 490.894 488.406 491.013C488.553 491.132 488.654 491.298 488.693 491.483L490.573 499.925C490.61 500.104 490.612 500.29 490.577 500.47C490.543 500.65 490.473 500.822 490.372 500.975C490.271 501.129 490.141 501.261 489.989 501.363C489.837 501.466 489.666 501.538 489.486 501.575C489.384 501.587 489.281 501.587 489.179 501.575C485.457 501.511 485.15 501.28 480.481 501.28C477.603 501.28 468.969 501.587 464.928 501.587C460.886 501.587 460.438 497.661 462.063 497.29C469.366 495.704 474.853 493.452 477.194 491.393C477.636 491.009 478.208 490.808 478.793 490.83Z" fill="#263238"/>
<path d="M475.662 492.442C475.021 492.495 474.38 492.328 473.846 491.969C473.665 491.827 473.526 491.64 473.443 491.426C473.359 491.212 473.335 490.98 473.373 490.754C473.369 490.623 473.404 490.495 473.472 490.384C473.54 490.273 473.639 490.183 473.756 490.127C474.805 489.59 477.862 491.406 478.207 491.687C478.245 491.708 478.275 491.74 478.294 491.779C478.312 491.818 478.318 491.862 478.31 491.905C478.304 491.949 478.285 491.992 478.255 492.026C478.226 492.06 478.187 492.084 478.143 492.097C477.331 492.3 476.499 492.416 475.662 492.442ZM474.255 490.485C474.159 490.459 474.057 490.459 473.961 490.485C473.897 490.485 473.833 490.575 473.82 490.754C473.799 490.902 473.815 491.053 473.866 491.193C473.917 491.334 474.003 491.46 474.114 491.559C475.177 492.045 476.384 492.109 477.491 491.738C476.5 491.133 475.401 490.725 474.255 490.536V490.485Z" fill="#00AF66"/>
<path d="M478.08 492.16H477.978C476.993 491.636 475.1 489.602 475.304 488.541C475.337 488.375 475.426 488.225 475.557 488.118C475.688 488.011 475.852 487.952 476.021 487.952C476.192 487.934 476.366 487.951 476.53 488.001C476.695 488.052 476.848 488.135 476.98 488.246C478.067 489.129 478.259 491.853 478.259 491.994C478.258 492.034 478.248 492.072 478.231 492.108C478.213 492.143 478.188 492.174 478.157 492.199C478.129 492.191 478.103 492.178 478.08 492.16ZM476.174 488.323H476.072C475.778 488.323 475.752 488.502 475.739 488.553C475.624 489.167 476.826 490.753 477.811 491.482C477.744 490.402 477.351 489.368 476.686 488.515C476.544 488.39 476.363 488.317 476.174 488.31V488.323Z" fill="#00AF66"/>
<path d="M412.001 285.143C412.001 285.143 404.557 239.813 417.348 219.476C417.348 219.476 442.929 217.89 460.836 228.263C460.836 228.263 453.405 248.447 452.305 285.143H412.001Z" fill="#263238"/>
<path opacity="0.2" d="M409.673 250.455C409.123 244.302 410.952 238.38 411.208 233.162C414.407 230.336 417.231 227.112 419.611 223.569C419.611 223.569 421.939 241.936 409.673 250.455Z" fill="black"/>
<path d="M420.506 219.386C420.506 219.386 395.231 216.431 391.394 214.884C389.015 213.873 370.405 201.722 370.405 201.722L366.043 208.22C366.043 208.22 385.088 223.568 388.299 225.359C395.845 229.503 412.819 235.349 412.819 235.349C412.819 235.349 423.051 228.173 420.506 219.386Z" fill="#263238"/>
<path d="M457.676 180.924C457.676 180.924 466.361 173.531 474.982 178.174C483.603 182.817 473.562 200.712 476.082 206.199C478.601 211.686 484.063 211.315 477.169 214.884C470.275 218.452 476.951 221.484 476.951 221.484C476.951 221.484 470.786 223.581 470.275 218.491C469.763 213.4 467.537 209.217 465.542 208.348C463.547 207.478 468.932 197.834 467.064 193.063C465.197 188.292 459.786 188.688 459.786 188.688L457.676 180.924Z" fill="#263238"/>
<path d="M443.914 177.535C443.914 177.535 432.965 170.679 427.81 175.552C419.854 183.086 431.2 193.907 443.159 199.036L443.914 177.535Z" fill="#263238"/>
<path d="M211.724 316.173L122.01 216.278C123.687 212.637 124.329 208.604 123.867 204.622C123.405 200.64 121.857 196.862 119.391 193.702C116.925 190.541 113.637 188.12 109.887 186.703C106.137 185.287 102.07 184.929 98.1299 185.67C97.8557 185.714 97.5986 185.831 97.386 186.01C97.1734 186.189 97.0132 186.422 96.9227 186.684C96.8321 186.947 96.8144 187.229 96.8716 187.501C96.9288 187.773 97.0586 188.024 97.2473 188.228L109.015 201.338C109.241 201.588 109.398 201.894 109.467 202.225C109.537 202.555 109.518 202.898 109.411 203.218L106.853 211.034C106.747 211.353 106.558 211.639 106.307 211.864C106.056 212.088 105.75 212.243 105.421 212.313L97.3752 214.014C97.0444 214.082 96.7014 214.063 96.3804 213.957C96.0595 213.852 95.7718 213.664 95.5461 213.413L83.7787 200.315C83.5931 200.126 83.3617 199.989 83.1072 199.916C82.8526 199.843 82.5835 199.837 82.326 199.899C82.0685 199.96 81.8314 200.088 81.6377 200.268C81.444 200.449 81.3003 200.676 81.2206 200.929C80.0625 204.765 79.9827 208.847 80.9898 212.726C81.997 216.605 84.0523 220.131 86.9306 222.92C89.8089 225.708 93.3992 227.651 97.308 228.535C101.217 229.418 105.294 229.209 109.091 227.93L198.805 327.825C197.13 331.465 196.488 335.496 196.949 339.477C197.411 343.457 198.958 347.234 201.422 350.394C203.887 353.555 207.172 355.976 210.92 357.394C214.668 358.812 218.734 359.171 222.673 358.434C222.948 358.391 223.207 358.275 223.421 358.097C223.635 357.919 223.797 357.686 223.889 357.423C223.981 357.161 224 356.878 223.943 356.605C223.887 356.332 223.757 356.08 223.568 355.875L211.762 342.791C211.536 342.538 211.38 342.23 211.31 341.897C211.241 341.565 211.26 341.22 211.366 340.898L213.924 333.095C214.028 332.774 214.216 332.487 214.467 332.262C214.719 332.037 215.026 331.883 215.357 331.816L223.389 330.115C223.72 330.045 224.063 330.064 224.385 330.169C224.706 330.275 224.993 330.464 225.218 330.716L236.998 343.814C237.182 344.006 237.414 344.147 237.669 344.222C237.924 344.297 238.195 344.304 238.454 344.242C238.713 344.18 238.951 344.051 239.144 343.868C239.338 343.685 239.48 343.455 239.557 343.2C240.71 339.364 240.786 335.284 239.777 331.408C238.768 327.531 236.713 324.007 233.836 321.22C230.959 318.433 227.371 316.49 223.465 315.604C219.558 314.719 215.483 314.924 211.686 316.199L211.724 316.173Z" fill="#00AF66"/>
<path opacity="0.7" d="M211.724 316.173L122.01 216.278C123.687 212.637 124.329 208.604 123.867 204.622C123.405 200.64 121.857 196.862 119.391 193.702C116.925 190.541 113.637 188.12 109.887 186.703C106.137 185.287 102.07 184.929 98.1299 185.67C97.8557 185.714 97.5986 185.831 97.386 186.01C97.1734 186.189 97.0132 186.422 96.9227 186.684C96.8321 186.947 96.8144 187.229 96.8716 187.501C96.9288 187.773 97.0586 188.024 97.2473 188.228L109.015 201.338C109.241 201.588 109.398 201.894 109.467 202.225C109.537 202.555 109.518 202.898 109.411 203.218L106.853 211.034C106.747 211.353 106.558 211.639 106.307 211.864C106.056 212.088 105.75 212.243 105.421 212.313L97.3752 214.014C97.0444 214.082 96.7014 214.063 96.3804 213.957C96.0595 213.852 95.7718 213.664 95.5461 213.413L83.7787 200.315C83.5931 200.126 83.3617 199.989 83.1072 199.916C82.8526 199.843 82.5835 199.837 82.326 199.899C82.0685 199.96 81.8314 200.088 81.6377 200.268C81.444 200.449 81.3003 200.676 81.2206 200.929C80.0625 204.765 79.9827 208.847 80.9898 212.726C81.997 216.605 84.0523 220.131 86.9306 222.92C89.8089 225.708 93.3992 227.651 97.308 228.535C101.217 229.418 105.294 229.209 109.091 227.93L198.805 327.825C197.13 331.465 196.488 335.496 196.949 339.477C197.411 343.457 198.958 347.234 201.422 350.394C203.887 353.555 207.172 355.976 210.92 357.394C214.668 358.812 218.734 359.171 222.673 358.434C222.948 358.391 223.207 358.275 223.421 358.097C223.635 357.919 223.797 357.686 223.889 357.423C223.981 357.161 224 356.878 223.943 356.605C223.887 356.332 223.757 356.08 223.568 355.875L211.762 342.791C211.536 342.538 211.38 342.23 211.31 341.897C211.241 341.565 211.26 341.22 211.366 340.898L213.924 333.095C214.028 332.774 214.216 332.487 214.467 332.262C214.719 332.037 215.026 331.883 215.357 331.816L223.389 330.115C223.72 330.045 224.063 330.064 224.385 330.169C224.706 330.275 224.993 330.464 225.218 330.716L236.998 343.814C237.182 344.006 237.414 344.147 237.669 344.222C237.924 344.297 238.195 344.304 238.454 344.242C238.713 344.18 238.951 344.051 239.144 343.868C239.338 343.685 239.48 343.455 239.557 343.2C240.71 339.364 240.786 335.284 239.777 331.408C238.768 327.531 236.713 324.007 233.836 321.22C230.959 318.433 227.371 316.49 223.465 315.604C219.558 314.719 215.483 314.924 211.686 316.199L211.724 316.173Z" fill="white"/>
<path d="M110.37 198.46C110.37 198.46 83.727 201.952 80.2735 206.697C76.82 211.443 76.6281 215.855 92.3735 220.383L96.9909 217.019C96.9909 217.019 90.4549 214.525 91.2223 212.99C91.9898 211.455 110.408 212.031 110.408 212.031L110.37 198.46Z" fill="#FFC4B0"/>
<path d="M120.373 198.115L116.664 211.046L110.435 211.993L97.3884 213.976L97.0046 208.757L96.25 198.448C96.25 198.448 109.066 195.877 120.373 198.115Z" fill="#00AF66"/>
<path opacity="0.2" d="M113.837 203.589L110.473 212.006L97.4267 213.988L97.043 208.77C103.605 203.615 113.837 203.589 113.837 203.589Z" fill="black"/>
<path d="M111.238 492.097L121.599 493.184L122.136 487.172L123.543 470.813L113.17 469.713L111.596 487.786L111.238 492.097Z" fill="#FFC4B0"/>
<path d="M59.4492 490.779H69.5027L69.605 488.502V488.221L70.1294 473.639V473.345L70.3469 467.756H60.2806L59.4492 490.779Z" fill="#FFC4B0"/>
<path opacity="0.2" d="M113.171 469.713L111.598 487.786L122.137 487.172L123.544 470.813L113.171 469.713Z" fill="black"/>
<path opacity="0.2" d="M59.5156 489.5H59.5412L69.6075 488.221L70.1319 474.151L60.04 474.957L59.5412 489.065L59.5156 489.5Z" fill="black"/>
<path d="M70.8977 490.178H58.6826C58.482 490.176 58.2871 490.244 58.131 490.37C57.9748 490.496 57.8669 490.672 57.8256 490.868L55.8431 499.822C55.7637 500.207 55.8403 500.608 56.0562 500.936C56.272 501.265 56.6094 501.494 56.9942 501.574C57.1005 501.587 57.2078 501.587 57.314 501.574C61.2663 501.51 64.1442 501.267 69.107 501.267C72.164 501.267 81.3861 501.587 85.607 501.587C89.828 501.587 90.378 497.417 88.6512 497.033C80.9001 495.345 75.0675 493.004 72.5861 490.779C72.1218 490.368 71.517 490.153 70.8977 490.178Z" fill="#263238"/>
<path d="M122.699 489.883H110.483C110.283 489.882 110.088 489.95 109.932 490.076C109.776 490.202 109.668 490.378 109.626 490.574L107.644 499.527C107.564 499.912 107.641 500.313 107.857 500.642C108.073 500.97 108.41 501.2 108.795 501.28C108.901 501.292 109.009 501.292 109.115 501.28C113.067 501.216 115.945 500.973 120.908 500.973C123.965 500.973 133.187 501.293 137.408 501.293C141.629 501.293 142.179 497.123 140.452 496.739C132.701 495.051 126.868 492.71 124.387 490.484C123.923 490.074 123.318 489.859 122.699 489.883Z" fill="#263238"/>
<path d="M124.504 485.662H109.756C109.756 485.662 105.522 358.139 89.5341 315.29C91.4911 395.015 72.7015 486.941 72.7015 486.941H58.1713C58.1713 486.941 64.8352 414.968 64.8352 383.49C64.8352 327.71 49.4864 300.479 64.4259 264.383H117.789C130.861 343.11 135.888 398.686 124.504 485.662Z" fill="#263238"/>
<path d="M126.154 481.505L125.438 485.662H108.004V481.825L126.154 481.505Z" fill="#00AF66"/>
<path d="M74.4148 483.104L72.7392 486.941H58.1195L57.1602 483.104H74.4148Z" fill="#00AF66"/>
<path d="M163.721 202.796C163.325 203.116 162.928 203.41 162.519 203.679C160.175 205.259 157.403 206.085 154.576 206.045C153.861 206.037 153.147 205.977 152.44 205.866C149.72 205.458 147.208 204.174 145.283 202.21C143.358 200.246 142.126 197.708 141.773 194.981C140.762 187.895 144.331 183.252 149.831 174.925C151.074 172.958 152.801 171.342 154.846 170.231C156.891 169.12 159.186 168.551 161.513 168.578C163.84 168.604 166.122 169.227 168.141 170.385C170.159 171.543 171.848 173.199 173.046 175.194C178.559 184.186 170.82 196.887 163.721 202.796Z" fill="#FFC4B0"/>
<path opacity="0.2" d="M154.616 206.045C153.9 206.037 153.186 205.977 152.479 205.866C150.615 205.585 148.837 204.892 147.274 203.837C145.712 202.781 144.405 201.39 143.449 199.765C144.516 199.069 145.668 198.515 146.877 198.115C150.164 199.961 152.85 202.714 154.616 206.045Z" fill="black"/>
<path d="M130.863 204.485C132.142 210.982 142.771 216.802 142.771 216.802C142.771 216.802 150.011 219.616 150.139 216.802C147.018 213.592 146.532 210.663 147.389 208.015C147.978 206.418 148.878 204.953 150.037 203.705C150.65 202.986 151.308 202.307 152.006 201.671L146.634 184.007C143.871 190.991 137.847 203.129 130.863 204.485Z" fill="#FFC4B0"/>
<path d="M177.522 176.409C176.434 170.346 173.365 170.014 173.365 170.014C173.071 165.179 161.661 160.293 154.179 161.866C146.696 163.439 141.618 170.027 139.572 176.089C136.604 184.928 138.395 195.889 138.395 195.889C144.445 200.494 150.738 201.338 152.644 197.936C154.55 194.534 159.282 193.357 159.282 193.357C162.16 195.851 166.714 193.357 166.714 193.357C166.714 193.357 171.83 191.579 172.764 186.539C173.697 181.5 178.43 181.525 177.522 176.409Z" fill="#263238"/>
<path d="M159.077 190.581C158.664 191.444 158.449 192.388 158.449 193.344C158.449 194.3 158.664 195.244 159.077 196.107C160.19 198 162.914 196.503 164.5 193.92C165.856 191.63 166.981 187.818 164.948 186.923C162.914 186.028 160.1 188.023 159.077 190.581Z" fill="#F49B7E"/>
<path d="M160.383 161.853C171.6 158.515 180.63 176.921 180.196 186.68C179.825 194.61 171.498 193.651 171.498 193.651C171.498 193.651 176.103 193.344 175.655 187.78C175.655 187.78 173.66 194.597 169.196 190.121C164.732 185.644 170.027 174.977 170.027 174.977L160.383 161.853Z" fill="#263238"/>
<path opacity="0.2" d="M88.3426 367.412C87.0916 355.054 85.209 342.767 82.7019 330.601C67.5961 311.619 75.8461 294.096 75.8461 294.096C77.8671 306.286 89.5322 315.29 89.5322 315.29C89.9926 332.443 89.4554 350.158 88.3426 367.412Z" fill="black"/>
<path d="M130.832 201.568C130.832 201.568 134.068 199.164 140.067 202.707C143.821 205.137 146.629 208.78 148.023 213.029L130.832 201.568Z" fill="#00AF66"/>
<path d="M123.548 289.555C123.548 289.555 123.548 258.436 156.087 220.767C156.087 220.767 141.48 200.379 120.376 198.115C120.376 198.115 81.4151 211.481 60.1953 268.464L123.548 289.555Z" fill="#00AF66"/>
<path opacity="0.6" d="M156.048 220.767C152.637 224.758 149.546 228.664 146.775 232.484C141.921 239.166 137.643 246.248 133.984 253.652C123.521 274.962 123.521 289.556 123.521 289.556L60.1562 268.451C81.376 211.481 120.336 198.102 120.336 198.102C141.48 200.379 156.048 220.767 156.048 220.767Z" fill="white"/>
<path d="M123.943 285.092C123.802 286.141 123.712 287.01 123.661 287.65L61.0508 266.2C61.3578 265.394 61.6775 264.601 61.9973 263.821L123.943 285.092Z" fill="#00AF66"/>
<path d="M125.04 278.761C124.848 279.669 124.669 280.513 124.528 281.319C102.784 272.941 78.1365 263.591 64.1562 258.756C64.5016 257.963 64.8597 257.195 65.2179 256.428C80.8097 261.787 107.798 272.097 125.04 278.761Z" fill="#00AF66"/>
<path d="M126.69 272.339C126.434 273.196 126.204 274.028 125.987 274.821C108.719 267.325 82.8182 256.44 67.6484 251.427C68.0449 250.646 68.4415 249.892 68.838 249.137C84.2891 254.279 109.666 264.959 126.69 272.339Z" fill="#00AF66"/>
<path d="M128.825 265.778C128.531 266.622 128.236 267.44 127.968 268.233C111.161 260.124 87.0375 249.047 71.5352 244.302C71.97 243.534 72.4177 242.78 72.8142 242.051C88.6491 246.937 112.235 257.771 128.825 265.778Z" fill="#00AF66"/>
<path d="M131.472 259.165C131.113 259.97 130.781 260.763 130.474 261.556C114.396 252.961 92.1018 241.91 75.832 237.369C76.3309 236.615 76.8425 235.86 77.3541 235.131C93.8158 239.876 115.637 250.697 131.472 259.165Z" fill="#00AF66"/>
<path d="M134.593 252.475C134.196 253.268 133.813 254.061 133.442 254.842C118.323 245.888 97.7557 235.067 80.6289 230.616C81.1917 229.861 81.7545 229.132 82.3301 228.403C99.5847 233.085 119.704 243.688 134.593 252.475Z" fill="#00AF66"/>
<path d="M138.138 245.799C137.69 246.579 137.268 247.346 136.859 248.101C122.789 239.045 103.885 228.506 85.9648 224.003C86.6044 223.262 87.2439 222.545 87.909 221.842C105.88 226.562 124.388 236.858 138.138 245.799Z" fill="#00AF66"/>
<path d="M142.183 239.263C141.709 239.979 141.262 240.695 140.814 241.411C127.921 232.343 110.5 222.225 92.043 217.582C92.772 216.866 93.4883 216.175 94.2046 215.51C112.406 220.371 129.469 230.335 142.183 239.263Z" fill="#00AF66"/>
<path d="M146.632 232.79L145.161 234.862C133.458 225.909 117.495 216.226 98.9102 211.417C99.7543 210.726 100.573 210.061 101.379 209.435C119.529 214.423 135.108 223.926 146.632 232.79Z" fill="#00AF66"/>
<path d="M151.507 226.293C150.97 226.971 150.445 227.636 149.934 228.314C137.328 217.74 122.637 209.939 106.816 205.418C107.801 204.753 108.748 204.139 109.656 203.589C124.978 208.297 139.206 216.016 151.507 226.293Z" fill="#00AF66"/>
<path d="M156.045 220.767L155.034 221.957C143.796 211.913 130.525 204.409 116.125 199.957C117.698 199.177 118.888 198.678 119.591 198.396C131.499 202.423 142.605 208.514 152.399 216.393C153.694 217.783 154.911 219.244 156.045 220.767Z" fill="#00AF66"/>
<path opacity="0.2" d="M146.811 232.483C141.957 239.166 137.678 246.247 134.02 253.652C133.939 248.811 134.959 244.016 137.002 239.626C139.045 235.237 142.057 231.369 145.813 228.314L146.811 232.483Z" fill="black"/>
<path d="M156.045 230.385V269.883L171.394 297.281L177.674 304.277C177.674 304.277 170.332 308.805 168.311 305.902C166.677 303.171 165.323 300.283 164.269 297.281C164.269 297.281 149.1 276.905 146.72 272.045C144.341 267.184 143.484 237.753 143.484 237.753L156.045 230.385Z" fill="#FFC4B0"/>
<path d="M156.045 220.767C158.45 227.418 158.437 250.084 158.437 250.084L141.387 251.58L140.031 242.627C140.44 236.809 142.469 231.222 145.889 226.498C147.082 224.88 148.603 223.533 150.354 222.545C152.104 221.557 154.044 220.951 156.045 220.767Z" fill="#00AF66"/>
<g clip-path="url(#clip1_1293_13411)">
<mask id="mask0_1293_13411" style="mask-type:luminance" maskUnits="userSpaceOnUse" x="437" y="241" width="4" height="6">
<path d="M437.155 242.393C437.888 243.34 438.364 244.466 438.538 245.659C439.16 245.891 439.754 246.195 440.307 246.564C440.282 244.84 439.75 243.165 438.779 241.754C438.216 241.904 437.671 242.118 437.155 242.393Z" fill="white"/>
</mask>
<g mask="url(#mask0_1293_13411)">
<path d="M440.322 240.584L435.504 242.176L437.219 247.586L442.037 245.993L440.322 240.584Z" fill="white"/>
</g>
<mask id="mask1_1293_13411" style="mask-type:luminance" maskUnits="userSpaceOnUse" x="424" y="244" width="5" height="10">
<path d="M426.848 244.769C426.067 244.884 425.358 245.301 424.872 245.934C423.988 247.091 423.833 248.901 424.474 250.547C424.94 251.636 425.69 252.574 426.643 253.26C426.695 252.712 426.799 252.17 426.953 251.642C426.963 251.544 427.012 251.449 427.048 251.353C426.618 250.946 426.276 250.452 426.046 249.903C425.636 248.843 425.703 247.639 426.206 246.974C426.35 246.795 426.538 246.657 426.751 246.575C426.937 246.762 427.182 246.878 427.443 246.903C427.633 246.922 427.826 246.893 428.004 246.819C428.181 246.745 428.338 246.628 428.462 246.479C428.585 246.329 428.67 246.151 428.71 245.961C428.751 245.77 428.744 245.572 428.692 245.385C428.64 245.198 428.544 245.026 428.412 244.886C428.279 244.745 428.115 244.64 427.933 244.578C427.752 244.517 427.558 244.502 427.369 244.535C427.179 244.567 427.001 244.646 426.848 244.765" fill="white"/>
</mask>
<g mask="url(#mask1_1293_13411)">
<path d="M428.813 243.989L423.062 244.253L423.449 253.604L429.199 253.34L428.813 243.989Z" fill="white"/>
</g>
<mask id="mask2_1293_13411" style="mask-type:luminance" maskUnits="userSpaceOnUse" x="435" y="247" width="6" height="7">
<path d="M435.706 252.291L437.152 253.332C438.302 252.63 439.633 250.599 440.007 249.018L438.542 247.943C438.117 249.515 436.971 251.459 435.704 252.309" fill="white"/>
</mask>
<g mask="url(#mask2_1293_13411)">
<path d="M438.091 245.87L433.164 250.504L437.626 255.409L442.552 250.775L438.091 245.87Z" fill="white"/>
</g>
<mask id="mask3_1293_13411" style="mask-type:luminance" maskUnits="userSpaceOnUse" x="434" y="245" width="10" height="9">
<path d="M434.391 245.672C434.169 246.261 434.043 246.881 434.015 247.51C435.27 247.209 436.583 247.294 437.788 247.754C438.623 248.023 439.378 248.502 439.981 249.147C440.108 249.26 440.226 249.381 440.337 249.51C440.479 249.665 440.612 249.829 440.734 250C440.975 250.321 441.184 250.664 441.36 251.026C441.77 251.909 442.012 252.864 442.071 253.839C442.657 253.635 443.2 253.319 443.67 252.909C443.538 251.987 443.271 251.091 442.877 250.25C442.361 249.203 441.632 248.279 440.739 247.54C440.594 247.414 440.442 247.295 440.285 247.185C439.763 246.802 439.197 246.487 438.598 246.247C438.438 246.174 438.274 246.112 438.106 246.06C437.506 245.856 436.886 245.723 436.257 245.661C435.635 245.602 435.008 245.615 434.389 245.699" fill="white"/>
</mask>
<g mask="url(#mask3_1293_13411)">
<path d="M436.316 241.7L430.766 251.4L441.444 257.692L446.995 247.991L436.316 241.7Z" fill="white"/>
</g>
<mask id="mask4_1293_13411" style="mask-type:luminance" maskUnits="userSpaceOnUse" x="435" y="256" width="9" height="5">
<path d="M441.685 256.701C441.605 256.905 441.503 257.1 441.381 257.281C440.74 258.227 439.726 258.843 438.906 258.787C438.621 258.77 438.35 258.66 438.132 258.474C438.124 258.245 438.052 258.024 437.923 257.837C437.795 257.649 437.616 257.504 437.408 257.417C437.2 257.331 436.971 257.307 436.75 257.349C436.529 257.391 436.324 257.497 436.16 257.654C435.996 257.811 435.88 258.013 435.825 258.235C435.771 258.457 435.78 258.69 435.853 258.907C435.925 259.123 436.057 259.313 436.234 259.455C436.41 259.596 436.623 259.683 436.847 259.705L436.913 259.711C437.423 260.2 438.087 260.491 438.788 260.532C440.217 260.624 441.785 259.745 442.773 258.277C443.198 257.616 443.491 256.877 443.634 256.102C443.012 256.393 442.357 256.602 441.683 256.723" fill="white"/>
</mask>
<g mask="url(#mask4_1293_13411)">
<path d="M438.596 252.088L433.582 258.615L440.657 264.224L445.672 257.698L438.596 252.088Z" fill="white"/>
</g>
<mask id="mask5_1293_13411" style="mask-type:luminance" maskUnits="userSpaceOnUse" x="431" y="239" width="16" height="18">
<path d="M437.669 239.792C437.485 239.856 437.315 239.92 437.144 239.99C436.548 240.222 435.978 240.519 435.443 240.874C435.31 240.97 435.176 241.066 435.052 241.162C435.038 241.172 435.025 241.182 435.013 241.194C433.555 242.356 432.52 243.98 432.076 245.807C432.026 246.001 431.986 246.196 431.953 246.396C431.836 247.065 431.802 247.746 431.852 248.423C431.857 248.608 431.879 248.795 431.896 248.982C432.081 250.365 432.602 251.678 433.413 252.803C433.464 252.871 433.511 252.938 433.563 253.002C433.617 253.078 433.675 253.152 433.737 253.222C434.142 253.721 434.603 254.171 435.109 254.563C435.258 254.685 435.413 254.8 435.573 254.906C436.737 255.693 438.073 256.176 439.466 256.312C440.091 256.371 440.721 256.356 441.344 256.267C441.52 256.238 441.7 256.21 441.877 256.169C442.517 256.024 443.136 255.794 443.718 255.487C443.891 255.398 444.059 255.299 444.222 255.192C444.573 254.975 444.906 254.727 445.216 254.452C445.736 253.956 446.122 253.332 446.337 252.641C446.553 251.95 446.59 251.215 446.446 250.507C446.3 249.634 445.868 248.838 445.22 248.249C445.157 248.042 445.041 247.857 444.883 247.712C444.725 247.568 444.532 247.47 444.323 247.428C444.114 247.387 443.898 247.404 443.698 247.478C443.497 247.552 443.32 247.679 443.185 247.847C443.051 248.015 442.963 248.217 442.932 248.431C442.901 248.645 442.927 248.864 443.009 249.063C443.09 249.263 443.224 249.436 443.395 249.564C443.566 249.693 443.768 249.771 443.98 249.792C444.093 249.799 444.208 249.79 444.319 249.766C444.555 250.066 444.715 250.421 444.784 250.799C444.868 251.195 444.857 251.607 444.753 251.999C444.65 252.391 444.455 252.752 444.187 253.053C444.161 253.088 444.131 253.12 444.098 253.149C443.986 253.246 443.87 253.344 443.751 253.431C443.254 253.818 442.695 254.114 442.1 254.307C441.944 254.36 441.784 254.408 441.642 254.448C440.988 254.603 440.313 254.648 439.645 254.582C438.818 254.506 438.012 254.276 437.268 253.903C437.107 253.82 436.947 253.732 436.787 253.636C436.277 253.325 435.811 252.946 435.399 252.51C435.282 252.39 435.165 252.262 435.058 252.129L434.911 251.944C434.078 250.85 433.604 249.518 433.554 248.134C433.543 247.964 433.543 247.794 433.554 247.624C433.572 246.993 433.681 246.367 433.878 245.768C433.931 245.588 433.997 245.409 434.067 245.23C434.505 244.168 435.206 243.238 436.101 242.531C436.207 242.447 436.317 242.367 436.436 242.288C436.554 242.209 436.705 242.115 436.851 242.03C437.37 241.737 437.92 241.503 438.489 241.333C438.659 241.282 438.832 241.235 439 241.197C440.043 240.904 441.149 240.942 442.168 241.306C443.177 241.76 443.966 242.657 444.071 243.507C444.106 243.783 444.056 244.064 443.927 244.31C443.749 244.273 443.564 244.287 443.392 244.35C443.221 244.413 443.07 244.524 442.956 244.669C442.803 244.834 442.699 245.039 442.654 245.261C442.609 245.483 442.626 245.714 442.703 245.926C442.78 246.138 442.914 246.325 443.09 246.463C443.265 246.602 443.476 246.689 443.697 246.713C443.974 246.739 444.251 246.664 444.479 246.503C444.708 246.341 444.873 246.103 444.945 245.83C445.252 245.494 445.483 245.095 445.623 244.66C445.763 244.225 445.808 243.765 445.755 243.311C445.562 241.844 444.419 240.429 442.817 239.73C442.297 239.508 441.748 239.37 441.186 239.321C439.995 239.23 438.798 239.391 437.669 239.792Z" fill="white"/>
</mask>
<g mask="url(#mask5_1293_13411)">
<path d="M435.49 233.176L425.281 252.353L443.41 262.285L453.619 243.108L435.49 233.176Z" fill="white"/>
</g>
<mask id="mask6_1293_13411" style="mask-type:luminance" maskUnits="userSpaceOnUse" x="428" y="238" width="9" height="7">
<path d="M433.019 238.385C432.306 238.361 431.598 238.525 430.964 238.859C430.33 239.194 429.791 239.689 429.399 240.296C428.852 241.069 428.603 242.019 428.7 242.965C428.631 243.102 428.588 243.251 428.573 243.404C428.552 243.616 428.587 243.829 428.674 244.022C428.761 244.215 428.898 244.38 429.069 244.502C429.24 244.623 429.441 244.696 429.649 244.712C429.858 244.728 430.067 244.688 430.255 244.594C430.443 244.501 430.604 244.359 430.72 244.182C430.836 244.005 430.904 243.8 430.917 243.587C430.929 243.375 430.886 243.163 430.791 242.974C430.696 242.785 430.553 242.625 430.377 242.511C430.397 242.068 430.543 241.64 430.797 241.278C431.027 240.921 431.342 240.628 431.713 240.426C432.084 240.225 432.499 240.122 432.918 240.127C433.629 240.172 434.324 240.352 434.968 240.657C435.502 240.253 436.08 239.912 436.69 239.639C435.676 238.946 434.506 238.523 433.287 238.411L433.019 238.385Z" fill="white"/>
</mask>
<g mask="url(#mask6_1293_13411)">
<path d="M429.398 236.577L427.195 244.249L435.732 246.756L437.935 239.084L429.398 236.577Z" fill="white"/>
</g>
<mask id="mask7_1293_13411" style="mask-type:luminance" maskUnits="userSpaceOnUse" x="427" y="246" width="9" height="14">
<path d="M427.61 251.212C427.546 251.377 427.49 251.545 427.442 251.716C427.438 251.739 427.436 251.763 427.435 251.787C427.26 252.384 427.155 253 427.122 253.622C427.104 253.81 427.086 253.998 427.108 254.185C427.116 255.491 427.464 256.77 428.116 257.893C428.454 258.451 428.917 258.919 429.468 259.259C430.019 259.599 430.642 259.801 431.285 259.849C431.422 259.862 431.558 259.875 431.69 259.888C432.546 259.906 433.386 259.636 434.077 259.119L434.099 259.121C434.327 259.144 434.558 259.099 434.762 258.99C434.966 258.882 435.134 258.715 435.246 258.511C435.358 258.306 435.409 258.073 435.392 257.84C435.375 257.607 435.292 257.385 435.152 257.2C435.012 257.015 434.821 256.876 434.604 256.801C434.387 256.725 434.152 256.716 433.93 256.774C433.707 256.832 433.506 256.956 433.351 257.129C433.196 257.302 433.094 257.517 433.058 257.748C432.655 258.022 432.174 258.153 431.69 258.123C431.271 258.137 430.855 258.043 430.481 257.849C430.108 257.655 429.789 257.369 429.554 257.015C429.204 256.417 428.966 255.757 428.853 255.07C428.83 254.883 428.816 254.695 428.813 254.506C429.494 254.833 430.225 255.039 430.975 255.115L431.239 255.14C432.323 255.245 433.418 255.129 434.46 254.799L433.516 253.706C433.192 253.156 433.251 253.328 432.821 253.409C432.282 253.493 431.734 253.492 431.196 253.407C430.408 253.344 429.64 253.117 428.943 252.74C428.942 252.72 428.944 252.701 428.948 252.681C428.962 252.538 429.015 252.403 429.05 252.262C429.051 252.238 429.053 252.214 429.057 252.191C429.474 250.833 430.289 249.637 431.393 248.762C431.323 248.07 431.333 247.373 431.423 246.683C429.667 247.689 428.316 249.294 427.61 251.212Z" fill="white"/>
</mask>
<g mask="url(#mask7_1293_13411)">
<path d="M427.873 245.75L425.676 259.23L435.174 260.796L437.372 247.316L427.873 245.75Z" fill="white"/>
</g>
</g>
</g>
<defs>
<clipPath id="clip0_1293_13411">
<rect width="550" height="550" fill="white"/>
</clipPath>
<clipPath id="clip1_1293_13411">
<rect width="22.664" height="22.664" fill="white" transform="translate(425.16 237) rotate(5.47056)"/>
</clipPath>
</defs>
</svg>
