<svg width="220" height="304" viewBox="0 0 220 304" fill="none" xmlns="http://www.w3.org/2000/svg">
<g clip-path="url(#clip0_1168_34954)">
<rect width="220" height="304" fill="#EDECEC"/>
<path d="M140.089 225.069C139.44 216.072 139.258 207.047 139.544 198.03L139.533 198.427C147.427 190.073 152.35 179.26 153.516 167.715L153.537 167.49C157.094 167.19 162.706 163.657 164.342 149.65C164.836 147.238 164.65 144.732 163.805 142.424C162.96 140.115 161.491 138.098 159.569 136.607L159.538 136.586C165.328 118.81 177.35 63.8121 137.289 58.1367C133.166 50.7479 122.613 47 108.892 47C53.9983 48.028 47.3792 89.3086 59.3797 136.586C57.442 138.09 55.9641 140.127 55.1188 142.458C54.2736 144.788 54.0959 147.317 54.6067 149.746L54.5962 149.661C56.2746 163.646 61.8448 167.201 65.4009 167.501C66.6483 179.175 71.7281 190.074 79.8141 198.427C80.08 207.601 79.8769 216.783 79.2057 225.936L79.2581 225.069C68.3695 254.881 -4.93423 246.507 -8.29102 304H227.292C223.915 246.507 150.946 254.881 140.079 225.069H140.089Z" fill="#C0C0C0"/>
</g>
<defs>
<clipPath id="clip0_1168_34954">
<rect width="220" height="304" fill="white"/>
</clipPath>
</defs>
</svg>
