<svg width="320" height="320" viewBox="0 0 320 320" fill="none" xmlns="http://www.w3.org/2000/svg">
<mask id="mask0_279_4068" style="mask-type:luminance" maskUnits="userSpaceOnUse" x="0" y="0" width="320" height="320">
<path d="M320 0H0V320H320V0Z" fill="white"/>
</mask>
<g mask="url(#mask0_279_4068)">
<path d="M257.742 165.581C257.742 220.108 213.539 264.311 159.012 264.311C104.484 264.311 60.2812 220.108 60.2812 165.581C60.2812 111.054 104.484 66.8505 159.012 66.8505C213.539 66.8505 257.742 111.054 257.742 165.581Z" fill="#F5F6F8"/>
<path d="M232.952 165.581C232.952 206.417 199.847 239.521 159.011 239.521C118.175 239.521 85.0713 206.417 85.0713 165.581C85.0713 124.744 118.175 91.6406 159.011 91.6406C199.847 91.6406 232.952 124.744 232.952 165.581Z" stroke="#00AF66" stroke-width="14.8" stroke-miterlimit="10"/>
<path d="M224.959 165.581C224.959 202.002 195.433 231.528 159.012 231.528C122.59 231.528 93.0645 202.002 93.0645 165.581C93.0645 129.159 122.59 99.6341 159.012 99.6341C195.433 99.6341 224.959 129.159 224.959 165.581Z" fill="#00AF66"/>
<mask id="mask1_279_4068" style="mask-type:luminance" maskUnits="userSpaceOnUse" x="-90" y="-90" width="475" height="475">
<path d="M-89.126 -89.28H384.474V384.32H-89.126V-89.28Z" fill="white"/>
</mask>
<g mask="url(#mask1_279_4068)">
<mask id="mask2_279_4068" style="mask-type:alpha" maskUnits="userSpaceOnUse" x="124" y="142" width="70" height="48">
<path d="M149.64 189.15C147.816 189.15 145.999 188.428 144.65 187L126.809 168.109C124.207 165.354 124.331 161.011 127.085 158.41C129.84 155.809 134.183 155.932 136.784 158.687L149.993 172.673L181.599 143.806C184.398 141.25 188.737 141.447 191.293 144.245C193.848 147.042 193.651 151.382 190.854 153.938L154.265 187.355C152.95 188.556 151.293 189.15 149.64 189.15Z" fill="white"/>
</mask>
<g mask="url(#mask2_279_4068)">
<path d="M200.125 137.123L198.673 197.841L110.916 195.742L112.368 135.024L200.125 137.123Z" fill="white"/>
</g>
</g>
<mask id="mask3_279_4068" style="mask-type:luminance" maskUnits="userSpaceOnUse" x="61" y="86" width="29" height="30">
<path d="M61.1104 86.829H89.5264V115.245H61.1104V86.829Z" fill="white"/>
</mask>
<g mask="url(#mask3_279_4068)">
<path d="M79.4342 93.7422C79.5844 93.5841 79.8396 93.76 79.7463 93.9571C78.8889 95.7675 77.3953 99.1678 77.6608 100.367C77.9247 101.559 80.6822 103.989 82.229 105.275C82.3975 105.415 82.2383 105.682 82.0351 105.6C80.2354 104.874 76.9733 103.665 75.7926 103.926C74.5496 104.201 71.9034 106.927 70.6401 108.294C70.4969 108.448 70.245 108.293 70.3198 108.096C70.9705 106.38 72.2047 102.874 71.9304 101.636C71.655 100.392 69.036 97.7173 67.7273 96.4427C67.5769 96.2963 67.7379 96.0493 67.9328 96.1273C69.6447 96.8122 73.2036 98.1385 74.4503 97.8625C75.6368 97.5998 78.1096 95.1374 79.4342 93.7422Z" fill="#00AF66"/>
</g>
<mask id="mask4_279_4068" style="mask-type:luminance" maskUnits="userSpaceOnUse" x="229" y="163" width="39" height="39">
<path d="M229.15 163.219H267.038V201.107H229.15V163.219Z" fill="white"/>
</mask>
<g mask="url(#mask4_279_4068)">
<path d="M250.667 171.615C250.798 171.368 251.174 171.497 251.127 171.773C250.693 174.306 250.021 179.023 250.763 180.413C251.501 181.795 255.747 183.846 258.102 184.9C258.359 185.015 258.254 185.4 257.975 185.369C255.5 185.093 251.052 184.725 249.683 185.455C248.243 186.224 245.914 190.507 244.825 192.631C244.701 192.872 244.336 192.767 244.361 192.497C244.572 190.152 244.887 185.395 244.12 183.959C243.351 182.517 239.191 180.116 237.134 178.993C236.898 178.864 237.011 178.503 237.279 178.533C239.631 178.788 244.486 179.198 245.931 178.427C247.307 177.692 249.512 173.796 250.667 171.615Z" fill="#00AF66"/>
</g>
<mask id="mask5_279_4068" style="mask-type:luminance" maskUnits="userSpaceOnUse" x="207" y="217" width="23" height="22">
<path d="M207.487 217.419H229.065V238.996H207.487V217.419Z" fill="white"/>
</mask>
<g mask="url(#mask5_279_4068)">
<path d="M217.533 222.402C217.551 222.255 217.762 222.247 217.791 222.393C218.06 223.731 218.627 226.197 219.26 226.744C219.89 227.288 222.386 227.494 223.754 227.567C223.903 227.575 223.925 227.786 223.781 227.824C222.502 228.16 220.227 228.826 219.688 229.45C219.12 230.106 218.784 232.673 218.649 233.933C218.634 234.076 218.433 234.094 218.394 233.956C218.051 232.753 217.299 230.335 216.645 229.77C215.988 229.202 213.469 228.806 212.235 228.642C212.093 228.623 212.08 228.423 212.219 228.386C213.433 228.064 215.918 227.34 216.487 226.682C217.028 226.056 217.377 223.704 217.533 222.402Z" fill="#00AF66"/>
</g>
<mask id="mask6_279_4068" style="mask-type:luminance" maskUnits="userSpaceOnUse" x="213" y="72" width="29" height="30">
<path d="M213.276 72.7964H241.692V101.212H213.276V72.7964Z" fill="white"/>
</mask>
<g mask="url(#mask6_279_4068)">
<path d="M222.669 80.335C222.59 80.1447 222.839 79.9919 222.974 80.148C224.207 81.5819 226.569 84.1743 227.706 84.4049C228.836 84.6342 231.99 83.186 233.692 82.344C233.878 82.2523 234.048 82.4922 233.899 82.6361C232.582 83.9107 230.288 86.2623 230.061 87.3815C229.822 88.5596 231.16 91.8883 231.855 93.5023C231.934 93.6852 231.703 93.843 231.562 93.7029C230.33 92.4836 227.778 90.0747 226.604 89.8365C225.425 89.5973 222.113 90.8323 220.511 91.4731C220.327 91.5468 220.176 91.3132 220.318 91.1749C221.565 89.96 224.074 87.3972 224.314 86.2155C224.542 85.0908 223.365 82.013 222.669 80.335Z" fill="#00AF66"/>
</g>
<mask id="mask7_279_4068" style="mask-type:luminance" maskUnits="userSpaceOnUse" x="62" y="208" width="48" height="49">
<path d="M62.1631 208.913H109.523V256.273H62.1631V208.913Z" fill="white"/>
</mask>
<g mask="url(#mask7_279_4068)">
<path d="M73.556 223.872C73.304 223.592 73.6405 223.177 73.9672 223.364C76.967 225.079 82.617 228.101 84.7152 227.804C86.8008 227.508 91.3476 223.089 93.7647 220.599C94.0279 220.328 94.4668 220.637 94.2988 220.976C92.8098 223.975 90.2957 229.425 90.5882 231.491C90.8961 233.665 95.2332 238.579 97.4152 240.934C97.6625 241.201 97.3615 241.614 97.0323 241.459C94.1677 240.111 88.302 237.522 86.1347 237.829C83.9582 238.137 79.0099 242.286 76.6435 244.368C76.3715 244.607 75.9682 244.297 76.1283 243.972C77.534 241.119 80.2888 235.174 79.98 232.993C79.6861 230.917 75.7796 226.336 73.556 223.872Z" fill="#00AF66"/>
</g>
</g>
</svg>
